<?xml version="1.0" encoding="utf-8"?>
<!-- Generator: Adobe Illustrator 21.1.0, SVG Export Plug-In . SVG Version: 6.00 Build 0)  -->
<svg version="1.1" id="Layer_1" xmlns="http://www.w3.org/2000/svg" xmlns:xlink="http://www.w3.org/1999/xlink" x="0px" y="0px"
	 viewBox="0 0 500 500" style="enable-background:new 0 0 500 500;" xml:space="preserve">
<style type="text/css">
	.st0{fill:#FFFFFF;}
	.st1{fill:#DCF4E7;}
	.st2{fill:none;stroke:#5395A5;stroke-width:0.5443;stroke-miterlimit:10;}
	.st3{fill:#83C7CA;}
	.st4{fill:#F4D17A;}
	.st5{fill:#F5D9CA;}
	.st6{fill:#724068;}
	.st7{fill:#27498D;}
	.st8{fill:#1D3B6B;}
	.st9{fill:#315FA8;}
	.st10{fill:#B27E75;}
	.st11{fill:#936560;}
	.st12{fill:#C5DBFF;}
	.st13{fill:#D9EFFF;}
</style>
<title>Artboard 1</title>
<g id="BACKGROUND">
	<rect y="92" class="st0" width="500" height="320"/>
	<rect y="92" class="st0" width="500" height="320"/>
</g>
<g id="OBJECTS">
	<path class="st1" d="M49.5,309.7H297c0,0,29.5-0.6,25.6,10.9s-35,5.8-38.6,11.6s8.5,18-20,19.9s-83.9,8.3-77.7,0s6.2-12.8-7.9-12.2
		s-50.7-7.7-55.1,0s-44.3,6.2-57.4,6s-9.3-9.9-20.8-16.3S17,307.9,49.5,309.7z"/>
	<line class="st2" x1="84.9" y1="258" x2="84.9" y2="313.1"/>
	<path class="st3" d="M102,315.4c0.2-0.5,0-1.1-0.5-1.3c-0.2-0.1-0.5-0.1-0.7-0.1c-0.1-0.8-0.9-1.4-1.7-1.2
		c-0.6,0.1-1.1,0.6-1.2,1.2c-0.4-0.3-0.9-0.3-1.2,0c-0.3-0.6-1-1-1.6-0.7c-0.2,0.1-0.3,0.2-0.4,0.3h-0.1c0.1-0.2,0.1-0.4,0.1-0.5
		c0-0.7-0.6-1.3-1.3-1.3s-1.3,0.6-1.3,1.3c0,0,0,0,0,0c0,0,0,0.1,0,0.1c-0.4-0.3-1-0.4-1.5-0.2c-0.1-0.5-0.5-0.9-1-0.8
		c-0.1,0-0.2,0-0.3,0.1c-0.3-0.9-1.3-1.5-2.2-1.2c-0.7,0.2-1.2,0.9-1.2,1.7c0,0,0,0.1,0,0.1l0,0c0-0.6-0.5-1-1.1-0.9
		c-0.6,0-1,0.5-0.9,1.1l0,0c-0.1-0.7-0.8-1.2-1.5-1.1c-0.2,0-0.3,0.1-0.5,0.2c0.3-1-0.2-2-1.2-2.2s-2,0.2-2.2,1.2
		c-0.5-0.5-1.4-0.6-2,0c-0.4,0.4-0.5,0.9-0.4,1.4c-0.6-0.2-1.2,0-1.6,0.5c-0.3-0.8-1.1-1.2-1.9-1s-1.2,1.1-1,1.9
		c0,0.1,0.1,0.2,0.2,0.4c-0.1,0-0.2-0.1-0.3-0.1c-0.2-0.9-1.1-1.5-2-1.3c-0.9,0.2-1.5,1.1-1.3,2c0,0.2,0.1,0.5,0.3,0.7
		c-0.8,0.1-1.5,0.4-1.5,0.8s0.8,0.8,1.8,0.8h32.6c1,0,1.8-0.4,1.8-0.8S102.7,315.5,102,315.4z"/>
	<ellipse class="st3" cx="64.2" cy="316" rx="0.9" ry="0.4"/>
	<ellipse class="st3" cx="106.5" cy="316.3" rx="1" ry="0.3"/>
	<path class="st4" d="M85.4,231.5l5,10.1c0.1,0.3,0.4,0.5,0.8,0.6l11.2,1.6c0.5,0.1,0.9,0.6,0.9,1.1c0,0.2-0.1,0.5-0.3,0.6l-8.1,7.9
		c-0.2,0.2-0.4,0.6-0.3,0.9l1.9,11.1c0.1,0.5-0.2,1.1-0.8,1.2c-0.2,0-0.5,0-0.7-0.1l-10-5.2c-0.3-0.2-0.7-0.2-0.9,0l-10,5.2
		c-0.5,0.3-1.1,0.1-1.4-0.4c-0.1-0.2-0.2-0.5-0.1-0.7l1.9-11.1c0.1-0.3,0-0.7-0.3-0.9l-8.1-7.9c-0.4-0.4-0.4-1-0.1-1.4
		c0.2-0.2,0.4-0.3,0.6-0.3l11.2-1.6c0.3,0,0.6-0.3,0.8-0.6l5-10.1c0.2-0.5,0.8-0.7,1.3-0.5C85.2,231.1,85.3,231.3,85.4,231.5z"/>
	<line class="st2" x1="129" y1="258" x2="129" y2="313.1"/>
	<path class="st3" d="M146.1,315.4c0.2-0.5,0-1.1-0.5-1.3c-0.2-0.1-0.4-0.1-0.6-0.1c-0.1-0.8-0.9-1.4-1.7-1.2
		c-0.6,0.1-1.1,0.6-1.2,1.2c-0.4-0.3-0.9-0.3-1.2,0c-0.3-0.6-1-1-1.6-0.7c-0.2,0.1-0.3,0.2-0.4,0.3h-0.1c0.1-0.2,0.1-0.4,0.1-0.5
		c0-0.7-0.6-1.3-1.3-1.3c-0.7,0-1.3,0.6-1.3,1.3c0,0,0,0.1,0,0.1c-0.4-0.3-1-0.4-1.5-0.2c-0.1-0.5-0.5-0.9-1-0.8
		c-0.1,0-0.2,0-0.3,0.1c-0.3-0.9-1.3-1.5-2.2-1.2c-0.7,0.2-1.2,0.9-1.2,1.7c0,0,0,0.1,0,0.1l0,0c0-0.6-0.5-1-1.1-0.9
		c-0.6,0-1,0.5-0.9,1.1l0,0c-0.1-0.7-0.8-1.2-1.5-1.1c-0.2,0-0.3,0.1-0.5,0.2c0.4-0.9-0.1-1.9-1-2.3c-0.9-0.4-1.9,0.1-2.3,1
		c0,0.1-0.1,0.2-0.1,0.3c-0.5-0.5-1.4-0.6-2,0c-0.4,0.4-0.5,0.9-0.4,1.4c-0.6-0.2-1.2,0-1.6,0.5c-0.3-0.8-1.1-1.2-1.9-1
		s-1.2,1.1-1,1.9c0,0.1,0.1,0.2,0.2,0.4c-0.1,0-0.2-0.1-0.3-0.1c-0.2-0.9-1.1-1.5-2-1.3c-0.9,0.2-1.5,1.1-1.3,2
		c0,0.2,0.1,0.5,0.3,0.7c-0.8,0.1-1.5,0.4-1.5,0.8s0.8,0.8,1.8,0.8h32.6c1,0,1.8-0.4,1.8-0.8S146.9,315.5,146.1,315.4z"/>
	<ellipse class="st3" cx="108.4" cy="316" rx="0.9" ry="0.4"/>
	<ellipse class="st3" cx="150.7" cy="316.3" rx="1" ry="0.3"/>
	<path class="st4" d="M129.6,231.5l5,10.1c0.1,0.3,0.4,0.5,0.8,0.6l11.2,1.6c0.5,0.1,0.9,0.6,0.9,1.1c0,0.2-0.1,0.5-0.3,0.6
		l-8.1,7.9c-0.2,0.2-0.4,0.6-0.3,0.9l1.9,11.1c0.1,0.5-0.2,1.1-0.8,1.2c-0.2,0.1-0.5,0-0.7-0.1l-10-5.2c-0.3-0.2-0.7-0.2-0.9,0
		l-10,5.2c-0.5,0.3-1.1,0.1-1.4-0.4c-0.1-0.2-0.2-0.5-0.1-0.7l1.9-11.1c0.1-0.3,0-0.7-0.3-0.9l-8.1-7.9c-0.4-0.4-0.4-1-0.1-1.4
		c0.2-0.2,0.4-0.3,0.6-0.3l11.2-1.6c0.3,0,0.6-0.3,0.8-0.6l5-10.1c0.2-0.5,0.8-0.7,1.3-0.5C129.3,231.1,129.5,231.3,129.6,231.5z"/>
	<line class="st2" x1="173.2" y1="258" x2="173.2" y2="313.1"/>
	<path class="st3" d="M190.3,315.4c0.2-0.5,0-1.1-0.5-1.3c-0.2-0.1-0.5-0.1-0.7-0.1c-0.1-0.8-0.9-1.4-1.7-1.2
		c-0.6,0.1-1.1,0.6-1.2,1.2c-0.4-0.3-0.9-0.3-1.2,0c-0.3-0.6-1-1-1.6-0.7c-0.2,0.1-0.3,0.2-0.4,0.3h-0.1c0.3-0.6,0.1-1.4-0.5-1.7
		s-1.4-0.1-1.7,0.5c-0.1,0.2-0.2,0.5-0.1,0.8c-0.4-0.3-1-0.4-1.5-0.2c-0.1-0.5-0.5-0.9-1-0.8c-0.1,0-0.2,0-0.3,0.1
		c-0.3-0.9-1.3-1.5-2.2-1.2c-0.7,0.2-1.2,0.9-1.2,1.7c0,0,0,0.1,0,0.1l0,0c0-0.6-0.5-1-1.1-0.9c-0.6,0-1,0.5-0.9,1.1l0,0
		c-0.1-0.7-0.8-1.2-1.5-1.1c-0.2,0-0.3,0.1-0.5,0.2c0.3-0.9-0.2-1.9-1.2-2.2c-0.9-0.3-1.9,0.2-2.2,1.2l0,0c-0.5-0.5-1.4-0.6-2,0
		c-0.4,0.4-0.5,0.9-0.4,1.4c-0.6-0.2-1.2,0-1.6,0.5c-0.3-0.8-1.1-1.2-1.9-1s-1.2,1.1-1,1.9c0,0.1,0.1,0.2,0.2,0.4
		c-0.1-0.1-0.2-0.1-0.3-0.1c-0.2-0.9-1.1-1.5-2-1.3c-0.9,0.2-1.5,1.1-1.3,2c0,0.2,0.1,0.5,0.3,0.7c-0.9,0.1-1.5,0.4-1.5,0.8
		s0.8,0.8,1.8,0.8h32.6c1,0,1.8-0.4,1.8-0.8S191,315.5,190.3,315.4z"/>
	<ellipse class="st3" cx="152.6" cy="316" rx="0.9" ry="0.4"/>
	<ellipse class="st3" cx="194.9" cy="316.3" rx="1" ry="0.3"/>
	<path class="st4" d="M173.8,231.5l5,10.1c0.1,0.3,0.4,0.5,0.8,0.6l11.2,1.6c0.5,0.1,0.9,0.6,0.9,1.1c0,0.2-0.1,0.5-0.3,0.6
		l-8.1,7.9c-0.2,0.2-0.4,0.6-0.3,0.9l1.9,11.1c0.1,0.5-0.2,1.1-0.8,1.2c-0.2,0.1-0.5,0-0.7-0.1l-10-5.2c-0.3-0.2-0.7-0.2-0.9,0
		l-10,5.2c-0.5,0.3-1.1,0.1-1.4-0.4c-0.1-0.2-0.2-0.5-0.1-0.7l1.9-11.1c0.1-0.3,0-0.7-0.3-0.9l-8.1-7.9c-0.4-0.4-0.4-1-0.1-1.4
		c0.2-0.2,0.4-0.3,0.6-0.3l11.2-1.6c0.3,0,0.6-0.3,0.8-0.6l5-10.1c0.2-0.5,0.8-0.7,1.3-0.5C173.5,231.1,173.7,231.3,173.8,231.5z"/>
	<line class="st2" x1="217.4" y1="258" x2="217.4" y2="313.1"/>
	<path class="st3" d="M234.5,315.4c0.2-0.5,0-1.1-0.5-1.3c-0.2-0.1-0.5-0.1-0.7-0.1c-0.1-0.8-0.9-1.4-1.7-1.2
		c-0.6,0.1-1.1,0.6-1.2,1.2c-0.4-0.3-0.9-0.3-1.2,0c-0.3-0.6-1-1-1.6-0.7c-0.2,0.1-0.3,0.2-0.4,0.3H227c0.3-0.6,0.1-1.4-0.5-1.7
		s-1.4-0.1-1.7,0.5c-0.1,0.2-0.2,0.5-0.1,0.8c-0.4-0.3-1-0.4-1.5-0.2c-0.1-0.5-0.5-0.9-1-0.8c-0.1,0-0.2,0-0.3,0.1
		c-0.3-0.9-1.3-1.5-2.2-1.2c-0.7,0.2-1.2,0.9-1.2,1.7c0,0,0,0.1,0,0.1l0,0c0-0.6-0.5-1-1.1-0.9c-0.6,0-1,0.5-0.9,1.1l0,0
		c-0.1-0.7-0.8-1.2-1.5-1.1c-0.2,0-0.3,0.1-0.5,0.2c0.4-0.9-0.1-1.9-1-2.3c-0.9-0.4-1.9,0.1-2.3,1c0,0.1-0.1,0.2-0.1,0.3
		c-0.5-0.5-1.4-0.6-2,0c-0.4,0.4-0.5,0.9-0.4,1.4c-0.6-0.2-1.2,0-1.6,0.5c-0.3-0.8-1.1-1.2-1.9-1s-1.2,1.1-1,1.9
		c0,0.1,0.1,0.2,0.2,0.4c-0.1,0-0.2-0.1-0.3-0.1c-0.2-0.9-1.1-1.5-2-1.3c-0.9,0.2-1.5,1.1-1.3,2c0,0.2,0.1,0.5,0.3,0.7
		c-0.9,0.1-1.5,0.4-1.5,0.8s0.8,0.8,1.8,0.8H234c1,0,1.8-0.4,1.8-0.8S235.2,315.5,234.5,315.4z"/>
	<ellipse class="st3" cx="196.8" cy="316" rx="0.9" ry="0.4"/>
	<ellipse class="st3" cx="239" cy="316.3" rx="1" ry="0.3"/>
	<path class="st4" d="M218,231.5l5,10.1c0.1,0.3,0.4,0.5,0.8,0.6l11.2,1.6c0.5,0.1,0.9,0.6,0.9,1.1c0,0.2-0.1,0.5-0.3,0.6l-8.1,7.9
		c-0.2,0.2-0.4,0.6-0.3,0.9l1.9,11.1c0.1,0.5-0.2,1.1-0.8,1.2c-0.2,0.1-0.5,0-0.7-0.1l-10-5.2c-0.3-0.2-0.7-0.2-0.9,0l-10,5.2
		c-0.5,0.3-1.1,0.1-1.4-0.4c-0.1-0.2-0.2-0.5-0.1-0.7l1.9-11.1c0.1-0.3,0-0.7-0.3-0.9l-8.1-7.9c-0.4-0.4-0.4-1-0.1-1.4
		c0.2-0.2,0.4-0.3,0.6-0.3l11.2-1.6c0.3,0,0.6-0.3,0.8-0.6l5-10.1c0.2-0.5,0.8-0.8,1.3-0.6C217.7,231,217.9,231.2,218,231.5z"/>
	<line class="st2" x1="263.4" y1="258" x2="263.4" y2="313.1"/>
	<path class="st3" d="M280.5,315.4c0.2-0.5,0-1.1-0.5-1.3c-0.2-0.1-0.5-0.1-0.7-0.1c-0.1-0.8-0.9-1.4-1.7-1.2
		c-0.6,0.1-1.1,0.6-1.2,1.2c-0.4-0.3-0.9-0.3-1.2,0c-0.3-0.6-1-1-1.6-0.7c-0.2,0.1-0.3,0.2-0.4,0.3H273c0.3-0.6,0.1-1.4-0.5-1.7
		s-1.4-0.1-1.7,0.5c-0.1,0.2-0.2,0.5-0.1,0.8c-0.4-0.3-1-0.4-1.5-0.2c-0.1-0.5-0.5-0.9-1-0.8c-0.1,0-0.2,0-0.3,0.1
		c-0.3-0.9-1.3-1.5-2.2-1.2c-0.7,0.2-1.2,0.9-1.2,1.7c0,0,0,0.1,0,0.1l0,0c0-0.6-0.5-1-1.1-0.9c-0.6,0-1,0.5-0.9,1.1l0,0
		c-0.1-0.7-0.8-1.2-1.5-1.1c-0.2,0-0.3,0.1-0.5,0.2c0.3-1-0.2-2-1.2-2.3c-1-0.3-2,0.2-2.3,1.2c-0.5-0.5-1.4-0.6-2,0
		c-0.4,0.4-0.5,0.9-0.4,1.4c-0.6-0.2-1.2,0-1.6,0.5c-0.3-0.8-1.1-1.2-1.9-1s-1.2,1.1-1,1.9c0,0.1,0.1,0.2,0.2,0.4
		c-0.1,0-0.2-0.1-0.3-0.1c-0.2-0.9-1.1-1.5-2-1.3c-0.9,0.2-1.5,1.1-1.3,2c0,0.2,0.1,0.5,0.3,0.7c-0.9,0.1-1.5,0.4-1.5,0.8
		s0.8,0.8,1.8,0.8H280c1,0,1.8-0.4,1.8-0.8S281.2,315.5,280.5,315.4z"/>
	<ellipse class="st3" cx="242.7" cy="316" rx="0.9" ry="0.4"/>
	<ellipse class="st3" cx="285" cy="316.3" rx="1" ry="0.3"/>
	<path class="st4" d="M263.9,231.5l5,10.1c0.1,0.3,0.4,0.5,0.8,0.6l11.2,1.6c0.5,0.1,0.9,0.6,0.9,1.1c0,0.2-0.1,0.5-0.3,0.6
		l-8.1,7.9c-0.2,0.2-0.4,0.6-0.3,0.9l1.9,11.1c0.1,0.5-0.2,1.1-0.8,1.2c-0.2,0.1-0.5,0-0.7-0.1l-10-5.2c-0.3-0.2-0.7-0.2-1,0
		l-10,5.2c-0.5,0.3-1.1,0.1-1.4-0.4c-0.1-0.2-0.2-0.5-0.1-0.7l1.9-11.1c0.1-0.3,0-0.7-0.3-0.9l-8.1-7.9c-0.4-0.4-0.4-1-0.1-1.4
		c0.2-0.2,0.4-0.3,0.6-0.3l11.2-1.6c0.3,0,0.6-0.3,0.8-0.6l5-10.1c0.2-0.5,0.9-0.7,1.3-0.4C263.7,231.1,263.8,231.3,263.9,231.5z"/>
	<ellipse class="st1" cx="146.7" cy="350.8" rx="18" ry="4.2"/>
	<ellipse class="st1" cx="219.9" cy="375" rx="18" ry="4.2"/>
	<ellipse class="st1" cx="301.4" cy="339.6" rx="13.6" ry="3.9"/>
	<ellipse class="st1" cx="39.7" cy="339.6" rx="9.2" ry="2.6"/>
	<ellipse class="st1" cx="151.7" cy="395" rx="9.2" ry="2.6"/>
	<path class="st1" d="M337,309.5h118.8c0,0,11.5,5.8,10.9,11.1s-10.2,0.1-17.6,6.5s-18.9,12.3-28.9,5.8s-30.1-7.1-37.3-2.6
		s-31.2,6.5-39.1,2.6s1.8-7.1-3.7-10.3S319.4,313.1,337,309.5z"/>
	<path class="st5" d="M355.3,296.5c0,0,11.4,19.3,10.7,20.5s-9.5-1-12.3,3c-0.5,1.4,2.8,3.8,5.1,3.2s6.2-1.4,8.8-1.1
		s6.1-0.3,5.2-2.8s-4.3-19.5-4.4-23.7C364.2,296.3,359.8,296.6,355.3,296.5z"/>
	<path class="st5" d="M367.1,190.4c0,0,2,15.2,7.9,19.9s17.2-10.6,16.9-16.7c0,0,5.1-2.7,3.4-8.3s-8.8,1.2-8.6,3.9
		c0,0-2.9-4.7-3.4-8.6C383.2,180.5,379.3,188.1,367.1,190.4z"/>
	<path class="st6" d="M391.8,169.3c0,0-5.4-4.9-15.5,4.7c0,0-20.6-4.2-22.1,10.1c0,6.1,10.2,7,12.8,6.4c0,0,7.6,1.5,16.2-9.8
		c0,0,1,5.6,3.4,8.6c0,0,4.4-10.3,8.6-3.9c1.3,3.2-0.3,6.9-3.4,8.3c-0.3,2.2-1,4.4-2,6.5c-1.4,2.3-7.8,12.9-14.9,10.2
		c0,0,2.5,17.7,19.4,2c0,0,19.5-4.3,16.9-15.2c-1.7-7.2-4.9-4.7-7.9-13S395.2,170.5,391.8,169.3z"/>
	<path class="st5" d="M386.6,204.7c0,0,5.1,3.6,1.2,16.2c0,0-0.1,5.9,5.5,2.4c0,0,3.4-1.7,3.8-7.6s2.3-8,2.3-8s-8.6-2.2-8.6-10.8
		L386.6,204.7z"/>
	<path class="st7" d="M368.5,292.7c-0.6-1.6-0.6-3.3,0-4.9c1-2.7,4.9-2.7,14.4-1.7s45.3,0.5,47.2-13.7s-7.1-20.9-11.8-27.7
		S404,206.8,404,206.8c-1.5,0.2-3.1,0.5-4.5,1c0,0-1.7,2-2.3,8s-3.8,7.6-3.8,7.6s-5.3,3.3-5.5-2.4c0,0-5.4,8.8,1.6,15.2
		c2,0.8,3.8,1.7,5.6,2.8c3.8,2.2,12.4,8.8,9.1,16.6c-3.3,7.7-35.8,6.4-46.5,13.4s-4.4,23.7-4.4,23.7S355.8,294.5,368.5,292.7z"/>
	<path class="st8" d="M421.4,319.4c0,0-25,5-27.4-5.5s-3.1-27.5-3.1-27.5s14.1,0,25.5-3.1c0,0-8.6,22.3-6.9,23.8s10.9-1.5,10.9-1.5
		S422.7,309.5,421.4,319.4z"/>
	<path class="st9" d="M353.2,292.1c0,0,1.3,2.1,15.3,0c0,0,0.9-0.5,1.2-0.2s0.9,3.8,0.2,4.1c-5.8,1.4-11.7,1.5-17.5,0.4
		C352.5,296.4,351.1,291.4,353.2,292.1z"/>
	<path class="st9" d="M420.3,305.6c0,0,2.4,3.9,1.1,13.8c0,0-0.6,1.4,0.9,1.2c1.6-0.4,3.1-1,4.6-1.7c0,0,1.5-9.4-1.8-14.8
		C425,304.1,419.5,303.6,420.3,305.6z"/>
	<path class="st5" d="M425.5,305c0,0,10.4-0.6,17.2,0.8s6.8,3,6.2,4.5c-1,2.5-1.1,3.5-2.9,8.6s-2.6,4.2-6.2,4.5s-6.5,0.5-5.8-1.2
		s1.5-2.8,6.8-3.4l0.4-3c0.3-2.5-0.8-2.8-0.8-2.8l-13.4,5.8C426.9,318.9,428,311.4,425.5,305z"/>
	<path class="st4" d="M404,206.8c0,0-5.4,0.2-4.5,9.8s9.8,20.2,11.4,24.2s3.3,9.2-3.1,10.9s-20.2,5.6-21.2,6.3c0,0,2.8,3.4,2.3,5.8
		c0,0,9.8-0.4,13.5,0s22.1-2.5,22.2-11.1S413.4,204.2,404,206.8z"/>
	<path class="st4" d="M387.8,220.9c0,0-11,8.3-22.3,18.4c-5.6,3.2-18.8,4.9-18.8,4.9c0.1,2,0.5,4,1.2,5.9c0,0,13.6,0.6,24.2-4.5
		c6-2.8,11.8-6,17.3-9.6C389.4,236.1,382.9,231.7,387.8,220.9z"/>
	<path class="st5" d="M346.7,244.2c-2.5,0.3-5,0.3-7.5,0c-3-0.6-5.6-1.1-6.4-0.4s-0.5,3.5,0.5,4.3s0.6,1.8,1.6,2.6s1.5,2.2,4.6,1.8
		c2.9-0.5,5.7-1.3,8.4-2.4C347.9,250.1,346.3,246.6,346.7,244.2z"/>
	<path class="st5" d="M386.6,258c-3.6,0.8-7.1,1.8-10.6,3.1c-4.5,1.8-6,4.3-6.2,5s2.1,0.6,3.2,0.4s0.5,0.4,1.6,0.2s3.6-0.9,5.6-1.4
		s3.4-0.1,5.6-1s3-0.5,3-0.5S389.7,261.2,386.6,258z"/>
	<path class="st10" d="M337.8,262.8c0,0,5.9-4.2,6.4-7.6s-4-11.2-10-13c-3.6-1-7.4,0.3-9.7,3.2c0,0,1.6,2.4,1.6,2.2s4.2-5.3,8.2-2.8
		c4.9,3.1,6.9,6.9,7,8.5c0.1,2.6-2.8,5.9-5.3,7L337.8,262.8z"/>
	<path class="st5" d="M342,244.5c0,0-2.1-1.2-3.2-1.1c-1.6,0.1-2.4,4.7-1.1,5.6c0.4,0.2,1.3-0.4,1.7-3.1c0,0-0.1,3.4,4.4,3.4
		C343.4,247.6,342.8,246,342,244.5z"/>
	<path class="st5" d="M332.8,243.8c0.8-0.6,1.9-0.6,2.7,0c1.5,0.9,5.5,5.4,6.1,6.9s-2.1,1.9-2.1,1.9c-1.8,0.4-3.6-0.3-4.6-1.8
		c-0.2-0.7-0.5-1.4-1-2c-0.2-0.2-0.3-0.4-0.5-0.6C333.4,248.1,331.3,245.6,332.8,243.8z"/>
	<path class="st10" d="M323.4,243.4l17.2,23.2c0,0-9.8,10.4-23.3,11.1l-9.5-25.6c-0.3-0.8,0-1.6,0.7-2.1l12-7.3
		C321.5,242.2,322.7,242.5,323.4,243.4z"/>
	<polygon class="st10" points="294.4,270.2 317.4,277.7 313.5,267.4 296.7,265.1 	"/>
	
		<ellipse transform="matrix(0.4003 -0.9164 0.9164 0.4003 -68.6582 428.3661)" class="st11" cx="293" cy="266.6" rx="8.9" ry="3.3"/>
	
		<ellipse transform="matrix(0.4003 -0.9164 0.9164 0.4003 -68.9083 426.9685)" class="st10" cx="291.8" cy="266.1" rx="8.9" ry="3.3"/>
	<ellipse transform="matrix(0.866 -0.5 0.5 0.866 -81.5651 190.8847)" class="st11" cx="315.4" cy="247.6" rx="7.2" ry="0.7"/>
	
		<ellipse transform="matrix(0.4002 -0.9164 0.9164 0.4002 -65.0251 424.5334)" class="st11" cx="291.8" cy="261.9" rx="0.6" ry="0.2"/>
	
		<ellipse transform="matrix(0.4003 -0.9164 0.9164 0.4003 -63.1813 426.5653)" class="st11" cx="294.3" cy="261.6" rx="0.6" ry="0.2"/>
	
		<ellipse transform="matrix(0.4003 -0.9164 0.9164 0.4003 -66.2776 428.0995)" class="st11" cx="294" cy="264.7" rx="0.6" ry="0.2"/>
	
		<ellipse transform="matrix(0.4003 -0.9164 0.9164 0.4003 -66.3344 426.2947)" class="st11" cx="292.6" cy="263.8" rx="0.6" ry="0.2"/>
	
		<ellipse transform="matrix(0.4003 -0.9164 0.9164 0.4003 -70.9188 426.7005)" class="st11" cx="290.6" cy="267.5" rx="0.6" ry="0.2"/>
	
		<ellipse transform="matrix(0.4002 -0.9164 0.9164 0.4002 -74.4206 427.3707)" class="st11" cx="289.3" cy="270.5" rx="0.6" ry="0.2"/>
	
		<ellipse transform="matrix(0.4003 -0.9164 0.9164 0.4003 -69.4313 428.1548)" class="st11" cx="292.4" cy="267.1" rx="0.6" ry="0.2"/>
	
		<ellipse transform="matrix(0.4003 -0.9164 0.9164 0.4003 -72.2353 428.6215)" class="st11" cx="291.4" cy="269.5" rx="0.6" ry="0.2"/>
	
		<ellipse transform="matrix(0.4002 -0.9164 0.9164 0.4002 -69.1631 425.2447)" class="st11" cx="290.3" cy="265.5" rx="0.6" ry="0.2"/>
	
		<ellipse transform="matrix(0.4003 -0.9164 0.9164 0.4003 -72.8751 425.7825)" class="st11" cx="288.9" cy="268.6" rx="0.6" ry="0.2"/>
	<path class="st12" d="M291.4,269.5c-1.8-0.4-3.7-0.4-5.5-0.1c-1.8,0.3-3.6,0.9-5.1,2c-1.5,1.1-2.7,2.5-3.5,4.1
		c-0.8,1.6-1.4,3.4-1.6,5.2c-0.6,3.6-0.8,7.3-0.7,11c0.1,3.7,0.5,7.4,1.1,11c-0.8-3.6-1.3-7.3-1.5-11c-0.2-3.7,0-7.4,0.6-11.1
		c0.3-1.9,0.9-3.7,1.7-5.3c0.8-1.7,2.1-3.1,3.7-4.2C283.8,269.1,287.7,268.5,291.4,269.5z"/>
	<path class="st12" d="M290.4,267.5c-1.8-0.4-3.7-0.4-5.5-0.1c-1.8,0.3-3.6,0.9-5.1,2c-1.5,1.1-2.7,2.5-3.5,4.1
		c-0.8,1.6-1.4,3.4-1.6,5.2c-0.6,3.6-0.8,7.3-0.7,11c0.1,3.7,0.5,7.4,1.1,11c-0.8-3.6-1.3-7.3-1.5-11c-0.2-3.7,0-7.4,0.6-11.1
		c0.3-1.9,0.9-3.7,1.7-5.3c0.8-1.7,2.1-3.1,3.7-4.2C282.8,267,286.7,266.5,290.4,267.5z"/>
	<path class="st12" d="M292.4,264.2c-1.9-0.4-3.8-0.4-5.7-0.2c-1.9,0.2-3.7,0.8-5.4,1.7c-1.6,1-3,2.4-3.9,4
		c-0.9,1.7-1.5,3.5-1.8,5.4c-0.6,3.8-0.9,7.6-0.8,11.4c0.1,3.8,0.4,7.7,0.9,11.5c-0.7-3.8-1.2-7.6-1.3-11.5
		c-0.2-3.9,0.1-7.7,0.7-11.5c0.3-1.9,0.9-3.8,1.9-5.5c1-1.7,2.4-3.1,4.1-4.1C284.6,263.6,288.6,263.2,292.4,264.2z"/>
	<path class="st12" d="M291.4,261.9c-1.9-0.4-3.9-0.6-5.8-0.4c-1.9,0.1-3.8,0.6-5.6,1.5c-0.8,0.5-1.6,1-2.4,1.7
		c-0.7,0.7-1.3,1.4-1.8,2.2c-1,1.7-1.6,3.5-1.9,5.4c-0.6,3.9-0.9,7.8-1,11.7c0,3.9,0.1,7.8,0.5,11.7c-0.5-3.9-0.8-7.8-0.9-11.7
		c-0.1-3.9,0.2-7.9,0.8-11.8c0.3-2,1-3.9,2-5.6c1.1-1.7,2.6-3.1,4.4-4C283.4,260.9,287.6,261,291.4,261.9z"/>
	<ellipse class="st1" cx="455.5" cy="339.6" rx="13.6" ry="3.9"/>
	<ellipse class="st1" cx="427.2" cy="379.2" rx="13.6" ry="3.9"/>
	<ellipse class="st1" cx="397.7" cy="335.7" rx="9.2" ry="2.6"/>
	<ellipse class="st1" cx="367.1" cy="358.9" rx="9.2" ry="2.6"/>
	<path class="st13" d="M148.1,193.7H223c0,0,10-2,0-9.5s-3-11-12-17s-16-2-21.5,3.5s-14.5-5-22.5,0.5s-3.5,7.5-10.5,10.5
		c-5.4,2.3-12.4,2.9-12.9,7.2c-0.2,2.5,1.7,4.6,4.1,4.8C147.9,193.7,148,193.7,148.1,193.7z"/>
	<path class="st13" d="M127,139.2H52.2c0,0-10-2,0-9.5s3-11,12-17s16-2,21.5,3.5s14.5-5,22.5,0.5s3.5,7.5,10.5,10.5
		c5.4,2.3,12.4,2.9,12.9,7.2c0.2,2.5-1.7,4.6-4.1,4.8C127.3,139.2,127.1,139.2,127,139.2z"/>
	<path class="st13" d="M367.5,140.9h87.4c0.6,0,1.1-0.1,1.6-0.2c2.5-0.8,8.9-3.8-0.9-10.9c-9.4-6.9-5.1-11.2-14.9-15.7
		c-11.6-5.3-16.2,4.7-25.1,6.7c-11,2.4-17.3-17.9-26.7-11.4s-3.3,13.9-11.6,17.5c-6.4,2.7-14.6,3.4-15.2,8.5c-0.2,2.9,2,5.4,4.9,5.6
		C367.2,140.9,367.3,140.9,367.5,140.9z"/>
</g>
</svg>
