<svg id="Layer_1" data-name="Layer 1" xmlns="http://www.w3.org/2000/svg" viewBox="0 0 1178.6 1178.61"><title>linkiomatic-icon</title><circle cx="589.3" cy="589.3" r="398.81" style="fill:#405f79"/><path d="M2582.35,1986.78a587.47,587.47,0,1,0,126.29,187.31A587.35,587.35,0,0,0,2582.35,1986.78Zm-416.7,979.51c-310.34,0-562.81-252.48-562.81-562.81s252.47-562.81,562.81-562.81,562.81,252.48,562.81,562.81S2476,2966.3,2165.65,2966.3Z" transform="translate(-1576.35 -1814.18)" style="fill:#405f79"/><path d="M2619.52,2492.07s-95,41.39-138.17-38c-17.25,31.7-42.75,44.14-67.16,47.66-24.41-3.52-49.91-16-67.16-47.66-19.57,36-49.74,47.14-76.9,48.63l-.43,0-2,.08-1.47,0-1.25,0h-2.84l-1.25,0-1.47,0-2-.08-.43,0c-27.16-1.48-57.34-12.67-76.91-48.62-19.61,36-49.87,47.19-77.09,48.63-27.21-1.44-57.48-12.6-77.09-48.63-19.57,36-49.74,47.14-76.9,48.63l-.43,0-2,.08-1.47,0-1.25,0h-2.84l-1.25,0-1.47,0-2-.08-.43,0c-27.16-1.48-57.34-12.67-76.9-48.62-43.21,79.41-138.17,38-138.17,38-42.39,80.9,138.17,228.6,138.17,228.6s10,70.74,49.44,24.53c39.47,46.21,88,38.93,88,38.93s34,58.18,71.64,15.57c37.67,42.6,105.9,51.39,105.9,51.39s40.73,14.28,80.2-31.92c39.47,46.21,94.22-45.16,94.22-45.16s33.38,18.37,67.74-18.69c34.36,37.05,65.41-34.65,65.41-34.65S2661.92,2573,2619.52,2492.07Z" transform="translate(-1576.35 -1814.18)" style="fill:#70dfea"/><path d="M2165.65,1840.67c-310.34,0-562.81,252.48-562.81,562.81s252.47,562.81,562.81,562.81,562.81-252.48,562.81-562.81S2476,1840.67,2165.65,1840.67Zm0,961.62c-220.26,0-398.81-178.55-398.81-398.81s178.55-398.81,398.81-398.81,398.81,178.55,398.81,398.81S2385.91,2802.29,2165.65,2802.29Z" transform="translate(-1576.35 -1814.18)" style="fill:#809fa3"/><path d="M2549.84,2300.24a93.73,93.73,0,0,0-93.73,93.72V2399a93.72,93.72,0,0,0,93.73,93.73h183.71V2300.24Z" transform="translate(-1576.35 -1814.18)" style="fill:#809fa3"/><path d="M2733.55,2300.24v192.51H2549.84a93.72,93.72,0,0,1-93.73-93.73V2394a93.73,93.73,0,0,1,93.73-93.72h183.71m9.27-9.27h-193a103.11,103.11,0,0,0-103,103V2399a103.11,103.11,0,0,0,103,103h193V2291Z" transform="translate(-1576.35 -1814.18)" style="fill:#405f79"/><circle cx="414.63" cy="545.81" r="20.2" style="fill:#70dfea"/><circle cx="696.94" cy="575.34" r="21.76" style="fill:#70dfea"/><circle cx="645.14" cy="458.27" r="12.43" style="fill:#70dfea"/><circle cx="457.58" cy="432.42" r="15.99" style="fill:#70dfea"/><circle cx="778.26" cy="445.32" r="25.38" style="fill:#70dfea"/><circle cx="545.68" cy="600.2" r="15.54" style="fill:#70dfea"/><circle cx="574.69" cy="358.81" r="15.54" style="fill:#70dfea"/><path d="M1755.77,2332.53l-98-15.26a683.9,683.9,0,0,0-9.22,83.67l-28.57.26c2.33-49.38,10.21-97.47,22.58-145.31l123,33.05C1761.88,2303.4,1758.6,2317.86,1755.77,2332.53Z" transform="translate(-1576.35 -1814.18)" style="fill:#fff"/><path d="M1750,2456.91l-127.84,18.69c-1.71-16.86-2.33-33.77-2.58-50.7l128.45-6.75Q1748.13,2437.56,1750,2456.91Z" transform="translate(-1576.35 -1814.18)" style="fill:#fff"/><path d="M1760.44,2516.22a550.53,550.53,0,0,0-51,91.44l71.27-33.08c4.51,9.79,9.08,19.49,14.33,28.92l-114,63.86q-9.58-17.4-17.73-35.55A587.12,587.12,0,0,1,1711,2533.2l-74.58,22.5c-3.64-14.55-6.77-29.08-9.45-43.84l126.7-27.23C1755.68,2495.24,1757.71,2505.78,1760.44,2516.22Z" transform="translate(-1576.35 -1814.18)" style="fill:#fff"/><path d="M1767.85,2782a619,619,0,0,1,8.94-64.51c-10.88-1.3-16.36-2.12-27.35-4.11l-25.33,19.33c-9-11.89-17.59-24-25.82-36.42l109.92-70.67c6.35,9.53,12.84,18.7,19.74,27.84l-43.55,33.24a495.84,495.84,0,0,0,75.81,3.27q13.85,13.85,29,26.32a508.47,508.47,0,0,1-74.84,4,563.84,563.84,0,0,0-7.13,97.1C1793.61,2806.06,1780.55,2794.34,1767.85,2782Z" transform="translate(-1576.35 -1814.18)" style="fill:#fff"/><path d="M1930.1,2746.08l-72.36,107.78c-12.35-8.1-24.39-16.5-36.26-25.31l80.9-101.82C1911.5,2733.45,1920.65,2739.84,1930.1,2746.08Z" transform="translate(-1576.35 -1814.18)" style="fill:#fff"/><path d="M2060.64,2869.15c-10.09,46.26-65.12,52.27-102.26,37.67s-72.75-56.51-47.87-96.77c20.16-32.61,64-38.14,97.3-25.38C2040.79,2797.32,2068.69,2832.24,2060.64,2869.15Zm-114.85-40c-10.53,20.63,4,43.36,23.82,51.13,20,7.84,45.36.79,52.12-21.27,6-19.62-5.71-40.25-24.35-47.53S1955.19,2810.74,1945.78,2829.16Z" transform="translate(-1576.35 -1814.18)" style="fill:#fff"/><path d="M2127.73,2814.79a680.35,680.35,0,0,0,33.82,77.83,653.16,653.16,0,0,0,34.9-76.1q18.45-1,36.77-3.56l21,128.38q-19.38,2.73-38.92,4.09-3.87-41-7.71-81.91a709.73,709.73,0,0,1-32.16,70.33c-9.44,0-18.92-.22-28.34-.72a739.49,739.49,0,0,1-31.16-71.91l-8.6,81.52q-19.61-2.32-39-5.94l22.77-127.31Q2109.28,2812.89,2127.73,2814.79Z" transform="translate(-1576.35 -1814.18)" style="fill:#fff"/><path d="M2384.7,2880.36a578.86,578.86,0,0,1-66.23,24c-1.71,10.07-2.66,15.11-4.77,25.19-14.75,3.63-29.48,6.78-44.43,9.49a655.14,655.14,0,0,0,29.5-140.85c11.11-3.69,21.89-7.63,32.76-12a651.78,651.78,0,0,0,115.53,87.71c-13.65,8.25-27.79,15.72-42.17,22.6C2396.65,2890.18,2392.61,2886.94,2384.7,2880.36Zm-21.79-19c-12.45-11.6-24.59-23.46-36.23-35.88-.66,16.87-2.11,33.72-4.11,50.48C2336.22,2871.52,2349.59,2866.68,2362.91,2861.34Z" transform="translate(-1576.35 -1814.18)" style="fill:#fff"/><path d="M2459.91,2697.65l19.57,20c-10.28,10.55-20.84,20.56-31.93,30.26l64,79.71c-11.86,9.8-23.93,19.11-36.44,28.07l-57.32-84.9c-11.63,7.87-23.41,15.2-35.61,22.15l-13.52-24.69A417.05,417.05,0,0,0,2459.91,2697.65Z" transform="translate(-1576.35 -1814.18)" style="fill:#fff"/><path d="M2493.21,2657.37l101.12,80.45c-9.51,13.28-19.77,26-30.49,38.35l-93.93-89.48Q2482.24,2672.59,2493.21,2657.37Z" transform="translate(-1576.35 -1814.18)" style="fill:#fff"/><path d="M2567.66,2578.94c-8.2,19.06-8.61,47.64,11.75,59.69,23,13.62,46.16-10,54-29.86,6.36-16.13,8-35.78,3.44-52.85Q2652,2544,2666,2530.83c9,29.84,5.31,65.5-6.71,93-15.47,35.41-59.28,87.47-103.29,55.4-34.58-25.2-28.71-77-14.35-111.35,9.25-22.15,24.16-43.45,42.84-58.69q7.59,16.65,14.11,33.77A81.3,81.3,0,0,0,2567.66,2578.94Z" transform="translate(-1576.35 -1814.18)" style="fill:#fff"/></svg>