<svg xmlns="http://www.w3.org/2000/svg" xmlns:xlink="http://www.w3.org/1999/xlink" viewBox="0 0 500 500"><defs><clipPath id="clip-path"><rect width="500" height="500" style="fill:none"/></clipPath></defs><title>Artboard 1</title><g style="isolation:isolate"><g id="OBJECTS"><g style="clip-path:url(#clip-path)"><path d="M135.45,96.63c5.23-1,10.68-1.65,15.61.85,14.23,7.21,8.42,30.71,3.27,43.94-5,12.76-9.76,29.76-2.45,40.24,3.87,5.55,9.95,7,15.58,7.1,25.61.57,46.09-17.79,68.5-32.68l76.8-51c12.49-8.3,29.67-15.31,38.17,5.56,3.1,7.61,3.39,16.89,1.95,25.36-1.79,10.55-6.45,17-9.4,26.54-1.53,5-1.92,10.82-.13,15.61a14.61,14.61,0,0,0,10.08,9.16c27.92,7,58.54-19.41,84.1-30.8,12.67-5.65,27.17-10.6,38.57,1.47,35.44,37.51-7.68,112.65-27.33,144.65-38.91,63.39-98.86,87.83-158.16,99.28-21.51,4.15-39.85-.24-48.47-29.24-4-13.44-2.71-35.95-10.34-47-3.13-4.53-8.47-5-13-3.67-31.15,8.84-62.06,22.37-92,36.43-25.36,11.89-51.5,28.6-79.14,25.71A35.36,35.36,0,0,1,20.23,366.5c-5.49-9.58-7.09-22.07-7.39-34.06-1.36-54.67-2.77-113.59,20.64-161.57C55.16,126.44,97.4,104.45,134.7,96.79Z" style="fill:#e9eefa;mix-blend-mode:multiply"/></g><path d="M181.68,411.44c-14.11,0-26.53,1.88-33.79,4.73a11.41,11.41,0,0,1-8.32.16c-4.65-1.74-11.4-2.84-18.93-2.84-14,0-25.43,3.82-25.43,8.52s11.39,8.52,25.43,8.52c7.53,0,14.28-1.1,18.93-2.84a11.42,11.42,0,0,1,8.32.16c7.26,2.85,19.69,4.73,33.79,4.73,22.4,0,40.55-4.73,40.55-10.57S204.08,411.44,181.68,411.44Z" style="fill:#cad6ef;mix-blend-mode:multiply"/><path d="M328.5,428.72s34.22,8.34,46.72-2.15-49.16-16.65-82.58-7C274.35,424.87,290.16,439.48,328.5,428.72Z" style="fill:#cad6ef;mix-blend-mode:multiply"/><path d="M269,251.52h0a15.11,15.11,0,0,0-3.27-5.65l-.19-.21c-1.94-2-7.92-6.84-10.58-5.28-2.5,1.46-2.52,3.26.61,5.09l3.13,1.83s-7.16.55-12.76-3.41-7.86-2.19-8.19-.6,2.11,3.1,2.11,3.1-4.34-1.3-5.55,1.65,3.86,5,3.86,5-3,.39-3,2.81S240,259.1,240,259.1s-4,1.65-.15,4.42c3.31,2.38,8.08,3.2,12,3.57a20.8,20.8,0,0,0,9-1.26h0c6.53-1.33,18.64.32,18.64.32l1.49-9A33.79,33.79,0,0,1,269,251.52Z" style="fill:#fcb096"/><path d="M240.15,246.38a25,25,0,0,1,4.73,1.42c1.51.6,3,1.24,4.48,2a10.2,10.2,0,0,1-4.94-.81A13.66,13.66,0,0,1,240.15,246.38Z" style="fill:#f7967c"/><path d="M238.19,253.07a19.72,19.72,0,0,1,4.79.52,27.87,27.87,0,0,1,4.59,1.4,11.82,11.82,0,0,1-4.86-.18A14.54,14.54,0,0,1,238.19,253.07Z" style="fill:#f7967c"/><path d="M240.24,259.1a15.64,15.64,0,0,1,3.74.37,31.11,31.11,0,0,1,3.6,1,6.31,6.31,0,0,1-3.84.28A7.85,7.85,0,0,1,240.24,259.1Z" style="fill:#f7967c"/><path d="M248.48,251.47a10.42,10.42,0,0,0-1.09,3.1,8.92,8.92,0,0,0,0,3.32,6.78,6.78,0,0,0,1.35,3c0-1.11-.12-2.1,0-3.1a19.72,19.72,0,0,1,.32-2.92,53.83,53.83,0,0,1,1.5-5.91A7.89,7.89,0,0,0,248.48,251.47Z" style="fill:#f7967c"/><path d="M263.81,257.36a16.38,16.38,0,0,1-4.1-3.12,11.79,11.79,0,0,1-2.47-3.91l-.38-1-1,.51a6.38,6.38,0,0,0-2.67,2.58,7.57,7.57,0,0,0-.95,3.09,10.44,10.44,0,0,0,.2,3.08,13,13,0,0,0,1,2.89c0-1,0-2,0-3a14.86,14.86,0,0,1,.39-2.82,8.23,8.23,0,0,1,1-2.56,6.09,6.09,0,0,1,1-1.21,10.25,10.25,0,0,0,2.72,3.11A11.63,11.63,0,0,0,263.81,257.36Z" style="fill:#f7967c"/><path d="M280.14,257a33.79,33.79,0,0,1-10-4.69c-.95,2.91-2.84,8.31-4,9.23a3.58,3.58,0,0,1-3.68.12,32.88,32.88,0,0,1-2.89,1.67c-1.74.9-15.12,2.72-20.94-1a5.21,5.21,0,0,0,1.25,1.21c3.31,2.38,8.08,3.2,12,3.57a20.8,20.8,0,0,0,9-1.26h0c5.88-1.19,16.26,0,18.27.27A37,37,0,0,0,280.14,257Z" style="fill:#fcb096;opacity:0.5;mix-blend-mode:multiply"/><path d="M336.64,223.7a9.9,9.9,0,0,0-8.88-3.13h0a6.74,6.74,0,0,0-4.14,2.18,14.61,14.61,0,0,0-3,6.88l-.3,1.5c-.14.58-.3,1.17-.48,1.77a33.17,33.17,0,0,1-1.29,3.57,31.73,31.73,0,0,1-3.61,6.47,25.77,25.77,0,0,1-10.84,8.75,32.26,32.26,0,0,1-7.08,2,43.61,43.61,0,0,1-7.91.43,51.61,51.61,0,0,1-14.71-2.3l-2.3-.65-5.22,17.27,2.3.71a69.37,69.37,0,0,0,19.07,3.51,62.88,62.88,0,0,0,9.26-.13q1.1-.1,2.18-.24a51.07,51.07,0,0,0,11.56-3,45.25,45.25,0,0,0,19.3-14.73,51.3,51.3,0,0,0,6.07-10.24,46.76,46.76,0,0,0,3.14-8.86A13.51,13.51,0,0,0,336.64,223.7Z" style="fill:#86442c"/><path d="M330.55,254.58a51.29,51.29,0,0,0,6.07-10.24,46.77,46.77,0,0,0,3.14-8.86,13.51,13.51,0,0,0-3.11-11.78,9.9,9.9,0,0,0-8.88-3.13h0a6.74,6.74,0,0,0-4.14,2.18,14.6,14.6,0,0,0-3,6.88l-.3,1.49c-.14.58-.3,1.17-.48,1.77a33.15,33.15,0,0,1-1.29,3.57,31.72,31.72,0,0,1-3.61,6.47,27.19,27.19,0,0,1-2.35,2.83c-2,7.95-4.87,17.56-7.56,19.18-4.43,2.66-26.53,3.29-37.19.29l-1,3.16,2.3.71a69.38,69.38,0,0,0,19.07,3.51,62.92,62.92,0,0,0,9.26-.13q1.1-.1,2.18-.24a51.07,51.07,0,0,0,11.56-3A45.25,45.25,0,0,0,330.55,254.58Z" style="fill:#86442c;opacity:0.5;mix-blend-mode:multiply"/><path d="M358.68,404.78a192,192,0,0,1,6.9,18.4,88.31,88.31,0,0,1-28.93,1.7s2.42-8.23,7.51-8.48a41.71,41.71,0,0,1,10.17,1l-3.21-12.59Z" style="fill:#231f20"/><path d="M325.31,404.78a159.48,159.48,0,0,1,1.88,18.4,94.18,94.18,0,0,1-29.39,1.7s4.66-8.23,9.81-8.48a38.11,38.11,0,0,1,9.91,1l.22-12.59Z" style="fill:#231f20"/><path d="M353.2,311.82s.58,12.89-11.16,27.42c0,0-15.58,43.68-12,69.76,0,0-9.82,1.45-15-.21s-12.9-59,2.67-101.52c0,0,4.58-9,20.07-7S353.2,311.82,353.2,311.82Z" style="fill:#002035"/><path d="M364.75,309s3.55,12.72-4.58,28.61c0,0-5.13,45.3,4.36,70.73,0,0-9.27,2.68-14.77,1.7s-26.28-56.89-20.88-101c0,0,2.41-9.48,18-9.48S364.75,309,364.75,309Z" style="fill:#002a4b"/><path d="M347.68,333.83a73.91,73.91,0,0,0,16-4.9,42.57,42.57,0,0,0,1.61-17.16c-.68-2-1.38-4-2-5.79-2-2.78-6.55-6.49-16.32-6.49-15.61,0-18,9.48-18,9.48-5.4,44.15,15.39,100.06,20.88,101-9.07-19.08-12.12-46.2-13.15-62.12A13.43,13.43,0,0,1,347.68,333.83Z" style="fill:#002a4b;opacity:0.5;mix-blend-mode:multiply"/><path d="M353.2,311.82s0-9.56-15.51-11.54-20.07,7-20.07,7a137,137,0,0,0-5.54,20l10.24,5.82s5.38,29.54,9.54,44.45A278.28,278.28,0,0,1,342,339.24C353.77,324.72,353.2,311.82,353.2,311.82Z" style="fill:#002035;opacity:0.5;mix-blend-mode:multiply"/><path d="M369.06,322.17s4.47-46,15.85-76.73c2.41-9.86-1.47-17.37-7.92-19s-18.4-9.15-44.4-4.6c0,0-25.67,16.26-26.42,96.62C306.18,318.44,335.84,336.82,369.06,322.17Z" style="fill:#7a3b27"/><path d="M385.16,244.24l-10.46-3.82.56,16.35s-13.86,61.57-30.55,65.61c-16.45,4-24.94,1.9-25.18,1.84,11.77,3.76,30,6.55,49.53-2.05,0,0,4.47-46,15.85-76.73C385,245,385.08,244.64,385.16,244.24Z" style="fill:#7a3b27;opacity:0.5;mix-blend-mode:multiply"/><path d="M368.37,225.08l-2.6,20.62-9.83,3.82,5,5.9-24.53,23.92L328,251.91l7-4.94-6.6-6.92L337,225.9S357.75,221.57,368.37,225.08Z" style="fill:#662a1a"/><path d="M336.11,221.4l6.51,32.46s16.84-19.58,27.05-30.12C362.79,221.36,352.39,218.85,336.11,221.4Z" style="fill:#e4e5e6"/><path d="M355.59,229,352,243.13l-9.36,10.72-2.68-13.39,7-13.18S353.38,226.84,355.59,229Z" style="fill:#1c75bb"/><path d="M352.66,218.37l-8,3.83s1.17,6.52,5.86,7.48,9.48-3.59,9.48-3.59Z" style="fill:#1c75bb"/><path d="M351.49,221.12s-15.2,11.75-15.79,11.75a20.67,20.67,0,0,0-4.35-8.63s2-8.15,7.48-8.33S351.49,221.12,351.49,221.12Z" style="fill:#fff"/><path d="M337.45,251.52s.84,39.81-14,57.15c0,0,24.46-1,37.37,6.15,0,0,15.23-44,14.39-56C375.22,258.82,345.08,252.38,337.45,251.52Z" style="fill:#fff"/><path d="M347.43,258.1a.55.55,0,0,0-.54-.61c-1.29-.14-2.49,1.71-2.67,3.3-.13,1.21.14,2.41,1.26,2.53a2,2,0,0,0,1.42-.44c.3-.39.7.35.44.56a2.76,2.76,0,0,1-2,.6c-1.4-.15-2.1-1.46-1.89-3.34s1.71-4.13,3.66-3.92a1.19,1.19,0,0,1,1.1,1.43,2.79,2.79,0,0,1-2.84,2,.42.42,0,0,1-.38-.52c0-.14.07-.31.14-.3s.08.11.36.14A2,2,0,0,0,347.43,258.1Z" style="fill:#414042"/><path d="M352.17,263.18a1.18,1.18,0,0,1-1.31.81,1.56,1.56,0,0,1-.47-.13,1.3,1.3,0,0,1-1.26.54c-1-.13-1.31-1-1.18-2a2.57,2.57,0,0,1,1.31-2.17c.25,0,.38.58.1.71a2.36,2.36,0,0,0-.66,1.5c-.11.82.16,1.27.54,1.32a.64.64,0,0,0,.63-.29,2.27,2.27,0,0,1-.47-1.83c.08-.61.42-1.1.94-1s.73.8.61,1.75a3.78,3.78,0,0,1-.28,1,.7.7,0,0,0,.19,0,.73.73,0,0,0,.8-.61C351.72,262.61,352.37,262.65,352.17,263.18Zm-2-.33a3.49,3.49,0,0,0,.09-.44c.09-.66.13-1.15-.08-1.18s-.19.13-.23.44A1.92,1.92,0,0,0,350.13,262.86Z" style="fill:#414042"/><path d="M351.92,261.2a2.26,2.26,0,0,0,0-.32c0-.1.14-.15.28-.12.32,0,.49.28.46.51l-.07.44c.35-.5.76-.87,1.24-.79.65.1.72.66.65,1.11l-.32,2c0,.09-.07.44.18.49s.66-.53.82-.95c.07-.2.18-.27.28-.26a.43.43,0,0,1,.28.45.26.26,0,0,1,0,.07c-.27.62-.79,1.43-1.63,1.3a.84.84,0,0,1-.67-1l.31-2c0-.3.07-.56-.12-.58s-1,.7-1.2,1.45l-.22,1.42c0,.18-.06.42-.34.37a.41.41,0,0,1-.4-.5Z" style="fill:#414042"/><path d="M355.64,260.46l.28-1.64c.05-.28,0-.32,0-.39s.19-.07.33-.05c.32.06.49.28.45.52l-.29,1.69c.59.1,1.27.21,1.93.3.32-.24.07.67-.18.64-.78-.12-1.35-.21-1.86-.3l-.53,3.07c-.05.31,0,.47.25.5.39.07.67-.52.83-.93.07-.2.19-.27.28-.25a.43.43,0,0,1,.27.46.31.31,0,0,1,0,.07c-.28.61-.82,1.42-1.65,1.27-.52-.09-.84-.46-.7-1.23l.54-3.08c-.43-.07-.67-.14-.67-.14-.31-.05-.37-.73-.09-.68Z" style="fill:#414042"/><path d="M357.86,264.67a6.35,6.35,0,0,1,.89-2l-.73-.14-.11,0a7.85,7.85,0,0,1-.58,1.73c-.2.38-.64-.06-.49-.37a9,9,0,0,0,.48-1.65.72.72,0,0,1-.3-.7.46.46,0,0,1,.57-.35.62.62,0,0,1,.51.63,3.83,3.83,0,0,0,.5.14l.5.1c.12,0,.44.42.36.63a10,10,0,0,0-.86,2.14c-.05.27,0,.54.29.6.44.08.73-.5.9-.91.08-.2.19-.26.29-.25a.43.43,0,0,1,.26.46s0,0,0,.07c-.3.6-.84,1.4-1.67,1.24A1,1,0,0,1,357.86,264.67Z" style="fill:#414042"/><path d="M363.19,265.2c.08-.19.2-.26.29-.24a.43.43,0,0,1,.25.47l0,.06c-.3.6-.88,1.38-1.7,1.19a.87.87,0,0,1-.65-.56,1.09,1.09,0,0,1-.91.21c-.75-.17-1-.89-.82-1.7a2.45,2.45,0,0,1,2.86-2.07.41.41,0,0,1,.35.5c0,.16-.08.21-.17.19l-.27-.08c-.73-.16-1.72.27-2,1.65-.11.5,0,.83.37.91s.48-.13.65-.38l.33-1.48a2.17,2.17,0,0,0,0-.32c0-.1.15-.14.29-.11a.47.47,0,0,1,.42.54l-.35,1.58c0,.21,0,.46.23.51C362.7,266.18,363,265.6,363.19,265.2Z" style="fill:#414042"/><path d="M363.1,265c.28-1.09,1.21-2,2.12-1.8a1,1,0,0,1,.66,1.17c-.09.36-.8.38-.66.06s.07-.53-.26-.61-.87.53-1.09,1.38.11,1.27.67,1.42a1.32,1.32,0,0,0,1.51-.89c.2-.4.68-.08.55.25a1.92,1.92,0,0,1-2.33,1.24A1.71,1.71,0,0,1,363.1,265Z" style="fill:#414042"/><path d="M366.92,262.95l.47-1.59c.08-.27,0-.32,0-.39s.2-.05.33,0a.47.47,0,0,1,.39.56l-.48,1.65c.58.17,1.24.35,1.89.51.35-.21,0,.67-.25.61-.76-.2-1.31-.36-1.81-.51l-.87,3c-.09.3,0,.47.19.53.38.11.72-.44.93-.83.1-.19.21-.24.31-.21a.43.43,0,0,1,.22.48l0,.06c-.34.58-1,1.31-1.78,1.07-.51-.15-.78-.55-.56-1.3l.88-3c-.41-.12-.64-.21-.64-.21-.3-.09-.28-.77,0-.69Z" style="fill:#414042"/><path d="M368.33,274.68a.83.83,0,0,1-.26,0A34.77,34.77,0,0,0,357.6,273a4.67,4.67,0,0,1-3.46-1,2.36,2.36,0,0,0-1.11-.54,2.67,2.67,0,0,0-.92.3,4.89,4.89,0,0,1-1.17.42c-1.54.28-2.82-.71-3.85-1.51-.58-.45-1.79-1.27-2.54-.84a.84.84,0,0,1-.83-1.45c.82-.48,2.24-.7,4.3.89.94.73,1.82,1.41,2.62,1.26a3.44,3.44,0,0,0,.77-.29,4.42,4.42,0,0,1,1.66-.46,3.65,3.65,0,0,1,2,.83,4.79,4.79,0,0,0,.78.47,4.49,4.49,0,0,0,1.62.2A36.53,36.53,0,0,1,368.59,273a.84.84,0,0,1-.26,1.63Z" style="fill:#9181b1"/><path d="M359.56,296.56h0a20.58,20.58,0,0,1-8.8-2.15l-.19-.1a5.09,5.09,0,0,0-1.15-.48,5.24,5.24,0,0,0-1.42,0c-1.2.07-2.36.12-3.51.14a6.48,6.48,0,0,1-2.69-.36,6.65,6.65,0,0,1-1.1-.64,6,6,0,0,0-.71-.43,2.73,2.73,0,0,0-2.36,0,.84.84,0,1,1-.74-1.5,4.37,4.37,0,0,1,3.84,0,7.87,7.87,0,0,1,.9.55,5.14,5.14,0,0,0,.82.49,5,5,0,0,0,2,.23c1.13,0,2.27-.07,3.4-.14a6.86,6.86,0,0,1,1.94.07,6.58,6.58,0,0,1,1.54.62l.18.09a18.91,18.91,0,0,0,8.08,2,.84.84,0,0,1,0,1.67Z" style="fill:#9181b1"/><path d="M358.22,303.38a.81.81,0,0,1-.38-.09,11.22,11.22,0,0,0-3.11-1.2,28.78,28.78,0,0,0-2.93-.12,22.35,22.35,0,0,1-6.08-1.49c-2.48-.86-4.81-1.67-7.19-1.28a.84.84,0,1,1-.27-1.65c2.79-.46,5.45.46,8,1.36a21.13,21.13,0,0,0,5.62,1.4,26.4,26.4,0,0,1,3.12.14,12.63,12.63,0,0,1,3.58,1.36.84.84,0,0,1-.38,1.58Z" style="fill:#9181b1"/><path d="M357.89,309.66a.83.83,0,0,1-.46-.14,13,13,0,0,0-6.35-2.11.84.84,0,0,1-.78-.88.79.79,0,0,1,.88-.78,14.69,14.69,0,0,1,7.16,2.38.84.84,0,0,1-.46,1.53Z" style="fill:#9181b1"/><path d="M350.85,274.26a11.1,11.1,0,0,0-.55-2.51c-.47-1.29-.62-2.65-1.5-3.7-1.19-1.42-3.07-3.19-5-3.1a5.32,5.32,0,0,0-4.41,3.07s-8.33-3.94-10.58-1.34-2.45,5.1-.54,6c0,0-2.85,1-3.09,3.28s2.41,3.83,2.41,3.83a4.19,4.19,0,0,0-1.35,3.27,2.56,2.56,0,0,0,2.23,2.32,3.43,3.43,0,0,0,2.31,3.26c2.26.68,10.63,3,15.19-.68a2,2,0,0,0,.44,0c5-.61,14.45,2,14.45,2l2.19-10A48.06,48.06,0,0,1,350.85,274.26Z" style="fill:#fcb096"/><path d="M350.59,220.38S358.2,231,368.5,234.61a30.56,30.56,0,0,1,4.47-8.83c2.77-3.64-9.56-10.54-9.56-10.54Z" style="fill:#fff"/><path d="M328.9,178.77c1.37-6.26.09-13.43-6.94-13-6.34.38-7.67,8-7.36,13.07.34,5.52,3.93,13.83,10.46,7.74C326.78,185,328.2,182,328.9,178.77Z" style="fill:#fcb096"/><path d="M326,170.07a6.54,6.54,0,0,0-4.85-1.38,5.74,5.74,0,0,0-4.2,3.22,10.63,10.63,0,0,0-1.09,5,8.3,8.3,0,0,0,1.44,4.79,14.08,14.08,0,0,1,1-9.11,5.11,5.11,0,0,1,3.08-2.77A8.61,8.61,0,0,1,326,170.07Z" style="fill:#f7967c"/><path d="M321.89,172.41a6.68,6.68,0,0,1,2.52,4.53,6.22,6.22,0,0,1-.37,2.48c-.12.41-.33.8-.49,1.2a1.9,1.9,0,0,1-.63.75,1.45,1.45,0,0,1-1.72-.25,3.25,3.25,0,0,1-1.19-1.91,2.14,2.14,0,0,1,.61-2.07,2.27,2.27,0,0,1,2.4.21,2.43,2.43,0,0,0-2.77-.86,2.92,2.92,0,0,0-1.43,2.85,4.27,4.27,0,0,0,1.46,2.9,3.38,3.38,0,0,0,1.59.78,2.57,2.57,0,0,0,1.88-.37,3.4,3.4,0,0,0,1.14-1.39,11.24,11.24,0,0,0,.52-1.42,6.64,6.64,0,0,0,.16-3.06A5.92,5.92,0,0,0,321.89,172.41Z" style="fill:#f7967c"/><path d="M326.46,144c-1.52,7.55-.08,26.05-5.08,32.73s-14.31,37.57,22.33,45.56c22.49,4.34,40-12.78,47-30.33,4.73-11.79,5.89-26.37,2.57-38.65-5.37-19.87-28.79-24.73-46.58-22.19C338.95,132.26,328.24,135.22,326.46,144Z" style="fill:#fcb096"/><path d="M393.26,153.34a27.41,27.41,0,0,0-12.72-16.6,26.9,26.9,0,0,1,9.25,14.17c3.32,12.28,2.16,26.86-2.57,38.65-7,17.55-24.5,34.68-47,30.33a46.2,46.2,0,0,1-14.16-5.35c4.12,3.33,9.82,6.09,17.63,7.79,22.49,4.34,40-12.79,47-30.33C395.42,180.2,396.59,165.62,393.26,153.34Z" style="fill:#fcb096;opacity:0.5;mix-blend-mode:multiply"/><path d="M345,148.9s-21.8,6.57-32.1-13.91-.27-19.16,2.45-14.53c0,0-3.77-11.37,1.7-13.91s10.77,7.82,10.77,7.82-.64-9.71,4.87-9.84,6.15,9.4,8.42,10.51,33.33-11.49,47.43,2c0,0-3.36-5.93-1-8.4s7.21,6,7,8.53c0,0,8-1.68,9.58,2.23s-6,3.4-6,3.4,10.76,7.28,10.61,25.13-7.79,39.86-24.35,48.61c1.39-7,1.25-22.64-1-28.15s-5.87-11.13-9.09-10.21a5.92,5.92,0,0,1,6.18-5.65S365.86,141,345,148.9Z" style="fill:#a62018"/><path d="M348.32,167.78a8.35,8.35,0,0,1-1,2.59c-.4.83-.84,1.62-1.26,2.43l-2.61,4.72c-.83,1.58-1.72,3.11-2.41,4.68a14.52,14.52,0,0,0-1.46,4.61c-.45,3.05.71,6.17,3.58,7a11.67,11.67,0,0,0,9.51-2.22,10.49,10.49,0,0,1-10.06,4.78,7.15,7.15,0,0,1-3.07-1.21,8,8,0,0,1-2.22-2.5,10.53,10.53,0,0,1-1.06-6.22,16.68,16.68,0,0,1,2-5.61,40.88,40.88,0,0,1,3-4.67c1.09-1.48,2.26-2.88,3.46-4.25l1.84-2,.92-1A3.52,3.52,0,0,0,348.32,167.78Z" style="fill:#ed7e64"/><ellipse cx="361.98" cy="176.77" rx="7.75" ry="4.47" transform="translate(158.61 524.5) rotate(-85.71)" style="fill:#3c2415"/><ellipse cx="363.85" cy="174" rx="2.87" ry="1.66" transform="translate(163.11 523.8) rotate(-85.71)" style="fill:#fff"/><ellipse cx="333.93" cy="172.95" rx="6.71" ry="3.87" transform="translate(136.47 492.99) rotate(-85.71)" style="fill:#3c2415"/><ellipse cx="335.54" cy="170.55" rx="2.48" ry="1.43" transform="translate(140.35 492.38) rotate(-85.71)" style="fill:#fff"/><path d="M372.52,169.79c-6.83-10.37-17.11-6.23-17.54-6l-2-4.61c5-2.14,16.36-3.24,23.7,7.91Z" style="fill:#a62018"/><path d="M331,163.1l-3.21-3.85a14.18,14.18,0,0,1,18.39-.48L343,162.61l1.61-1.92-1.6,1.93C342.4,162.14,337.07,158.07,331,163.1Z" style="fill:#a62018"/><path d="M336.11,203.79s17.06,7.32,29.68-5.8c0,.44-.15,2.3-.21,2.73a24.78,24.78,0,0,1-1.61,6.35C358.89,219.34,337.68,217.4,336.11,203.79Z" style="fill:#aa1b30"/><path d="M336.1,203.79a12.4,12.4,0,0,0,.9,3.44s5.28,3.61,14.57,1.76a37.2,37.2,0,0,0,13.48-5.4,28.48,28.48,0,0,0,.52-2.87c.05-.43.21-2.29.21-2.73C353.17,211.11,336.1,203.79,336.1,203.79Z" style="fill:#fff"/><path d="M350.92,216.78a14.68,14.68,0,0,0,5.3-.46,9.72,9.72,0,0,0,2.38-1,20.65,20.65,0,0,0,2.23-1.57,6.54,6.54,0,0,1-1.74,2.26,6.82,6.82,0,0,1-2.56,1.39,7.59,7.59,0,0,1-2.89.28A6.55,6.55,0,0,1,350.92,216.78Z" style="fill:#ed7e64"/><path d="M390.69,152.38c-10-17.31-34.85-11.11-34.85-11.11,2.76-2,9-6.42,9-6.42-9.87-.65-17.4,5-25.84,6.28-15.44,1.72-27.45-12.69-30.09-16.14a51,51,0,0,0,4,10c10.3,20.48,32.1,13.91,32.1,13.91,20.83-7.87,35.49,3.63,35.49,3.63C387.38,151.58,390.69,152.38,390.69,152.38Z" style="fill:#a62018;opacity:0.5;mix-blend-mode:multiply"/><path d="M400,169.79c0-2.51-3.6-6.69-3.6-6.69,0,6.83-5.72,13.67-5.72,13.67a20.67,20.67,0,0,0-1.89-8.15c-2.6-6.27-11-9.26-11-9.26,2.12,1.86,4.15,5.46,5.62,9,2.28,5.5,2.41,21.13,1,28.15,14.67-7.75,22.33-25.9,24-42.35C407.33,161.2,400,169.79,400,169.79Z" style="fill:#a62018;opacity:0.5;mix-blend-mode:multiply"/><path d="M388.58,187.61c2.5-6.55,8-12.32,14.14-7.73,5.56,4.15,2.2,11.92-1.12,16.35-3.62,4.83-11.88,10.28-14.21.8C386.79,194.57,387.29,191,388.58,187.61Z" style="fill:#fcb096"/><path d="M396.42,181.38a7.15,7.15,0,0,1,5.26,1.64,6.28,6.28,0,0,1,1.9,5.46,11.62,11.62,0,0,1-2,5.25,9.07,9.07,0,0,1-4.19,3.51,15.39,15.39,0,0,0,4.54-8.93,5.58,5.58,0,0,0-1.16-4.38A9.41,9.41,0,0,0,396.42,181.38Z" style="fill:#f7967c"/><path d="M398.8,186a7.3,7.3,0,0,0-5,2.63,6.8,6.8,0,0,0-1.15,2.49c-.13.44-.18.93-.28,1.39a2.08,2.08,0,0,0,.13,1.06,1.58,1.58,0,0,0,1.72.8,3.55,3.55,0,0,0,2.23-1,2.34,2.34,0,0,0,.68-2.26c-.25-.79-1.3-1.18-2.32-1.25a2.65,2.65,0,0,1,3,.88,3.19,3.19,0,0,1-.41,3.46,4.67,4.67,0,0,1-3.07,1.78,3.69,3.69,0,0,1-1.92-.24,2.81,2.81,0,0,1-1.5-1.47,3.71,3.71,0,0,1-.21-2,12.29,12.29,0,0,1,.38-1.61,7.26,7.26,0,0,1,1.69-2.9A6.47,6.47,0,0,1,398.8,186Z" style="fill:#f7967c"/><path d="M387.14,119.06s-6.4-3.76-10.43-3.1c0,0,5.18,3.76,5.22,5.31,0,0-3.83,0-5.22,2,0,0,6.83.14,8.92,1.73,0,0,5.4,3.31,5.07,5.55,0,0,1.66-4.26,1-5.55a5.23,5.23,0,0,1,4.73,2.69A10.94,10.94,0,0,0,387.14,119.06Z" style="fill:#a62018;opacity:0.5;mix-blend-mode:multiply"/><path d="M362.23,279.73A52.09,52.09,0,0,1,353,275.6l-2.5,6.48a5.37,5.37,0,0,1-4.24,3.38l-.82.12s-13.36,3.81-16.93-.16a3.43,3.43,0,0,0,2.31,3.26c2.26.68,10.63,3,15.19-.68a2,2,0,0,0,.44,0c3-.36,7.52.42,10.71,1.11l1.3-1.46a69.88,69.88,0,0,0,4.4-6.57l.11-.52h0A8.62,8.62,0,0,1,362.23,279.73Z" style="fill:#fcb096;opacity:0.5;mix-blend-mode:multiply"/><path d="M392,233.74s-4.82-8.38-12.19-6-5.1,12.7-5.1,12.7c3.15,7.51,11.82,25.25,7.41,35.55-2.47,3.27-13.48,2.52-26.22-1.95l-5.37,15.26c5,1.77,8.31,3.12,18.94,4,11.62,1,23.23-.93,27.54-11C403.25,267.7,398.51,249.27,392,233.74Z" style="fill:#86442c"/><path d="M386.54,277.5l.58-3.4c1-5.26.16-13.76-5.59-27.5-5.68-13.59-2.94-18.3-2.88-18.4-6,3-4,12.23-4,12.23,3.15,7.51,11.82,25.25,7.41,35.55-2.47,3.27-13.48,2.52-26.22-1.95l-1.54,4.37c11.87,4.33,30,.93,30,.93Z" style="fill:#86442c;opacity:0.5;mix-blend-mode:multiply"/><path d="M183.21,402.4a158.47,158.47,0,0,0-1.87,18.28,93.56,93.56,0,0,0,29.2,1.68s-4.63-8.18-9.75-8.42a37.86,37.86,0,0,0-9.84,1l-.22-12.51Z" style="fill:#231f20"/><path d="M155.5,310.05s-.57,12.81,11.09,27.24c0,0,15.47,43.39,12,69.31,0,0,9.75,1.44,14.94-.21s12.82-58.63-2.66-100.86c0,0-4.55-8.91-19.94-6.94S155.5,310.05,155.5,310.05Z" style="fill:#542e0f"/><path d="M190.84,305.53a13,13,0,0,0-4.7-4.5c-10.8,2.84-29,8.43-30.65,9,0,0-.57,12.81,11.09,27.24,0,0,15.47,43.39,12,69.31,5.25-7,2.28-44.48.39-63.42a16.6,16.6,0,0,1,8.77-16.33c2.85-1.51,5.8-3,8.06-4.14A133.06,133.06,0,0,0,190.84,305.53Z" style="fill:#542e0f;opacity:0.5;mix-blend-mode:multiply"/><path d="M115.81,396.44a190.67,190.67,0,0,0-12.32,15.15,87.73,87.73,0,0,0,26.71,10.76s.33-8.52-4.38-10.36a41.43,41.43,0,0,0-9.88-2.31l7-10.84Z" style="fill:#231f20"/><path d="M140.43,304.3s-7.37,10.85-4.75,28.39c0,0-9.51,44.28-26.51,65.22,0,0,7.88,5.46,13.37,6.28s42.77-45.25,51.66-88.53c0,0,.73-9.69-14-14.63S140.43,304.3,140.43,304.3Z" style="fill:#603913"/><path d="M160.24,301c-14.7-4.94-19.8,3.27-19.8,3.27s-4.79,7.07-5.27,19c2.78,1.12,6.41,2.48,10.23,3.64A15.82,15.82,0,0,1,156.05,346c-3.24,12.69-8.64,29.81-16.29,40.85,12.92-17.19,29-44.71,34.44-71.21C174.2,315.66,174.93,306,160.24,301Z" style="fill:#603913;opacity:0.5;mix-blend-mode:multiply"/><path d="M232.35,318.68c-5.69-3.83-7.71-10.72-7.71-10.72l2.82,2.28c2.82,2.28,4.49,1.62,5-1.24.51-3-6.11-6.93-8.69-8l-.26-.11A15.1,15.1,0,0,0,217,299.8h0a33.79,33.79,0,0,1-9.55-9.22l-7.85,4.57s5.83,10.74,6.9,17.31v0a20.81,20.81,0,0,0,2,8.9c1.75,3.58,4.2,7.75,7.6,10,4,2.61,4.09-1.71,4.09-1.71s2.43,4.14,4.7,3.29,1.57-3.77,1.57-3.77,3.75,4,6.08,1.82-.42-5.77-.42-5.77,2.28,1.75,3.65.88S238,322.51,232.35,318.68Z" style="fill:#fcb096"/><path d="M232.07,325a25,25,0,0,0-3-3.92c-1.1-1.2-2.2-2.32-3.44-3.49a10.2,10.2,0,0,0,2.51,4.33A13.65,13.65,0,0,0,232.07,325Z" style="fill:#f7967c"/><path d="M226.5,329.2a19.72,19.72,0,0,0-2.18-4.3,27.87,27.87,0,0,0-2.94-3.8,11.81,11.81,0,0,0,1.89,4.48A14.55,14.55,0,0,0,226.5,329.2Z" style="fill:#f7967c"/><path d="M220.13,329.41a15.64,15.64,0,0,0-1.67-3.36,31.13,31.13,0,0,0-2.16-3,6.31,6.31,0,0,0,1.1,3.69A7.85,7.85,0,0,0,220.13,329.41Z" style="fill:#f7967c"/><path d="M224.36,319a10.43,10.43,0,0,1-2.52,2.12,8.92,8.92,0,0,1-3.11,1.15,6.78,6.78,0,0,1-3.27-.2c1-.38,2-.63,2.91-1.05a19.7,19.7,0,0,0,2.62-1.33,53.83,53.83,0,0,0,5-3.5A7.9,7.9,0,0,1,224.36,319Z" style="fill:#f7967c"/><path d="M213.42,306.75a16.39,16.39,0,0,0,4.37,2.73,11.79,11.79,0,0,0,4.53.92h1.05l-.12,1.12a6.38,6.38,0,0,1-1.47,3.41,7.57,7.57,0,0,1-2.56,2,10.44,10.44,0,0,1-3,.9,13,13,0,0,1-3.07,0c.94-.36,1.87-.67,2.76-1a14.87,14.87,0,0,0,2.5-1.37,8.24,8.24,0,0,0,2-1.87,6.1,6.1,0,0,0,.77-1.38,10.25,10.25,0,0,1-3.88-1.44A11.63,11.63,0,0,1,213.42,306.75Z" style="fill:#f7967c"/><path d="M208.2,306.75c.13-2.21,4.66-6.32,6.95-8.26a36.51,36.51,0,0,1-4.56-4c-3.22.78-6.84,3.39-8.78,5,1.78,3.72,4.09,9.09,4.72,13v0a20.81,20.81,0,0,0,2,8.9c1.75,3.58,4.2,7.75,7.6,10a4.16,4.16,0,0,0,2.13.83C212.86,327.16,208,309.71,208.2,306.75Z" style="fill:#fcb096;opacity:0.5;mix-blend-mode:multiply"/><path d="M189.58,225.11s-2.91-9-10.73-6.72S173.32,229,173.32,229c.58,2.41,11.49,52.78,28.18,76.24l13.62-9.69C200.3,274.73,189.71,225.67,189.58,225.11Z" style="fill:#e4d0a8"/><path d="M187.79,277.92c3.64,9.47,7.88,18.62,12.61,25.7.86-7,1.76-27.18,2.05-34.09-1.39-3.75-2.69-7.54-3.88-11.27l-9.76-1.49S188.3,267.12,187.79,277.92Z" style="fill:#e4d0a8;opacity:0.5;mix-blend-mode:multiply"/><path d="M130,315.43s32.41,15.21,66.24,0c0,0,9.05-58.66-8.58-94.72-5.24-7.39-27.64-11.73-53.85,0a443.32,443.32,0,0,0,1,47.11C136.67,295.44,130,315.43,130,315.43Z" style="fill:#d8c29a"/><path d="M179.39,221.87,191,245.39l-7.37,6.42L191,265.87l-11.66,26.89L159.7,267.82l3.15-14.56-13.69-4.2v-25.8S174.43,218.5,179.39,221.87Z" style="fill:#c4aa80"/><path d="M144.43,216.75c4.26,6,14.2,19.58,28.25,36.51,0,0,4.67-24.89,6.7-37.77C171.35,212.81,158.86,212.39,144.43,216.75Z" style="fill:#e4e5e6"/><path d="M162.34,216.25l-6.68,6.11s2.73,6.74,8.62,6,6.46-7.17,6.46-7.17Z" style="fill:#bd1e2d"/><path d="M172.69,253.26l2.54-13.77-7.35-15.07a6.76,6.76,0,0,0-8.18,1.88l1.76,13.07Z" style="fill:#bd1e2d"/><path d="M150.68,228.44s5.64-3.35,11.65-12.2l-16.64-5.93s-5.58,4.36-4.41,7.43S149,222.9,150.68,228.44Z" style="fill:#fff"/><path d="M166.13,209.69l-3.8,6.56s10,8,18,7.52a23.14,23.14,0,0,1,0-9.49C181.39,208.76,166.13,209.69,166.13,209.69Z" style="fill:#fff"/><path d="M184,175.38c-1.37-6.26-.09-13.43,6.94-13,6.34.38,7.67,8,7.36,13.07-.34,5.52-3.93,13.83-10.46,7.75C186.11,181.6,184.69,178.61,184,175.38Z" style="fill:#fcb096"/><path d="M186.85,166.68a6.54,6.54,0,0,1,4.85-1.38,5.74,5.74,0,0,1,4.2,3.22,10.64,10.64,0,0,1,1.09,5,8.3,8.3,0,0,1-1.44,4.79,14.08,14.08,0,0,0-1-9.11,5.11,5.11,0,0,0-3.08-2.77A8.61,8.61,0,0,0,186.85,166.68Z" style="fill:#f7967c"/><path d="M191,169a6.68,6.68,0,0,0-2.52,4.53,6.22,6.22,0,0,0,.37,2.48c.12.41.33.8.49,1.2a1.9,1.9,0,0,0,.63.75,1.45,1.45,0,0,0,1.72-.25,3.25,3.25,0,0,0,1.19-1.91,2.14,2.14,0,0,0-.61-2.07,2.27,2.27,0,0,0-2.4.21,2.43,2.43,0,0,1,2.77-.86,2.92,2.92,0,0,1,1.43,2.85,4.27,4.27,0,0,1-1.46,2.9,3.38,3.38,0,0,1-1.59.78,2.57,2.57,0,0,1-1.88-.37,3.39,3.39,0,0,1-1.14-1.39,11.22,11.22,0,0,1-.52-1.42,6.64,6.64,0,0,1-.16-3.06A5.92,5.92,0,0,1,191,169Z" style="fill:#f7967c"/><path d="M186.42,140.65c1.52,7.55.08,26,5.08,32.73s14.31,37.57-22.33,45.56c-22.49,4.34-40-12.78-47-30.33-4.73-11.79-5.89-26.37-2.57-38.65,5.37-19.87,28.79-24.73,46.58-22.19C173.94,128.87,184.65,131.83,186.42,140.65Z" style="fill:#fcb096"/><path d="M191.51,173.38c-5-6.68-3.56-25.18-5.08-32.73a11.6,11.6,0,0,0-2.42-5.07,11.58,11.58,0,0,1,1,3c1.52,7.55.08,26,5.08,32.73s14.31,37.57-22.33,45.56c-17.5,3.38-32-6.24-40.82-18.95,8.71,13.7,23.76,24.58,42.2,21C205.82,210.95,196.45,180,191.51,173.38Z" style="fill:#fcb096;opacity:0.5;mix-blend-mode:multiply"/><ellipse cx="150.91" cy="173.38" rx="4.47" ry="7.75" transform="translate(-12.56 11.78) rotate(-4.29)" style="fill:#3c2415"/><ellipse cx="149.04" cy="170.61" rx="1.66" ry="2.87" transform="translate(-12.36 11.64) rotate(-4.29)" style="fill:#fff"/><ellipse cx="178.96" cy="169.56" rx="3.87" ry="6.71" transform="translate(-12.19 13.87) rotate(-4.29)" style="fill:#3c2415"/><ellipse cx="177.34" cy="167.16" rx="1.43" ry="2.48" transform="translate(-12.02 13.75) rotate(-4.29)" style="fill:#fff"/><path d="M176.78,200.4s-17.06,7.32-29.68-5.8c0,.44.15,2.3.21,2.73a24.78,24.78,0,0,0,1.61,6.35C154,215.95,175.2,214,176.78,200.4Z" style="fill:#aa1b30"/><path d="M162,213.39a14.68,14.68,0,0,1-5.3-.46,9.72,9.72,0,0,1-2.38-1,20.67,20.67,0,0,1-2.23-1.57,6.54,6.54,0,0,0,1.74,2.26,6.82,6.82,0,0,0,2.56,1.39,7.59,7.59,0,0,0,2.89.28A6.55,6.55,0,0,0,162,213.39Z" style="fill:#ed7e64"/><path d="M176.78,200.4a12.4,12.4,0,0,1-.9,3.44s-5.28,3.61-14.57,1.76a37.21,37.21,0,0,1-13.48-5.4,28.45,28.45,0,0,1-.52-2.87c-.05-.43-.21-2.29-.21-2.73C159.72,207.72,176.78,200.4,176.78,200.4Z" style="fill:#fff"/><path d="M124.3,184.22c-2.5-6.55-8-12.32-14.14-7.73-5.56,4.15-2.2,11.92,1.12,16.35,3.62,4.83,11.88,10.28,14.21.8C126.09,191.18,125.59,187.6,124.3,184.22Z" style="fill:#fcb096"/><path d="M116.47,178a7.14,7.14,0,0,0-5.26,1.64,6.28,6.28,0,0,0-1.9,5.46,11.62,11.62,0,0,0,2,5.25,9.07,9.07,0,0,0,4.19,3.51,15.39,15.39,0,0,1-4.54-8.93,5.58,5.58,0,0,1,1.16-4.38A9.41,9.41,0,0,1,116.47,178Z" style="fill:#f7967c"/><path d="M114.08,182.63a7.3,7.3,0,0,1,5,2.63,6.8,6.8,0,0,1,1.15,2.49c.13.44.18.93.28,1.39a2.08,2.08,0,0,1-.13,1.06,1.58,1.58,0,0,1-1.72.8,3.55,3.55,0,0,1-2.23-1,2.34,2.34,0,0,1-.68-2.26c.25-.79,1.3-1.18,2.32-1.25a2.65,2.65,0,0,0-3,.88,3.19,3.19,0,0,0,.41,3.46,4.66,4.66,0,0,0,3.07,1.78,3.69,3.69,0,0,0,1.92-.24,2.81,2.81,0,0,0,1.5-1.47,3.71,3.71,0,0,0,.21-2,12.29,12.29,0,0,0-.38-1.61,7.26,7.26,0,0,0-1.69-2.9A6.47,6.47,0,0,0,114.08,182.63Z" style="fill:#f7967c"/><path d="M191.92,152.56s-13.14-4.89-21.9-11.48a15.94,15.94,0,0,0,3.84,6.07s-10.31,1.43-15.18-3c0,0,2.33,6.42,5.6,7,0,0-16.2-.57-22.22-5,0,0-9.74,11.2-7.73,19.14,0,0-5.16-4.1-6-8.11,0,0-7.16,22.44,3.72,41.73,0,0-10.89-1.88-20.91-28.25s7-39.69,7-39.69.15-21.2,36.53-18.91S196.78,141.43,191.92,152.56Z" style="fill:#603913"/><path d="M157,159a19.49,19.49,0,0,0-10.9.79,34,34,0,0,0-4.93,2.39c-.8.49-1.63,1-2.48,1.49a25,25,0,0,1-2.61,1.57,21.59,21.59,0,0,1,1.47-2.75,26.26,26.26,0,0,1,2-2.39,15.6,15.6,0,0,1,5.39-3.44,12.75,12.75,0,0,1,6.49-.63A9.31,9.31,0,0,1,157,159Z" style="fill:#3c2415"/><path d="M170,157.28a6.45,6.45,0,0,1,2.47-3.29,7.68,7.68,0,0,1,4-1.41,7.29,7.29,0,0,1,4.19,1,6.65,6.65,0,0,1,2.78,3c-1.43-.16-2.56-.47-3.68-.57a15.1,15.1,0,0,0-3.09-.13A31.3,31.3,0,0,0,170,157.28Z" style="fill:#3c2415"/><path d="M167.21,169a14.84,14.84,0,0,0,2.56,7,22.24,22.24,0,0,0,5,5.17c.52.39.94.69,1.53,1.16a4.77,4.77,0,0,1,1.68,2.35,5.12,5.12,0,0,1,0,2.72,6.33,6.33,0,0,1-1,2.19,9.13,9.13,0,0,1-7.07,4.27,12.12,12.12,0,0,0,4.76-5.49,3.55,3.55,0,0,0,.22-2.65,1.76,1.76,0,0,0-.65-.74l-1.63-1.18a16.61,16.61,0,0,1-5.25-6.59A10.22,10.22,0,0,1,167.21,169Z" style="fill:#ed7e64"/><path d="M167.21,182.9a.42.42,0,0,1-.32-.69c.11-.12,2.63-3.06,5.79-3.07h0a5.7,5.7,0,0,1,4.37,2.26.42.42,0,0,1,0,.59.41.41,0,0,1-.59,0,4.91,4.91,0,0,0-3.73-2h0c-2.78,0-5.14,2.75-5.16,2.78A.42.42,0,0,1,167.21,182.9Z" style="fill:#3c2415"/><path d="M198.48,274.28c-.09-3.32-.27-6.72-.53-10.17-17.27,3.52-47.46-4.28-53.51-11.83a22.82,22.82,0,0,0-10.72-6.94c.16,6.54.47,14.13,1,22.47,1.91,27.62-4.77,47.61-4.77,47.61a68.52,68.52,0,0,0,9.54,3.34,27.72,27.72,0,0,0,.4-5.43c-.25-13.12,6.16-40.09,11.8-39.24C162.73,279.49,192.33,275.24,198.48,274.28Z" style="fill:#d8c29a;opacity:0.5;mix-blend-mode:multiply"/><path d="M227.61,252.91s5.06-2.09,3.86-5-5.55-1.65-5.55-1.65,2.44-1.51,2.11-3.1-2.59-3.36-8.19.6-12.76,3.41-12.76,3.41l3.13-1.83c3.13-1.83,3.11-3.63.61-5.09-2.66-1.55-8.64,3.26-10.58,5.28l-.19.21a15.11,15.11,0,0,0-3.27,5.65h0a33.79,33.79,0,0,1-12,5.67l1.49,9s12.11-1.65,18.64-.32h0a20.81,20.81,0,0,0,9,1.26c4-.37,8.73-1.18,12-3.57,3.84-2.77-.15-4.42-.15-4.42s4.73-.81,4.74-3.23S227.61,252.91,227.61,252.91Z" style="fill:#fcb096"/><path d="M225.65,246.22a25,25,0,0,0-4.73,1.42c-1.51.6-3,1.24-4.48,2a10.2,10.2,0,0,0,4.94-.81A13.65,13.65,0,0,0,225.65,246.22Z" style="fill:#f7967c"/><path d="M227.61,252.91a19.71,19.71,0,0,0-4.79.52,27.89,27.89,0,0,0-4.59,1.4,11.81,11.81,0,0,0,4.86-.18A14.54,14.54,0,0,0,227.61,252.91Z" style="fill:#f7967c"/><path d="M225.55,258.94a15.64,15.64,0,0,0-3.74.37,31.17,31.17,0,0,0-3.6,1,6.31,6.31,0,0,0,3.84.28A7.85,7.85,0,0,0,225.55,258.94Z" style="fill:#f7967c"/><path d="M205.42,263.77c-4.94-1.24-7.77-8.27-9-12.18A33.47,33.47,0,0,1,184.75,257l1.49,9s12.11-1.65,18.64-.32h0a20.81,20.81,0,0,0,9,1.26c4-.37,8.73-1.18,12-3.57a3.65,3.65,0,0,0,1.62-2C222.85,262.53,210.89,265.14,205.42,263.77Z" style="fill:#fcb096;opacity:0.5;mix-blend-mode:multiply"/><path d="M129.16,223.53A9.9,9.9,0,0,1,138,220.4h0a6.74,6.74,0,0,1,4.14,2.18,14.61,14.61,0,0,1,3,6.88l.3,1.49c.14.58.3,1.17.48,1.77a33.11,33.11,0,0,0,1.29,3.57,31.72,31.72,0,0,0,3.61,6.47,25.77,25.77,0,0,0,10.84,8.75,32.27,32.27,0,0,0,7.08,2,43.63,43.63,0,0,0,7.91.43,51.61,51.61,0,0,0,14.71-2.3l2.3-.65,5.22,17.27-2.3.71a69.37,69.37,0,0,1-19.07,3.51,62.83,62.83,0,0,1-9.26-.13q-1.1-.1-2.18-.24a51.08,51.08,0,0,1-11.56-3,45.25,45.25,0,0,1-19.3-14.73,51.3,51.3,0,0,1-6.07-10.24,46.75,46.75,0,0,1-3.14-8.86A13.51,13.51,0,0,1,129.16,223.53Z" style="fill:#e4d0a8"/><path d="M168.29,272.33a62.8,62.8,0,0,0,9.26.13A69.38,69.38,0,0,0,196.62,269l2.3-.71-1.31-4.33c-22.49,7-34.2,5.83-50.52-4.19-13.4-8.23-18-27.11-19.28-34.41a13.67,13.67,0,0,0-1.78,10,46.73,46.73,0,0,0,3.14,8.86,51.28,51.28,0,0,0,6.07,10.24,45.25,45.25,0,0,0,19.3,14.73,51.08,51.08,0,0,0,11.56,3Q167.19,272.24,168.29,272.33Z" style="fill:#e4d0a8;opacity:0.5;mix-blend-mode:multiply"/><path d="M168.39,134.5c-.81,3.25,1.63,6.58,1.63,6.58,8.76,6.59,21.9,11.48,21.9,11.48C186.06,150.32,168.39,134.5,168.39,134.5Z" style="fill:#603913;opacity:0.5;mix-blend-mode:multiply"/><path d="M158.68,144.11c4.87,4.47,15.18,3,15.18,3-8.36-.47-17.34-9.13-17.34-9.13A7.56,7.56,0,0,0,158.68,144.11Z" style="fill:#603913;opacity:0.5;mix-blend-mode:multiply"/><path d="M139.09,138.5c-.55,4.05,3,7.59,3,7.59,6,4.44,22.22,5,22.22,5C158,150.68,139.09,138.5,139.09,138.5Z" style="fill:#603913;opacity:0.5;mix-blend-mode:multiply"/><path d="M122.19,167.16l-4.06-2.46c-1.47,4.63,0,11.78,0,11.78-2.7-1.5-8.86-11.78-8.86-11.78h0a52.08,52.08,0,0,0,1.85,5.9C121.15,197,132,198.85,132,198.85c-10.89-19.29-3.72-41.73-3.72-41.73.86,4,6,8.11,6,8.11-3.49-3.49-5.77-16.27-5.77-16.27C121.77,154.52,122.19,167.16,122.19,167.16Z" style="fill:#603913;opacity:0.5;mix-blend-mode:multiply"/><path d="M119.06,132.78a10.91,10.91,0,0,0-4,8.16s2.66-4.56,6-5.36S130,138,130,138s-3.78-6.24-5.11-6.57a6.85,6.85,0,0,1,5.11-4.3S119.56,125.78,119.06,132.78Z" style="fill:#603913;opacity:0.5;mix-blend-mode:multiply"/><ellipse cx="181.21" cy="181.67" rx="4.46" ry="5.18" style="fill:#d7f1ff"/><ellipse cx="162.18" cy="183.57" rx="5.12" ry="5.95" style="fill:#d7f1ff"/><path d="M141.62,311.2l-6.19-2.65a1.11,1.11,0,0,1-.59-.78l-2-8.15c-.28-1.11-1.47-1.11-1.75,0l-2,8.15a1.11,1.11,0,0,1-.59.78l-6.19,2.65a1.36,1.36,0,0,0,0,2.3l6.19,2.65a1.11,1.11,0,0,1,.59.78l2,8.15c.28,1.11,1.47,1.11,1.75,0l2-8.15a1.11,1.11,0,0,1,.59-.78l6.19-2.65A1.36,1.36,0,0,0,141.62,311.2Z" style="fill:#e9eefa"/><path d="M94.12,159.4l-4-1.7a.71.71,0,0,1-.38-.5L88.49,152c-.18-.71-.94-.71-1.12,0l-1.29,5.22a.71.71,0,0,1-.38.5l-4,1.7a.87.87,0,0,0,0,1.47l4,1.7a.71.71,0,0,1,.38.5l1.29,5.22c.18.71.94.71,1.12,0l1.29-5.22a.71.71,0,0,1,.38-.5l4-1.7A.87.87,0,0,0,94.12,159.4Z" style="fill:#e9eefa"/><path d="M127.83,223.65l-4-1.7a.71.71,0,0,1-.38-.5l-1.29-5.22c-.18-.71-.94-.71-1.12,0l-1.29,5.22a.71.71,0,0,1-.38.5l-4,1.7a.87.87,0,0,0,0,1.47l4,1.7a.71.71,0,0,1,.38.5l1.29,5.22c.18.71.94.71,1.12,0l1.29-5.22a.71.71,0,0,1,.38-.5l4-1.7A.87.87,0,0,0,127.83,223.65Z" style="fill:#e9eefa"/><path d="M400.62,218.63,394.43,216a1.11,1.11,0,0,1-.59-.78l-2-8.15c-.28-1.11-1.47-1.11-1.75,0l-2,8.15a1.11,1.11,0,0,1-.59.78l-6.19,2.65a1.36,1.36,0,0,0,0,2.3l6.19,2.65a1.11,1.11,0,0,1,.59.78l2,8.15c.28,1.11,1.47,1.11,1.75,0l2-8.15a1.11,1.11,0,0,1,.59-.78l6.19-2.65A1.36,1.36,0,0,0,400.62,218.63Z" style="fill:#e9eefa"/><path d="M268.72,323.58l-4-1.7a.71.71,0,0,1-.38-.5l-1.29-5.22c-.18-.71-.94-.71-1.12,0l-1.29,5.22a.71.71,0,0,1-.38.5l-4,1.7a.87.87,0,0,0,0,1.47l4,1.7a.71.71,0,0,1,.38.5l1.29,5.22c.18.71.94.71,1.12,0l1.29-5.22a.71.71,0,0,1,.38-.5l4-1.7A.87.87,0,0,0,268.72,323.58Z" style="fill:#e9eefa"/><path d="M426,279.46l-4-1.7a.71.71,0,0,1-.38-.5L420.41,272c-.18-.71-.94-.71-1.12,0L418,277.27a.71.71,0,0,1-.38.5l-4,1.7a.87.87,0,0,0,0,1.47l4,1.7a.71.71,0,0,1,.38.5l1.29,5.22c.18.71.94.71,1.12,0l1.29-5.22a.71.71,0,0,1,.38-.5l4-1.7A.87.87,0,0,0,426,279.46Z" style="fill:#e9eefa"/><path d="M243.76,200.53l-4-1.7a.71.71,0,0,1-.38-.5l-1.29-5.22c-.18-.71-.94-.71-1.12,0l-1.29,5.22a.71.71,0,0,1-.38.5l-4,1.7a.87.87,0,0,0,0,1.47l4,1.7a.71.71,0,0,1,.38.5l1.29,5.22c.18.71.94.71,1.12,0l1.29-5.22a.71.71,0,0,1,.38-.5l4-1.7A.87.87,0,0,0,243.76,200.53Z" style="fill:#e9eefa"/><path d="M239,135.59l-6.19-2.65a1.11,1.11,0,0,1-.59-.78l-2-8.15c-.28-1.11-1.47-1.11-1.75,0l-2,8.15a1.11,1.11,0,0,1-.59.78l-6.19,2.65a1.36,1.36,0,0,0,0,2.3l6.19,2.65a1.11,1.11,0,0,1,.59.78l2,8.15c.28,1.11,1.47,1.11,1.75,0l2-8.15a1.11,1.11,0,0,1,.59-.78l6.19-2.65A1.36,1.36,0,0,0,239,135.59Z" style="fill:#e9eefa;mix-blend-mode:multiply"/><ellipse cx="385.88" cy="324.85" rx="5.06" ry="6.66" style="fill:#e9eefa"/><ellipse cx="385.88" cy="161.85" rx="5.06" ry="6.66" style="fill:#e9eefa;mix-blend-mode:multiply"/><ellipse cx="250.19" cy="117.05" rx="3.97" ry="5.22" style="fill:#e9eefa;mix-blend-mode:multiply"/><ellipse cx="206.29" cy="106" rx="4.5" ry="5.92" style="fill:#e9eefa;mix-blend-mode:multiply"/><ellipse cx="223.1" cy="364.11" rx="3.01" ry="3.96" style="fill:#e9eefa;mix-blend-mode:multiply"/><ellipse cx="76.65" cy="106" rx="5.06" ry="6.66" style="fill:#e9eefa"/><ellipse cx="79.83" cy="321.1" rx="3.18" ry="4.18" style="fill:#e9eefa"/><ellipse cx="92.79" cy="261.9" rx="3.18" ry="4.18" style="fill:#e9eefa"/><ellipse cx="281.32" cy="207.93" rx="5.06" ry="6.66" style="fill:#e9eefa"/></g></g></svg>