<?xml version="1.0" encoding="utf-8"?>
<!-- Generator: Adobe Illustrator 21.1.0, SVG Export Plug-In . SVG Version: 6.00 Build 0)  -->
<svg version="1.1" id="Слой_1" xmlns="http://www.w3.org/2000/svg" xmlns:xlink="http://www.w3.org/1999/xlink" x="0px" y="0px"
	 viewBox="0 0 664.8 518.6" style="enable-background:new 0 0 664.8 518.6;" xml:space="preserve">
<style type="text/css">
	.st0{fill:#FEFCFC;}
	.st1{fill:#E7E6E6;}
	.st2{fill:#405F78;}
	.st3{fill:#405F79;}
	.st4{fill:#7F9EA2;}
	.st5{fill:#8DA4AC;}
	.st6{fill:#90A6AE;}
	.st7{fill:#9BAFB6;}
	.st8{fill:#303B51;}
	.st9{fill:#D12A2A;}
	.st10{fill:#4491CD;}
	.st11{fill:#D02A2A;}
	.st12{fill:#FDFBFB;}
	.st13{fill:#FBFAFA;}
	.st14{fill:#313C52;}
	.st15{fill:#303C52;}
	.st16{fill:#44657F;}
	.st17{fill:#446580;}
	.st18{fill:#4D6177;}
	.st19{fill:#4B6178;}
	.st20{fill:#4D6178;}
	.st21{fill:#446681;}
	.st22{fill:#4C7491;}
	.st23{fill:#4A7391;}
	.st24{fill:#4D7795;}
	.st25{fill:#517892;}
	.st26{fill:#537A93;}
	.st27{fill:#70DEE9;}
	.st28{fill:#6FDEE9;}
	.st29{fill:#466F7B;}
	.st30{fill:#4C7592;}
	.st31{fill:#4B7491;}
	.st32{fill:#4B7391;}
	.st33{fill:#4E7591;}
	.st34{fill:#4E7590;}
	.st35{fill:#4D7591;}
	.st36{fill:#4F7690;}
	.st37{fill:#4D7592;}
	.st38{fill:#51758D;}
	.st39{fill:url(#SVGID_1_);}
	.st40{fill:#3A3F47;}
	.st41{fill:#EEA886;}
	.st42{fill:#DE9673;}
	.st43{fill:#FFC955;}
	.st44{fill:#EEA987;}
	.st45{fill:#A77860;}
	.st46{fill:#5F8CC9;}
	.st47{fill:#6E6760;}
	.st48{fill:#E4F3FF;}
	.st49{fill:#B5DEFF;}
	.st50{fill:#BBD070;}
	.st51{fill:#97A43C;}
	.st52{fill:#48753A;}
	.st53{fill:url(#SVGID_2_);}
	.st54{fill:#152B3D;}
	.st55{fill:#323657;}
	.st56{fill:#254380;}
	.st57{fill:#353A3D;}
	.st58{fill:#E55353;}
	.st59{fill:#FFBB55;}
	.st60{fill:#DBD8E3;}
	.st61{fill:#E8734D;}
	.st62{fill:#C4C1CC;}
	.st63{fill:#EFAA88;}
	.st64{fill:#16202E;}
	.st65{fill:#BAE0FF;}
	.st66{fill:#1A598C;}
	.st67{fill:#2273B5;}
	.st68{fill:#4DA8F2;}
	.st69{fill:#78C2FF;}
	.st70{fill:#F3F3F3;}
	.st71{fill:#8FBBFF;}
	.st72{fill:#D6D6D6;}
	.st73{fill:#E8E8E8;}
	.st74{fill:#C2C2C2;}
	.st75{fill:url(#SVGID_3_);}
	.st76{fill:url(#SVGID_4_);}
	.st77{fill:#CFA345;}
	.st78{fill:#FFCB55;}
	.st79{fill:#DBAF49;}
	.st80{fill:#16284D;}
	.st81{fill:#0E2D3D;}
	.st82{fill:#163342;}
	.st83{fill:#1D3B54;}
	.st84{fill:#285173;}
	.st85{fill:#183C59;}
	.st86{fill:#616161;}
	.st87{fill:#E0CEC7;}
	.st88{fill:#252E3B;}
	.st89{fill:#88C0FF;}
	.st90{fill:#FFFFFF;}
</style>
<title>Монтажная область 23</title>
<g>
	<g>
		<path class="st0" d="M50.8,305.4c0-6.2,0-12.4,0-18.6c0-0.1,0-0.1,0.1-0.1c9.1,0,18.3,0,27.4,0c0.1,0,0.1,0,0.1,0.1
			c0,12.4,0,24.8,0,37.2c0,0.1,0,0.1-0.1,0.1c-9.1,0-18.3,0-27.4,0c-0.1,0-0.1,0-0.1-0.1C50.8,317.8,50.8,311.6,50.8,305.4z"/>
		<path class="st1" d="M77.8,294.3c0,0.8,0,1.7,0,2.5c0,7.4,0,14.8,0,22.2c0,0-0.1,0-0.1,0c0,0-0.1,0-0.1,0c-8.6,0-17.3,0-25.9,0
			c-0.1,0-0.1,0-0.2,0c0.2-0.2,0.3-0.3,0.5-0.5c0.1-0.1,0.3-0.3,0.4-0.4c0.2-0.2,0.4-0.4,0.6-0.6c0.4-0.4,0.8-0.7,1.1-1.1
			c0.2-0.2,0.5-0.4,0.7-0.7c0.4-0.4,0.8-0.7,1.1-1.1c0.2-0.2,0.5-0.5,0.7-0.7c0.4-0.3,0.7-0.7,1.1-1c0.2-0.2,0.5-0.5,0.7-0.7
			c0.4-0.4,0.8-0.7,1.1-1.1c0,0,0.1,0,0.1-0.1c0,0,0.1,0,0.1,0c0.9,0.6,1.8,0.9,2.8,1.2c0.5,0.1,0.9,0.2,1.4,0.2c0.4,0,0.7,0,1.1,0
			c0.5,0,1-0.1,1.4-0.2c0.8-0.2,1.6-0.5,2.3-0.9c0.6-0.3,1.2-0.7,1.7-1.2c0.7-0.6,1.3-1.3,1.7-2.1c0.6-1,0.9-2,1.1-3.1
			c0-0.3,0.1-0.6,0.1-0.8c0-0.2,0-0.3,0-0.5c0-0.8-0.1-1.7-0.4-2.5c-0.2-0.6-0.5-1.3-0.8-1.9c0,0,0-0.1,0-0.1
			c0.1-0.1,0.2-0.2,0.3-0.3c0.2-0.2,0.4-0.4,0.6-0.6c0.4-0.4,0.7-0.7,1.1-1.1c0.2-0.2,0.5-0.5,0.7-0.7c0.4-0.4,0.7-0.7,1.1-1.1
			c0.2-0.2,0.5-0.4,0.7-0.7c0.2-0.2,0.5-0.4,0.7-0.7c0,0,0,0,0.1-0.1C77.6,294.2,77.7,294.2,77.8,294.3z"/>
		<path class="st2" d="M51.3,294C51.3,294,51.3,293.9,51.3,294c0-2.3,0-4.5,0-6.7c0-0.1,0-0.1,0.1-0.1c8.7,0,17.5,0,26.2,0
			c0.1,0,0.1,0,0.1,0.1c0,2.2,0,4.4,0,6.6c0,0,0,0,0,0.1c0,0-0.1,0-0.1,0c0,0-0.1,0-0.1,0c-8.7,0-17.3,0-26,0
			C51.5,294,51.4,294.1,51.3,294z"/>
		<path class="st2" d="M72.2,299.3c0.3,0.5,0.5,1,0.7,1.5c0.2,0.6,0.4,1.3,0.4,1.9c0,0.4,0.1,0.9,0.1,1.3c-0.1,1.8-0.7,3.5-1.8,5
			c-1.3,1.7-2.9,2.7-4.9,3.3c-0.5,0.1-1,0.2-1.5,0.2c-0.5,0-0.9,0-1.4,0c-1.5-0.1-2.8-0.6-4-1.4c0,0-0.1,0-0.1-0.1
			c-0.4-0.3-0.8-0.6-1.1-0.9c-1.3-1.2-2.1-2.6-2.6-4.4c-0.2-0.9-0.3-1.8-0.2-2.7c0.1-2,0.9-3.8,2.2-5.3c1.3-1.5,2.9-2.4,4.8-2.8
			c0.7-0.2,1.5-0.2,2.3-0.2c1.9,0.1,3.7,0.8,5.2,2C70.9,297.6,71.6,298.4,72.2,299.3C72.1,299.3,72.2,299.3,72.2,299.3z"/>
		<path class="st3" d="M74.4,322.9c-0.7,0-1.4,0-2.1,0c-0.2,0-0.3-0.1-0.3-0.3c0-0.9,0-1.8,0-2.7c0-0.2,0.1-0.3,0.3-0.3
			c1.4,0,2.7,0,4.1,0c0.2,0,0.3,0.1,0.3,0.3c0,0.9,0,1.8,0,2.6c0,0.2-0.1,0.3-0.3,0.3C75.8,322.9,75.1,322.9,74.4,322.9z"/>
		<path class="st4" d="M51.3,294c0,0,0.1,0,0.1,0c8.7,0,17.4,0,26.1,0c0,0,0.1,0,0.1,0c0,0.1,0,0.2,0,0.3c-0.1,0-0.2,0-0.3,0
			c0,0-0.1,0-0.1,0c-8.6,0-17.2,0-25.9,0c-0.2,0-0.2,0-0.2-0.2C51.3,294.1,51.3,294,51.3,294z"/>
		<path class="st5" d="M77.8,319.1c0,0-0.1,0-0.1,0c-8.7,0-17.5,0-26.2,0c0,0-0.1,0-0.1-0.1c0,0,0.1,0,0.1,0c0,0,0.1,0,0.1,0
			c8.7,0,17.3,0,26,0c0,0,0.1,0,0.1,0C77.8,319,77.8,319.1,77.8,319.1z"/>
		<path class="st6" d="M51.3,319C51.3,319,51.3,319,51.3,319c0-0.1,0.1-0.1,0.1-0.1c8.7,0,17.5,0,26.2,0c0,0,0.1,0,0.1,0
			c0,0.1-0.1,0-0.1,0c-8.7,0-17.5,0-26.2,0C51.4,319,51.4,319.1,51.3,319z"/>
		<path class="st7" d="M51.3,319c2.9,0,5.8,0,8.7,0c5.9,0,11.7,0,17.6,0c0,0,0.1,0,0.1,0c0-0.1-0.1,0-0.1,0c-8.7,0-17.4,0-26.1,0
			C51.4,319,51.4,319,51.3,319C51.3,318.9,51.4,319,51.3,319c0.1-0.1,0.2-0.1,0.2-0.1c8.7,0,17.4,0,26.1,0c0,0,0.1,0,0.1,0
			c0,0.1,0,0.1,0,0.2c0-0.1,0-0.1-0.1-0.1c0,0,0,0,0,0C68.9,319.1,60.1,319.1,51.3,319C51.4,319.1,51.3,319.1,51.3,319
			C51.3,319.1,51.3,319,51.3,319z"/>
		<path class="st8" d="M56.5,288.7c1.1,0,2.3,0,3.4,0c0.2,0,0.3,0.1,0.3,0.3c0,0.8,0,1.7,0,2.5c0,0.2-0.1,0.3-0.3,0.3
			c-2.3,0-4.6,0-6.9,0c-0.2,0-0.3-0.1-0.3-0.3c0-0.8,0-1.6,0-2.5c0-0.2,0.1-0.3,0.3-0.3C54.2,288.7,55.4,288.7,56.5,288.7z"/>
		<path class="st4" d="M72.9,290.5c0-0.1,0-0.1,0-0.2c0-0.1,0-0.3,0.1-0.4c0.1-0.2,0.1-0.4,0.3-0.6c0,0,0,0,0.1-0.1
			c0.1-0.1,0.2-0.2,0.2-0.3c0-0.1,0.1-0.1,0.2-0.2c0.2-0.1,0.3-0.2,0.5-0.2c0.2,0,0.4-0.1,0.7-0.1c0.3,0,0.6,0.1,0.8,0.2
			c0.1,0,0.1,0.1,0.1,0.1c0.1,0.1,0.3,0.2,0.4,0.4c0.1,0.1,0.2,0.2,0.2,0.3c0.1,0.2,0.1,0.3,0.2,0.5c0,0.1,0,0.1,0,0.2
			c0,0.2,0,0.3,0,0.5c0,0.1,0,0.2-0.1,0.3c-0.1,0.2-0.1,0.3-0.2,0.5c0,0,0,0.1-0.1,0.1c-0.1,0.1-0.2,0.2-0.3,0.3
			c0,0.1-0.1,0.1-0.2,0.2c-0.2,0.1-0.3,0.2-0.5,0.2c0,0-0.1,0-0.1,0c-0.1,0-0.3,0-0.4,0c-0.1,0-0.2,0-0.2,0
			c-0.3-0.1-0.5-0.2-0.8-0.3c0,0-0.1,0-0.1-0.1c-0.1-0.1-0.2-0.2-0.3-0.3c-0.1-0.1-0.1-0.2-0.2-0.3c-0.1-0.2-0.2-0.4-0.2-0.6
			C72.9,290.6,73,290.6,72.9,290.5z"/>
		<path class="st4" d="M70.4,292c-0.1,0-0.2,0-0.3,0c0,0,0,0-0.1,0c0,0-0.1,0-0.1,0c0,0,0,0,0,0c-0.1,0-0.1,0-0.2,0
			c-0.1,0-0.1-0.1-0.2-0.1c-0.1,0-0.2-0.1-0.3-0.2c0,0,0-0.1-0.1-0.1c-0.1-0.1-0.1-0.1-0.2-0.2c0,0-0.1,0-0.1-0.1
			c0,0-0.1-0.1-0.1-0.1c0,0,0-0.1-0.1-0.1c0,0,0,0,0,0c0,0,0-0.1-0.1-0.1c0-0.1-0.1-0.2-0.1-0.2c0-0.1,0-0.2,0-0.3
			c0-0.1,0-0.1,0-0.2c0-0.1,0-0.2,0-0.3c0,0,0,0,0,0c0,0,0-0.1,0-0.1c0,0,0,0,0,0c0,0,0-0.1,0-0.1c0,0,0-0.1,0.1-0.1
			c0,0,0-0.1,0.1-0.1c0,0,0-0.1,0.1-0.1c0,0,0,0,0.1-0.1c0,0,0,0,0,0c0.1-0.1,0.1-0.1,0.2-0.2c0,0,0,0,0,0c0,0,0,0,0.1-0.1
			c0,0,0.1-0.1,0.1-0.1c0.1,0,0.2-0.1,0.2-0.1c0,0,0.1,0,0.1,0c0,0,0.1,0,0.1,0c0,0,0,0,0,0c0.1,0,0.2-0.1,0.2,0c0.1,0,0.2,0,0.3,0
			c0,0,0.1,0,0.1,0c0.2,0.1,0.5,0.1,0.7,0.3c0,0,0.1,0,0.1,0.1c0.1,0.1,0.1,0.1,0.2,0.2c0,0,0.1,0,0.1,0.1c0.1,0.2,0.2,0.4,0.3,0.6
			c0,0,0,0.1,0,0.1c0,0.1,0,0.3,0,0.4c0,0,0,0.1,0,0.1c0,0.2-0.2,0.5-0.3,0.7c0,0,0,0.1-0.1,0.1c-0.1,0.1-0.1,0.1-0.2,0.2
			c0,0.1-0.1,0.1-0.1,0.1c-0.2,0.2-0.5,0.2-0.7,0.3C70.5,292.1,70.5,292.1,70.4,292z"/>
		<path class="st4" d="M66.3,290.1c0-0.2,0-0.3,0-0.5c0-0.1,0.1-0.1,0.1-0.2c0.2-0.2,0.4-0.1,0.5,0.1c0.1,0.2,0.1,0.3,0.1,0.5
			c0,0,0,0,0,0.1c0,0.1,0,0.3-0.2,0.4c-0.1,0.1-0.3,0.1-0.4,0C66.3,290.4,66.3,290.2,66.3,290.1z"/>
		<path class="st4" d="M62,290.1c0-0.2,0-0.3,0-0.5c0-0.1,0.1-0.1,0.1-0.2c0.2-0.2,0.4-0.1,0.5,0.1c0.1,0.2,0.1,0.3,0.1,0.5
			c0,0,0,0,0,0.1c0,0.1,0,0.2-0.1,0.3c-0.1,0.2-0.4,0.2-0.5,0C62.1,290.3,62,290.2,62,290.1z"/>
		<path class="st4" d="M64.9,290.2c-0.1-0.2,0-0.4,0.1-0.6c0.1-0.1,0.1-0.2,0.3-0.2c0.1,0,0.2,0.1,0.3,0.2c0.1,0.2,0.1,0.4,0.1,0.6
			c0,0.2-0.1,0.4-0.3,0.4C65.1,290.6,64.9,290.4,64.9,290.2z"/>
		<path class="st4" d="M63.5,290.1c0-0.2,0-0.5,0.1-0.7c0.1-0.2,0.3-0.2,0.4,0c0.2,0.2,0.2,0.4,0.1,0.7c0,0.2-0.1,0.3-0.2,0.4
			c-0.1,0.1-0.2,0.1-0.3,0C63.5,290.4,63.5,290.3,63.5,290.1z"/>
		<path class="st9" d="M76,291.9c0.1-0.1,0.2,0,0.2,0.1c0,0,0,0.1-0.1,0.1c-0.3,0.2-0.6,0.4-0.9,0.4c-0.1,0-0.1,0-0.2,0
			c-0.1,0-0.1,0-0.1-0.1c0-0.1,0-0.1,0.2-0.2c0.2-0.1,0.4-0.1,0.5-0.2C75.8,292,75.9,292,76,291.9z"/>
		<path class="st10" d="M72.9,290.2c0,0.1-0.1,0.1-0.2,0.1c-0.1,0,0-0.1,0-0.1c0-0.4,0.2-0.8,0.4-1.1c0,0,0-0.1,0.1-0.1
			c0.1,0,0.1,0.1,0.1,0.1c0,0,0,0.1,0,0.1c0,0.1-0.1,0.2-0.2,0.3c-0.1,0.2-0.2,0.4-0.2,0.6C72.9,290.2,72.9,290.2,72.9,290.2z"/>
		<path class="st9" d="M75,288.5C75,288.5,74.9,288.6,75,288.5c-0.1-0.1-0.1-0.2-0.1-0.2c0,0,0,0,0.1,0c0.4,0,0.8,0.2,1.1,0.5
			c0,0,0.1,0,0,0.1c0,0-0.1,0.2-0.2,0.1c0,0,0,0,0,0c-0.1-0.1-0.2-0.1-0.3-0.2C75.4,288.6,75.2,288.6,75,288.5z"/>
		<path class="st9" d="M76.3,289.3c0,0-0.1-0.1,0-0.1c0.1-0.1,0.1-0.1,0.2,0c0.2,0.3,0.4,0.7,0.4,1.1c0,0,0,0.1,0,0.1
			c-0.1,0-0.2,0-0.2-0.1c-0.1-0.2-0.1-0.4-0.2-0.6C76.4,289.5,76.4,289.4,76.3,289.3z"/>
		<path class="st10" d="M73.6,289c-0.2-0.1-0.2-0.1,0-0.3c0.3-0.2,0.7-0.4,1-0.4c0,0,0.1,0,0.1,0.1c0,0.1,0.1,0.2-0.1,0.2
			c-0.1,0-0.2,0-0.3,0.1c-0.1,0.1-0.2,0.1-0.3,0.1C73.8,288.8,73.7,288.9,73.6,289z"/>
		<path class="st9" d="M76.7,290.8c0,0,0-0.1,0-0.1c0-0.1,0-0.1,0.1-0.1c0.1,0,0.1,0,0.1,0.1c-0.1,0.4-0.2,0.7-0.4,1
			c0,0,0,0.1-0.1,0.1c-0.1-0.1-0.1-0.1-0.1-0.2c0-0.1,0.1-0.2,0.2-0.3C76.5,291.2,76.6,291,76.7,290.8z"/>
		<path class="st10" d="M74.6,292.3c0.1,0,0.1,0.1,0.1,0.2c0,0.1-0.1,0-0.1,0c-0.4,0-0.8-0.2-1.1-0.4c0,0-0.1,0,0-0.1
			c0,0,0.1-0.2,0.2-0.1c0,0,0,0,0,0C73.9,292.1,74.2,292.3,74.6,292.3C74.6,292.3,74.6,292.3,74.6,292.3z"/>
		<path class="st10" d="M73.3,291.6c0.1,0.1,0,0.1-0.1,0.2c0,0.1-0.1,0-0.1,0c-0.3-0.3-0.4-0.7-0.5-1.1c0-0.1,0-0.1,0.1-0.1
			c0.1,0,0.1-0.1,0.2,0.1c0,0.1,0.1,0.3,0.1,0.4C73.1,291.3,73.2,291.4,73.3,291.6z"/>
		<path class="st9" d="M70.4,292c0.3,0,0.7-0.1,0.9-0.4c0.1,0,0.1,0.1,0.1,0.1c0,0.1,0,0.1,0,0.1c-0.2,0.2-0.5,0.3-0.8,0.4
			c0,0-0.1,0-0.1,0C70.4,292.2,70.4,292.2,70.4,292z"/>
		<path class="st11" d="M71.4,289.2c-0.3-0.2-0.5-0.4-0.9-0.4c-0.1,0-0.1-0.1-0.1-0.2c0-0.1,0.1,0,0.1,0c0.3,0,0.6,0.1,0.8,0.3
			C71.5,289.1,71.5,289.1,71.4,289.2z"/>
		<path class="st9" d="M71.9,290.2c0-0.3-0.2-0.6-0.4-0.8c0-0.1,0-0.1,0.1-0.1c0,0,0.1,0,0.1,0.1c0.2,0.3,0.3,0.6,0.4,0.9
			c0,0,0,0.1,0,0.1C72,290.3,71.9,290.4,71.9,290.2C71.9,290.2,71.9,290.2,71.9,290.2z"/>
		<path class="st10" d="M69.3,289.2C69.3,289.2,69.3,289.2,69.3,289.2c-0.2-0.1-0.2-0.1,0-0.2c0.3-0.2,0.6-0.3,0.9-0.3
			c0.1,0,0.1,0,0.1,0.1c0,0,0,0.1,0,0.1c-0.1,0-0.2,0-0.2,0.1c0,0,0,0,0,0c0,0-0.1,0-0.1,0c0,0-0.1,0-0.1,0c-0.1,0-0.2,0.1-0.2,0.1
			C69.4,289.1,69.4,289.1,69.3,289.2C69.3,289.1,69.3,289.2,69.3,289.2z"/>
		<path class="st9" d="M71.5,291.5c0.2-0.2,0.3-0.5,0.4-0.8c0,0,0-0.1,0.1-0.1c0.1,0,0.1,0,0.1,0.1c0,0.3-0.2,0.6-0.3,0.8
			C71.7,291.6,71.6,291.6,71.5,291.5z"/>
		<path class="st10" d="M68.9,291.1C68.9,291.2,68.9,291.2,68.9,291.1c0,0.1,0.1,0.1,0.1,0.1c0,0,0.1,0.1,0.1,0.1c0,0,0,0,0,0.1
			c0,0,0,0,0,0.1c-0.1,0.1-0.1,0.1-0.2,0c-0.2-0.2-0.3-0.5-0.4-0.8c0-0.1,0-0.2,0.2-0.1c0,0.1,0,0.2,0,0.3c0,0.1,0,0.1,0.1,0.2
			C68.8,291,68.8,291.1,68.9,291.1z"/>
		<path class="st10" d="M70.1,292C70.2,292,70.2,292,70.1,292c0.1,0.3,0.1,0.2-0.1,0.2c-0.3,0-0.6-0.2-0.8-0.4
			c-0.1-0.1-0.1-0.1,0-0.1c0,0,0,0,0.1-0.1c0,0,0,0,0.1,0c0.1,0.1,0.2,0.2,0.3,0.2c0.1,0,0.2,0.1,0.2,0.1c0.1,0,0.1,0,0.1,0
			c0,0,0,0,0,0C70.1,292,70.1,292,70.1,292z"/>
		<path class="st10" d="M68.9,289.6c0,0,0,0.1-0.1,0.1c0,0,0,0.1,0,0.1l0,0c0,0,0,0.1,0,0.1l0,0c0,0.1-0.1,0.2-0.1,0.3
			c0,0,0,0,0,0.1c-0.2,0-0.2,0-0.1-0.2c0.1-0.3,0.2-0.6,0.3-0.8c0.1-0.1,0.1-0.1,0.2,0c0,0,0,0,0,0c0,0,0,0.1-0.1,0.1
			c0,0,0,0-0.1,0.1C68.9,289.6,68.9,289.6,68.9,289.6z"/>
		<path class="st12" d="M67.9,291.6c-0.1,0-0.1,0-0.2,0c-0.1,0-0.1,0-0.1-0.2c0,0,0,0,0.1,0c0.1,0,0.3,0,0.4,0
			c0.1,0,0.1,0.1,0.1,0.1c0,0.1,0,0.1-0.1,0.1C68,291.6,68,291.6,67.9,291.6z"/>
		<path class="st12" d="M67.2,291.6c-0.1,0-0.1,0-0.2,0c-0.1,0-0.1,0-0.1-0.1c0-0.1,0-0.1,0.1-0.1c0.1,0,0.3,0,0.4,0
			c0.1,0,0.1,0,0.1,0.1c0,0.1,0,0.1-0.1,0.1C67.4,291.6,67.3,291.6,67.2,291.6z"/>
		<path class="st12" d="M66.6,291.4c0.1,0,0.1,0,0.2,0c0.1,0,0.1,0,0.1,0.1c0,0.1,0,0.1-0.1,0.1c-0.1,0-0.3,0-0.4,0
			c-0.1,0-0.1,0-0.1-0.1c0,0,0-0.1,0.1-0.1C66.4,291.4,66.5,291.4,66.6,291.4z"/>
		<path class="st12" d="M65.9,291.6c-0.1,0-0.1,0-0.2,0c-0.1,0-0.1,0-0.1-0.1c0-0.1,0-0.1,0.1-0.1c0.1,0,0.3,0,0.4,0
			c0.1,0,0.1,0.1,0.1,0.1c0,0.1,0,0.1-0.1,0.1C66,291.6,65.9,291.6,65.9,291.6z"/>
		<path class="st12" d="M65.2,291.6c-0.1,0-0.1,0-0.2,0c-0.1,0-0.1,0-0.1-0.1c0-0.1,0-0.1,0.1-0.1c0.1,0,0.3,0,0.4,0
			c0.1,0,0.1,0.1,0.1,0.1c0,0.1,0,0.1-0.1,0.1C65.3,291.6,65.3,291.6,65.2,291.6z"/>
		<path class="st12" d="M64.5,291.4c0.1,0,0.1,0,0.2,0c0.1,0,0.2,0.1,0.1,0.2c0,0,0,0-0.1,0c-0.1,0-0.3,0-0.4,0
			c-0.1,0-0.1-0.1-0.1-0.1c0,0,0-0.1,0.1-0.1C64.4,291.4,64.4,291.4,64.5,291.4z"/>
		<path class="st12" d="M63.8,291.6c-0.1,0-0.1,0-0.2,0c-0.1,0-0.1,0-0.1-0.1c0-0.1,0-0.1,0.1-0.1c0.1,0,0.3,0,0.4,0
			c0.1,0,0.1,0,0.1,0.1c0,0.1,0,0.1-0.1,0.1C64,291.6,63.9,291.6,63.8,291.6z"/>
		<path class="st12" d="M63.1,291.4c0.1,0,0.1,0,0.2,0c0.1,0,0.2,0,0.1,0.2c0,0,0,0-0.1,0c-0.1,0-0.3,0-0.4,0
			c-0.1,0-0.1-0.1-0.1-0.1c0,0,0-0.1,0.1-0.1C63,291.4,63.1,291.4,63.1,291.4z"/>
		<path class="st13" d="M62.5,291.6c-0.1,0-0.2,0-0.2,0c-0.1,0-0.1,0-0.1-0.1c0,0,0-0.1,0.1-0.1c0.2,0,0.3,0,0.5,0
			c0.1,0,0,0.1,0.1,0.1c0,0,0,0.1-0.1,0.1C62.6,291.6,62.5,291.6,62.5,291.6z"/>
		<path class="st13" d="M61.8,291.6c-0.1,0-0.1,0-0.2,0c-0.1,0-0.1-0.1-0.1-0.2c0,0,0,0,0,0c0.2,0,0.3,0,0.5,0c0.1,0,0,0.1,0.1,0.1
			c0,0,0,0.1-0.1,0.1C61.9,291.6,61.9,291.6,61.8,291.6z"/>
		<path class="st13" d="M61.1,291.6c-0.1,0-0.1,0-0.2,0c-0.1,0-0.1-0.1-0.1-0.2c0,0,0,0,0,0c0.2,0,0.3,0,0.5,0c0.1,0,0,0.1,0.1,0.1
			c0,0,0,0.1-0.1,0.1C61.3,291.6,61.2,291.6,61.1,291.6z"/>
		<path class="st14" d="M66.3,290.1c0,0.1,0.1,0.2,0.1,0.3c0.1,0.2,0.4,0.2,0.5,0c0.1-0.1,0.1-0.2,0.1-0.3c0,0.2-0.1,0.5-0.3,0.6
			c0,0,0,0-0.1,0C66.4,290.6,66.2,290.3,66.3,290.1z"/>
		<path class="st15" d="M62,290.1c0,0.1,0.1,0.2,0.1,0.3c0.1,0.1,0.3,0.1,0.4,0c0.1-0.1,0.1-0.2,0.1-0.3c0,0.2-0.1,0.5-0.3,0.6
			c0,0-0.1,0-0.1,0C62.1,290.6,62,290.3,62,290.1z"/>
		<path class="st15" d="M64.9,290.2c0,0.1,0.1,0.1,0.1,0.2c0.1,0.2,0.4,0.2,0.5,0c0.1-0.1,0.1-0.2,0.1-0.3c0.1,0.2-0.1,0.5-0.3,0.6
			c-0.1,0-0.1,0-0.2,0C65,290.6,64.8,290.3,64.9,290.2z"/>
		<path class="st14" d="M63.5,290.1c0,0.1,0.1,0.2,0.2,0.3c0.1,0.1,0.2,0.1,0.3,0c0.1-0.1,0.1-0.2,0.2-0.3c0.1,0.2-0.1,0.5-0.3,0.5
			c-0.1,0-0.1,0-0.2-0.1C63.5,290.5,63.4,290.3,63.5,290.1z"/>
		<path class="st16" d="M73.3,291.6c-0.2-0.3-0.4-0.6-0.4-1c0,0,0-0.1,0-0.1c0,0.1,0,0.1,0,0.2C73,291,73.1,291.3,73.3,291.6
			C73.3,291.6,73.3,291.6,73.3,291.6z"/>
		<path class="st16" d="M74.6,292.3c-0.4,0-0.7-0.2-1-0.4c0,0,0,0,0,0c0.3,0.2,0.6,0.3,0.9,0.4C74.6,292.3,74.6,292.3,74.6,292.3
			C74.7,292.3,74.6,292.3,74.6,292.3z"/>
		<path class="st17" d="M72.9,290.2c0-0.4,0.2-0.7,0.4-1c0,0,0,0,0,0c-0.2,0.3-0.3,0.5-0.4,0.8C72.9,290.2,73,290.3,72.9,290.2
			C72.9,290.3,72.9,290.3,72.9,290.2z"/>
		<path class="st18" d="M76.3,289.3c0.2,0.3,0.3,0.6,0.4,0.9c0,0,0,0,0,0.1c0-0.1,0-0.2,0-0.3C76.5,289.7,76.4,289.5,76.3,289.3
			C76.3,289.3,76.3,289.3,76.3,289.3z"/>
		<path class="st18" d="M75,288.5c0.3,0,0.7,0.2,0.9,0.4c0,0,0,0,0,0C75.6,288.7,75.3,288.6,75,288.5C75,288.6,75,288.6,75,288.5
			C75,288.6,75,288.6,75,288.5z"/>
		<path class="st19" d="M76,291.9c-0.2,0.2-0.5,0.3-0.8,0.4c0,0,0,0,0,0c0.2,0,0.3-0.1,0.5-0.1C75.7,292.1,75.8,292,76,291.9
			C75.9,291.9,76,291.9,76,291.9z"/>
		<path class="st20" d="M76.7,290.8c-0.1,0.3-0.2,0.6-0.4,0.8c0,0,0,0,0,0C76.5,291.3,76.6,291.1,76.7,290.8
			C76.6,290.8,76.7,290.8,76.7,290.8z"/>
		<path class="st21" d="M73.6,289c0.2-0.2,0.4-0.3,0.7-0.4c0,0,0,0,0,0C74,288.7,73.8,288.8,73.6,289C73.6,289,73.6,289,73.6,289z"
			/>
		<path class="st22" d="M68.7,290.3c0-0.1,0-0.2,0-0.2c0,0,0-0.1,0-0.1C68.7,290.1,68.7,290.2,68.7,290.3
			C68.7,290.3,68.7,290.3,68.7,290.3z"/>
		<path class="st23" d="M68.7,290.8c0-0.1,0-0.2,0-0.3c0,0,0,0,0,0C68.7,290.6,68.7,290.7,68.7,290.8z"/>
		<path class="st24" d="M70,288.9c0.1-0.1,0.2,0,0.2-0.1c0,0,0,0,0,0C70.1,288.8,70,288.8,70,288.9z"/>
		<path class="st25" d="M69.1,291.5C69.1,291.5,69,291.4,69.1,291.5C69.1,291.4,69.1,291.5,69.1,291.5
			C69.1,291.5,69.1,291.5,69.1,291.5z"/>
		<path class="st26" d="M69.3,291.7C69.3,291.7,69.3,291.7,69.3,291.7C69.3,291.7,69.3,291.6,69.3,291.7
			C69.3,291.7,69.3,291.7,69.3,291.7z"/>
		<path class="st4" d="M70.3,305.3c0.8,0,1.6,0,2.4,0c0.1,0,0.1,0,0.1,0.1c-0.2,0.9-0.5,1.7-0.9,2.5c-0.4,0.8-1,1.5-1.7,2.1
			c-0.5,0.5-1.1,0.9-1.7,1.2c-0.7,0.4-1.4,0.6-2.1,0.8c-0.4,0.1-0.7,0.1-1.1,0.2c-0.4,0-0.7,0-1.1,0c-0.7,0-1.4-0.1-2.1-0.3
			c-0.5-0.2-1.1-0.4-1.5-0.6c-0.6-0.3-1.1-0.7-1.6-1.1c-0.6-0.5-1.2-1.1-1.6-1.8c-0.6-0.9-0.9-1.8-1.2-2.8c-0.1-0.3-0.1-0.6-0.1-1
			c0-0.4,0-0.8,0-1.1c0-0.7,0.1-1.4,0.3-2c0.2-0.8,0.6-1.6,1.1-2.3c0.3-0.4,0.6-0.8,0.9-1.1c0.5-0.6,1.2-1.1,1.8-1.5
			c0.8-0.4,1.6-0.8,2.4-1c0.3-0.1,0.7-0.1,1-0.2c0.3,0,0.7-0.1,1,0c0.8,0,1.7,0.2,2.5,0.4c1,0.3,1.9,0.8,2.7,1.5
			c1,0.8,1.8,1.8,2.3,3c0.3,0.6,0.5,1.2,0.6,1.8c0,0.1,0,0.1-0.1,0.1c-0.6,0-1.2,0-1.7,0c-0.2,0-0.4,0-0.6,0c-0.1,0-0.1,0-0.1-0.1
			c-0.2-0.6-0.4-1.1-0.8-1.6c-0.6-0.9-1.4-1.6-2.4-2c-0.5-0.3-1.1-0.4-1.7-0.5c-0.4-0.1-0.8-0.1-1.2-0.1c-0.7,0-1.4,0.2-2,0.5
			c-0.5,0.2-1,0.5-1.4,0.9c-0.8,0.7-1.4,1.5-1.8,2.5c-0.1,0.4-0.3,0.8-0.3,1.2c0,0.2,0,0.4-0.1,0.6c0,0.2,0,0.5,0,0.7
			c0,0.4,0.1,0.7,0.2,1.1c0.1,0.1,0.1,0.1,0.1,0.2c0.2,0.6,0.5,1.2,0.9,1.8c0.2,0.3,0.4,0.5,0.6,0.8c0.4,0.4,0.8,0.7,1.3,1
			c0.6,0.3,1.2,0.5,1.9,0.7c0.5,0.1,0.9,0.1,1.4,0.1c1.3-0.1,2.4-0.6,3.4-1.4c0.6-0.5,1.1-1.1,1.4-1.8
			C70,306.2,70.2,305.8,70.3,305.3C70.3,305.3,70.3,305.3,70.3,305.3z"/>
		<path class="st27" d="M70.3,305.3c-0.1,0.4-0.2,0.8-0.4,1.1c-0.2,0.4-0.4,0.8-0.7,1.1c-0.4,0.5-0.9,0.9-1.4,1.3
			c-0.7,0.4-1.4,0.7-2.2,0.8c-0.5,0.1-1,0.1-1.4,0.1c-0.9-0.1-1.7-0.3-2.5-0.8c-0.5-0.3-0.9-0.6-1.3-1c-0.4-0.4-0.8-0.9-1-1.4
			c-0.2-0.4-0.4-0.8-0.5-1.3c0,0,0,0,0-0.1c0.5,0,0.9-0.3,1.2-0.7c0.3,0.5,0.7,0.7,1.2,0.7c0.6,0,1-0.2,1.3-0.7
			c0.3,0.5,0.6,0.7,1.2,0.7c0.5,0,0.9-0.3,1.2-0.7c0.3,0.5,0.7,0.7,1.3,0.7c0.6,0,1-0.2,1.2-0.7c0.1,0.1,0.1,0.2,0.2,0.2
			c0.2,0.3,0.5,0.4,0.8,0.5c0.1,0,0.3,0,0.4-0.1c0.2-0.1,0.3-0.2,0.5-0.4c0,0,0-0.1,0.1,0C69.5,305.1,69.9,305.3,70.3,305.3z"/>
		<path class="st4" d="M73.1,303.7c0,0.4,0,0.9,0,1.3c0,0.1,0,0.1-0.1,0.1c-0.8,0-1.7,0-2.5,0c-0.3,0-0.6,0-0.9-0.2
			c-0.4-0.2-0.6-0.6-0.6-1c0-0.3,0-0.6,0.2-0.9c0.2-0.4,0.6-0.7,1.1-0.7c0.9-0.1,1.9,0,2.8,0c0.1,0,0.1,0,0.1,0.1
			C73.1,302.8,73.1,303.2,73.1,303.7z"/>
		<path class="st27" d="M67.8,301.6c0,0.2-0.2,0.4-0.4,0.4c-0.2,0-0.4-0.2-0.4-0.4c0-0.2,0.2-0.4,0.4-0.4
			C67.6,301.2,67.8,301.4,67.8,301.6z"/>
		<path class="st27" d="M66.2,303.3c0.2,0,0.3,0.1,0.3,0.3c0,0.2-0.2,0.3-0.3,0.3c-0.2,0-0.3-0.2-0.3-0.3
			C65.8,303.4,66,303.3,66.2,303.3z"/>
		<path class="st27" d="M61.9,303.4c-0.2,0-0.3-0.1-0.3-0.3c0-0.2,0.1-0.3,0.3-0.3c0.2,0,0.3,0.1,0.3,0.3
			C62.2,303.3,62.1,303.4,61.9,303.4z"/>
		<path class="st28" d="M62.6,301.7c-0.1,0-0.2-0.1-0.2-0.2c0-0.1,0.1-0.2,0.3-0.2c0.1,0,0.2,0.1,0.2,0.2
			C62.8,301.6,62.7,301.7,62.6,301.7z"/>
		<path class="st28" d="M64.6,300.3c0,0.1-0.1,0.2-0.2,0.2c-0.1,0-0.2-0.1-0.2-0.2c0-0.1,0.1-0.2,0.2-0.2
			C64.5,300.1,64.6,300.2,64.6,300.3z"/>
		<path class="st28" d="M63.7,304c0-0.1,0.1-0.2,0.2-0.2c0.1,0,0.2,0.1,0.2,0.2c0,0.1-0.1,0.2-0.2,0.2
			C63.8,304.2,63.7,304.1,63.7,304z"/>
		<path class="st28" d="M65.2,301.8c0-0.1,0.1-0.2,0.2-0.2c0.1,0,0.2,0.1,0.2,0.2c0,0.1-0.1,0.2-0.2,0.2
			C65.3,302,65.2,301.9,65.2,301.8z"/>
		<path class="st29" d="M74.8,292c-0.9,0-1.6-0.7-1.6-1.6c0-0.8,0.7-1.6,1.6-1.6c0.9,0,1.6,0.7,1.6,1.6
			C76.4,291.3,75.7,292,74.8,292z"/>
		<path class="st29" d="M69,290.4c0-0.7,0.6-1.4,1.3-1.3c0.7,0,1.4,0.6,1.3,1.4c0,0.7-0.6,1.3-1.3,1.3C69.6,291.8,69,291.1,69,290.4
			z"/>
		<path class="st30" d="M69.5,289c0.1-0.1,0.1-0.1,0.2-0.1C69.6,289,69.6,289,69.5,289z"/>
		<path class="st31" d="M69.9,292c-0.1,0-0.2,0-0.2-0.1C69.7,291.9,69.8,291.9,69.9,292C69.9,292,69.9,292,69.9,292
			C69.9,292,69.9,292,69.9,292z"/>
		<path class="st32" d="M69.9,292C69.9,292,69.9,292,69.9,292c0.1,0,0.1,0,0.2,0C70,292,69.9,292,69.9,292z"/>
		<path class="st33" d="M68.9,291.1c0,0-0.1-0.1-0.1-0.1C68.8,291,68.9,291.1,68.9,291.1z"/>
		<path class="st34" d="M68.9,291.3c0,0-0.1-0.1-0.1-0.1C68.9,291.2,68.9,291.2,68.9,291.3z"/>
		<path class="st35" d="M68.9,289.6c0,0,0-0.1,0.1-0.1C69,289.6,68.9,289.6,68.9,289.6z"/>
		<path class="st22" d="M68.8,290c0,0,0-0.1,0-0.1C68.8,289.9,68.8,289.9,68.8,290z"/>
		<path class="st36" d="M69,289.5C69,289.4,69,289.4,69,289.5C69.1,289.4,69.1,289.4,69,289.5z"/>
		<path class="st37" d="M69.3,289.2C69.3,289.1,69.3,289.1,69.3,289.2C69.3,289.2,69.3,289.2,69.3,289.2z"/>
		<path class="st34" d="M68.8,289.9c0,0,0-0.1,0-0.1C68.8,289.8,68.8,289.8,68.8,289.9z"/>
		<path class="st2" d="M70.1,292c0,0-0.1,0-0.1,0C70.1,292,70.1,292,70.1,292z"/>
		<path class="st38" d="M69.8,288.9C69.9,288.9,69.9,288.8,69.8,288.9C69.9,288.9,69.9,288.9,69.8,288.9z"/>
	</g>
</g>
<linearGradient id="SVGID_1_" gradientUnits="userSpaceOnUse" x1="298.84" y1="275.32" x2="463.62" y2="275.32" gradientTransform="matrix(1 0 0 -1 0 520)">
	<stop  offset="0" style="stop-color:#96CBFF"/>
	<stop  offset="1" style="stop-color:#5599FF"/>
</linearGradient>
<path class="st39" d="M446.1,270.8c2.4-6,4-12.4,4.7-18.8l12.9-4.6l-2.2-14.7l-2.2-14.7l-13.6-0.7c-2.5-6-5.9-11.6-10-16.6l5.8-12.4
	l-11.9-8.8l-11.9-8.8l-10.1,9.2c-6-2.4-12.4-4-18.8-4.7l-4.6-12.9l-14.7,2.2l-14.7,2.2l-0.7,13.6c-6,2.5-11.6,5.9-16.6,10l-12.4-5.8
	l-8.8,11.9l-8.8,11.9l9.2,10.1c-2.4,6-4,12.4-4.7,18.8l-12.8,4.6l2.2,14.7l2.2,14.7l13.6,0.7c2.5,6,5.9,11.6,10,16.6l-5.8,12.4
	l11.9,8.8l12,8.8l10.1-9.2c6,2.4,12.4,4,18.8,4.7l4.6,12.9l14.7-2.2l14.7-2.2l0.7-13.6c6-2.5,11.6-5.9,16.6-10l12.4,5.8l8.8-11.9
	l8.8-11.9L446.1,270.8z M359.6,273.9c-16.2-12-19.6-34.7-7.6-50.9s34.7-19.6,50.9-7.6c16.2,12,19.6,34.7,7.6,50.9
	C398.6,282.5,375.8,285.9,359.6,273.9C359.6,273.9,359.6,273.9,359.6,273.9L359.6,273.9z"/>
<path class="st40" d="M343.2,359.6c0,0,0.3-1.5,2.6-1.5c3.1,0,3.4,4.5,2.9,7.2c-0.7,3.7-2,5.2,0.5,14.7c0,0-5.6-11.8-4.7-15.3
	C345.1,362.1,343.2,359.6,343.2,359.6z"/>
<path class="st41" d="M325.6,389.3c0,0-1.3-0.7-1.3-1.4c0-0.7-0.2-1.4-0.4-2c-0.2-0.4-0.2-1.9-0.7-1.6s0,2.4,0,2.9s-1.6-0.8-2-0.8
	s-2.4,3-1.2,3.7c1,0.5,2,0.8,3.1,0.9l1.1,0.4L325.6,389.3z"/>
<path class="st41" d="M321.4,386.4c0,0-3.8-2.1-4.2-2s-0.5,0.3-0.1,0.5l3.6,2.1c0,0-4.9-1.6-5.2-1.6s-0.4,0.4-0.2,0.6s4.9,2,4.9,2
	s-4.6-1.5-4.8-1.4c-0.2,0.1-0.3,0.3-0.2,0.5c0,0.1,0.1,0.1,0.2,0.2l4.5,1.8c0,0-3.4-0.9-3.6-0.7s-0.3,0.5,0.6,0.7s2.9,0.9,2.9,0.9
	L321.4,386.4z"/>
<path class="st41" d="M337.1,392.1c0,0-6.2-1.4-7.4-1.7c-1.4-0.4-4.1-1.1-4.1-1.1l-1.5,2.1c0,0,8,4.1,9.5,4.7s5.1,1.9,5.1,1.9
	L337.1,392.1z"/>
<path class="st42" d="M310.1,417.9c0,0-1.8,7.7-1.9,9.2s-5.3,21.7-5.7,22.7s2,1.9,2.6,1.2s5.9-11.9,7-14s4.1-6.9,4.2-11.8
	S310.1,417.9,310.1,417.9z"/>
<path class="st41" d="M308.8,420.2c0,0,2.8,7.4,3.6,8.7s7.7,20.9,8,22s2.6,0.4,2.8-0.6s-1.8-13-2-15.4s-0.6-8.6-3.2-12.7
	S308.8,420.2,308.8,420.2z"/>
<path class="st43" d="M323.4,450.4c0,0-3.1-0.7-3.2-0.8s-0.1-0.3-0.5-0.1s-0.6,0.9-1,1.1s-2.9,1.1-4.3,1.9c-0.5,0.3-2.6,1.2-2.9,1.9
	s-0.1,1.7,3.5,1.3s7.7-0.1,8.5-0.5S323.6,451.4,323.4,450.4z"/>
<path class="st43" d="M305.4,451.1c0,0-2.9-1.4-3-1.5s-0.1-0.3-0.5-0.2s-0.7,0.7-1.2,0.8s-3.1,0.5-4.6,0.9c-0.5,0.2-2.8,0.6-3.2,1.2
	s-0.5,1.6,3.2,2s7.6,1.5,8.4,1.3S305.4,452.2,305.4,451.1z"/>
<path class="st43" d="M335.4,407.1c0,0-24.4,5.4-26.5,13.1c2.9-0.7,6-0.3,8.7,1.2c0,0,11.4,0.1,22.7,0c1.4,0,11.3-2.8,9.8-11.2
	S335.4,407.1,335.4,407.1z"/>
<path class="st44" d="M339.5,373.2c0.4,0.4,0.7,0.8,1,1.3c0.3,0.5,0.5,1,0.7,1.5c0.3,0.7,0.5,1.3,0.6,2c0,0,5.8-3,4.4-4.2
	s-2-5.6-2-5.6S338.3,372.1,339.5,373.2z"/>
<path class="st41" d="M332.8,362.4c0,0-1.2,1.8,0.6,5.5c0,0,0.5,3.2,0.2,3.9s1.5,0.4,1.8,0.7c0.7,1.2,1.6,2.1,2.7,2.9
	c1.5,0.8,6.7-4.3,6.5-6.2s1.7-11.2-5-9.7S332.8,362.4,332.8,362.4z"/>
<path class="st40" d="M332.8,366.5c0,0-3-7.9,5.3-8.7s6.7,9.3,6.5,12.5c0,0-1.1-4.5-5-3.6C337.4,367.4,335,367.3,332.8,366.5z"/>
<path class="st41" d="M339.9,365.4c0.2-0.6,0.9-0.8,1.5-0.6c0.4,0.2,0.6,0.5,0.7,0.9c0.2,1.3-0.8,2.9-1.4,2.5
	C339.8,367.5,339.5,366.4,339.9,365.4z"/>
<path class="st45" d="M340.5,374.5c0.3,0.5,0.5,1,0.7,1.5c1.8-1.5,2.5-4.8,2.5-4.8C342.8,372.5,341.7,373.6,340.5,374.5L340.5,374.5
	z"/>
<path class="st46" d="M341,377.1c0,0-5.1,5.8-5.7,6.3s-2.6,4.6,0,7.1c0.1,1.2,0.3,2.5,0.7,3.7c0.5,1,0.1,11.4-0.6,12.6
	s9.7,5.2,14.7,3.6c0,0-1.4-6.7-1.9-10.1s1.6-13.3,1.6-16s-1.8-9.5-3.6-10.2S341,377.1,341,377.1z"/>
<rect x="314.1" y="409.7" transform="matrix(0.9487 -0.3163 0.3163 0.9487 -113.1507 123.5002)" class="st47" width="19.4" height="1.2"/>
<rect x="306.9" y="397.9" transform="matrix(0.6011 -0.7992 0.7992 0.6011 -203.0809 408.2962)" class="st47" width="1.2" height="19.4"/>
<path class="st41" d="M319.5,411.2c-0.1-0.4-0.2-1,1-1.9s3.8-3.3,4.8-3.5c0.7,0,1.4,0,2.1,0.2c0.4-0.1,0.9,2.3,0.9,2.3L319.5,411.2z
	"/>
<path class="st41" d="M327.4,405.9c0,0,5.2-2.1,6.1-2.6s5.2-1.9,5.5-2.1s2.3-10.2,2.5-12.9s0.3-8.1,3.2-7.9s3.6,2.2,3.3,6
	s-2.5,17.4-3.5,17.9s-11.8,2.6-17,4.2S327.4,405.9,327.4,405.9z"/>
<path class="st46" d="M343.5,360c0.7,1.2,1.1,2.6,1.1,3.9C344.6,363.9,345.8,361.4,343.5,360z"/>
<path class="st48" d="M464.7,259.5h97c3.5,0,6.3,2.8,6.3,6.3v130.9c0,3.5-2.8,6.3-6.3,6.3h-97c-3.5,0-6.3-2.8-6.3-6.3V265.8
	C458.4,262.3,461.2,259.5,464.7,259.5z"/>
<path class="st49" d="M463.5,269.5h60.7c2.9,0,5.2,2.3,5.2,5.2v34.6c0,2.9-2.3,5.2-5.2,5.2h-60.7c-2.9,0-5.2-2.3-5.2-5.2v-34.6
	C458.3,271.9,460.6,269.5,463.5,269.5z"/>
<path class="st50" d="M90.7,189.2c0,0,78.7-29.6,104.2,16.7c20.4,37.1-13.7,40.7-13.7,40.7s-3.3,20.2-39.5-29.8
	C124.6,193.2,90.7,189.2,90.7,189.2z"/>
<path class="st51" d="M83.7,63.1c0,0,68.1-17.5,108.1,69.8s79.4,96,79.4,96S118,248.6,83.7,63.1z"/>
<path class="st52" d="M243,232.3c-7.3,28-69.3-29.8-73.3-79s10.5-84.5-0.8-116.5C168.9,36.8,278.8,94.5,243,232.3z"/>
<linearGradient id="SVGID_2_" gradientUnits="userSpaceOnUse" x1="199" y1="355.96" x2="339" y2="355.96" gradientTransform="matrix(1 0 0 -1 0 520)">
	<stop  offset="0" style="stop-color:#96CBFF"/>
	<stop  offset="1" style="stop-color:#5599FF"/>
</linearGradient>
<path class="st53" d="M327.5,149.6c-1.3-5.4-3.4-10.7-6.2-15.5l6.6-9.7l-8.9-9.1l-8.9-9.1l-9.9,6.4c-4.8-2.9-10-5.1-15.4-6.6
	l-2.2-11.6l-12.8-0.1L257,94.1l-2.4,11.5c-5.4,1.3-10.6,3.4-15.5,6.2l-9.7-6.6l-9.1,8.9l-9.2,8.9l6.4,9.9c-2.9,4.8-5.1,10-6.6,15.4
	l-11.6,2.2l-0.1,12.8L199,176l11.5,2.4c1.3,5.4,3.4,10.7,6.2,15.5l-6.6,9.7l8.9,9.1l9,9.2l9.9-6.4c4.8,2.9,10,5.1,15.4,6.6l2.2,11.6
	l12.8,0.1L281,234l2.5-11.5c5.4-1.3,10.7-3.4,15.5-6.2l9.7,6.6l9.1-8.9l9.2-9l-6.4-9.9c2.9-4.8,5.1-10,6.6-15.4l11.5-2.2l0.1-12.8
	L339,152L327.5,149.6z M268.7,195.4c-17.3-0.2-31.2-14.4-31-31.7c0.2-17.3,14.4-31.2,31.7-31c17.3,0.2,31.2,14.4,31,31.7
	C300.2,181.7,286,195.6,268.7,195.4C268.7,195.4,268.7,195.4,268.7,195.4L268.7,195.4z"/>
<path class="st41" d="M135.6,202.6c0,0,1-1.7-0.6-6.2c-0.7-2.4-3.2-3.8-5.6-3.1c-1.1,0.3-2,1-2.6,1.9c-1.6,2.8-1.1,4.5,1.3,7.6
	C130.6,206.1,134.6,204.1,135.6,202.6z"/>
<path class="st41" d="M123.8,279.8c0,0-0.2,1.8-0.3,2.1s-2.8-0.2-2.8-0.2l-0.2-2.2C121.6,279.6,122.7,279.6,123.8,279.8z"/>
<path class="st54" d="M123.5,281.7c0.5,0.6,1.1,1.2,1.7,1.6c0.8,0.5,2.2,0.7,2.7,1.2s1.3,1.9-2.2,1.9s-5.2,0.2-5.6-0.4
	s0.5-4.4,0.5-4.4C121.6,281.8,122.6,281.8,123.5,281.7z"/>
<path class="st41" d="M142.9,279.8c0,0-0.2,1.8-0.3,2.1s-2.8-0.2-2.8-0.2l-0.2-2.2C140.7,279.6,141.9,279.6,142.9,279.8z"/>
<path class="st54" d="M142.7,281.7c0.5,0.6,1.1,1.2,1.7,1.6c0.9,0.5,4,0.9,4.5,1.4s1,1.8-4,1.7c-3.5-0.1-5.2,0.2-5.6-0.4
	s0.6-4.4,0.6-4.4C140.8,281.7,141.7,281.8,142.7,281.7z"/>
<path class="st55" d="M124.7,233.9c-0.8,2.7-1.2,5.4-1.2,8.2c0.2,3.8-0.7,8-1.1,11.9c-0.4,4.4-2.1,14.9-2.2,17.3s0.3,9.9,0.3,9.9
	l3.4,0.1c0,0,2.9-18.3,3.6-20.2c0.7-1.9,4.5-15.1,4.6-16.7S124.7,233.9,124.7,233.9z"/>
<path class="st55" d="M139,233.5c0,0,2.1,11.6,2.3,14s0.4,11.2,0.5,12.7s0.8,19,1.5,21.2h-3.9c0,0-3.9-12.8-3.9-18.8
	s-2.6-13.1-4.3-17.1s-5.5-4.1-6.6-11.5C124.7,233.9,137.6,231.1,139,233.5z"/>
<path class="st41" d="M134.2,203.8c-0.2,0.7-0.2,1.5,0,2.1c0.4,0.9-5.5,0.4-5.5,0.4c0.1-1.2,0-2.3-0.5-3.4
	C127.4,201.4,134.2,203.8,134.2,203.8z"/>
<path class="st55" d="M124.4,234.9c0,0,2.1,2.2,14.7-0.3l-0.2-1.1l-14.3,0.5L124.4,234.9z"/>
<path class="st41" d="M135.1,206.2c0,0,2.2,0.2,2.8,0.3s4.9-0.8,5.7-0.9s4.6-2.6,4.7-2.9c0.9-2.2,1.7-4.5,2.4-6.9
	c0.1-1.2,2.1-0.6,1.9,0.2c-0.3,1.5-0.7,5.1-0.9,6.2s-0.9,3.7-1.2,4c-2.1,1.7-4.4,3-6.9,3.9c-2,0.7-3.9,1.6-5.7,2.7h-16.1
	c0,0-6.2-8.9-6.4-10.3s4.4-10.3,5.3-11.4s2.2,0.4,2.2,0.4s-2.7,7.9-3,9s3.1,6,4.1,6.1s3.4-0.3,4.5-0.3c0.8-0.1,1.5-0.2,2.2-0.5
	L135.1,206.2z"/>
<path class="st56" d="M142,212.2c-1.2,0.8-2,2.1-2.1,3.6c-0.2,2.4-0.7,4.7-1.3,7c-0.4,1.2,0.3,10,0.4,10.6s-12.4,2.1-14.3,0.6
	c0,0-0.5-8.2-0.8-10.5c-0.3-3-0.9-5.9-1.7-8.8c-0.4-0.8-4.7-6.9-4.9-7.7c0,0,2.2-3.6,3.9-3.6c0,0,2.6,3,3.4,3.1c2-0.1,4-0.4,6-0.8
	c0,0,0.6,0.8,3.5-0.1l4.1,0.5c0.7,0.1,5.6-0.6,5.6-0.6s1.9,3.3,1.6,4.9L142,212.2z"/>
<path class="st41" d="M150.6,196.7c0,0,0.4-2.1-0.1-2.7c-0.3-0.3-1-1.2-1.1-1.4s-0.8-0.6-0.8-0.8s0.8-0.5,1.4,0.1s1.1,0.7,1.3,0.7
	s0.6-2.3,0.7-2.8s0.2-2,0.6-1.9s0.3,0.7,0.3,0.7s0.4-1.1,0.7-0.9s0.2,0.7,0.2,0.7s0.5-0.6,0.6-0.2c0.1,0.3,0.1,0.6,0,0.8
	c0,0,0.5-0.3,0.5,0.4c0,1.2-0.1,2.3-0.5,3.4c-0.7,1.1-1.3,2.2-1.9,3.4C152.4,197.2,150.6,196.7,150.6,196.7z"/>
<path class="st41" d="M122.3,193c0,0,1.5-2.5,2-2.7c0.6-0.2,1.3-0.5,1.8-0.8c0.6-0.4,1.5-0.8,1.4-1s-0.8-0.1-1.6,0.2s-1.1,0.2-1.2,0
	c0.1-0.6,0.3-1.2,0.7-1.8c0.2-0.3,1.9-2,1.7-2.3s-1.4,0.7-1.6,0.9c0,0,0.9-1.9,0.5-1.9s-1,0.6-1,0.6s0.1-1.6-1.6,1
	c0,0,0.4-0.9-0.2-0.6s-1,1.9-1.2,2.7s-0.9,3.4-1.6,4S122.3,193,122.3,193z"/>
<path class="st57" d="M128.2,202.9c0.8,0,1.7-0.2,2.5-0.5c1.7-0.6,1.8-3.5,2.2-3.2c0.4,0.4,1.1,0.5,1.5,0.1c0.1-0.1,0.2-0.2,0.2-0.3
	c0,0-0.8-1.1-0.4-1.6c0.3-0.4,0.6-0.7,1-0.9c0,0-1.2-5.7-6.5-3.1C122.3,196.5,128.2,202.9,128.2,202.9z"/>
<path class="st56" d="M134.2,206l-0.2-0.8c-1.8,0-3.5,0-5.3,0.2l-0.2,1C130.4,207,132.4,206.9,134.2,206z"/>
<path class="st41" d="M133.4,198.6c-0.3-0.5-1.5-0.9-1.6,0.6c-0.1,1.1,2.1,2.4,2.1,1.3C133.9,199.8,133.7,199.1,133.4,198.6z"/>
<path class="st58" d="M150.7,196.2c0.7,0,1.3,0.2,1.8,0.6c0,0.2,0,0.4-0.1,0.6c-0.6-0.3-1.2-0.5-1.9-0.6
	C150.5,196.8,150.5,196.3,150.7,196.2z"/>
<ellipse transform="matrix(0.9213 -0.389 0.389 0.9213 -64.5684 74.4764)" class="st57" cx="151.7" cy="196.7" rx="0.5" ry="0.5"/>
<polygon class="st59" points="117,286.9 150.6,286.9 140,319.4 141,319.7 152,285.9 116.3,285.9 105.4,319.4 106.3,319.7 "/>
<polygon class="st59" points="128.4,319.4 117.9,286.9 151.4,286.9 162.1,319.7 163.1,319.4 152.1,285.9 116.4,285.9 127.4,319.7 
	"/>
<rect x="113.9" y="296.1" class="st59" width="41" height="1"/>
<rect x="109.7" y="307.4" class="st59" width="49.1" height="1"/>
<path class="st60" d="M298.4,220.8c0.8-10.7,1.3-20.7,1.7-30c-2.6-1.4-5.7-3-8.2-4.1c-7.7-3.7-18.4-8.6-25.3-11.7
	c-4-1.9-8-3.2-8-3.2s-27.4-2.7-29.6-2.5c-2.9,0.8-5.8,1.8-8.6,3c-9.7,3.7-28.5,11.2-31.5,13.4c-4.4,3.1-20.1,80-20.5,85.2
	s21.3,12,41.5,17.3c0,7.8-0.2,18.7-0.4,28.7c0,1.7-0.1,3.4-0.1,5h88.1c-0.1-1.7-0.2-3.4-0.3-5c0-0.2,0-0.4,0-0.6
	c-0.3-6.8-1.6-18.8-1.3-30.6c0,0-0.2-12.4,1-17.8C297,244.1,298.4,220.8,298.4,220.8z M186.7,266c0.1-10,13.5-28.6,13.5-28.6
	c0.2-0.1,0.4-0.2,0.6-0.2c0,0,0.7-0.1,0.7-0.1s2.1-2,2.1-2c0.5,1.8,4.9,26.9,6,41.6C197,274.2,186.6,270.7,186.7,266z"/>
<path class="st55" d="M300,316.7c-0.6-4.2-1.1-8.3-1.6-12.4c0,0,0,0,0-0.1c-0.2-1.4-0.3-2.7-0.5-4c0-0.1,0-0.1,0-0.2
	c-0.6-5.6-1.2-11-1.6-16c-0.2-3.7-0.1-7.4,0.5-11.1c1.5-25.2,2.3-51.9,2.3-51.9c0.8-10.9,1.3-21.1,1.6-30.6c0,0-34.5-16.3-37.6-17.2
	c0,0,6.5,15.4,11.4,49.7c1.9,13.2,5.4,35.4,7.9,58l0,0c1.4,12.2,4,24.7,5.9,35.7c0.3,1.7,0.6,3.4,0.9,5h11.5
	C300.5,320.1,300.2,318.4,300,316.7z"/>
<path class="st55" d="M242.6,276.2c1.4-12.8,2.6-25.5,2-32.5c-4.8-56.1-18.2-71-20.2-73.1c-1.5,0.6-7.2,2.7-8.9,3.4
	c-9.2,3.6-28,10.3-30.5,12.1c-4.4,3.1-21.7,83.7-22.2,89c-0.4,3.5,22.2,10.9,45.2,17.5c-0.2,6.3-1.7,15-3.8,24.2
	c-0.4,1.6-0.8,3.3-1.2,5h34.3c0.2-1.7,0.4-3.3,0.6-5c0.6-5,1.2-10.1,1.9-15.6c9.6,2.5,16.2,4.1,16.2,4.1s9-15.3,11.7-21.5
	C268.2,282.7,256.5,279.9,242.6,276.2z M197.3,256.7c-0.3-6.6,1-13.2,3.6-19.3c1.1,3.9,2.7,15.2,4.1,26.4
	C200.3,261.4,197.4,259,197.3,256.7z"/>
<path class="st44" d="M227.5,170c0,0,3.5-6.6,2.5-25.3c-0.3-5.2,27.3,12.3,27.3,12.3s-0.1,1.8-0.1,4.2c0,1,0,2.1,0,3.2
	c0,0.3,0,0.6,0,0.9c0,0.5,0,1,0,1.5s0,1.2,0.1,1.8s0.1,1.3,0.1,1.9c0.2,1.3,0.5,2.5,1,3.7C259.6,177.2,237.8,177.4,227.5,170z"/>
<path class="st61" d="M250.6,182l5.1,6.8c0,0-3,4-8.2,1L250.6,182z"/>
<path class="st61" d="M254.3,189.1c0,0,18.6,45.4,14.6,103.1l-5.9,10.6l-6.6-9.1c0,0-1.1-76.6-6.3-104.8L254.3,189.1z"/>
<path class="st44" d="M256,175.6l-5.4,6.4c0,0-8.7-1.7-11.3-6.2S256,175.6,256,175.6z"/>
<path class="st62" d="M257.3,170c0,0-0.6,4.8-6.7,11.9l6.6,8.9l3.6-18.4L257.3,170z"/>
<path class="st62" d="M229.2,164.2c0,0,12.6,14.3,21.4,17.8l-4.1,10.1l-20.1-22.2L229.2,164.2z"/>
<path class="st55" d="M358.8,293.2c0,0-16.7-16.2-27.7-18.9c-5.1-1.3-11.8-8.3-18.1-16.5c-2.1-2.7-4.1-5.6-6.1-8.4l0,0
	c-7.8-11.2-13.9-22-13.9-22s-23-27-4.5-39c0,0,7.9-0.2,12.3,2.2s14,22.3,15.6,25.8s19.1,36.2,20.3,37s3.1,3.4,10.1,7.2
	c8.6,4.6,22,18.1,22,18.1L358.8,293.2z"/>
<path class="st63" d="M278.5,312c-1.1,0-2.3-0.2-3.3-0.6c0,0-1.8-1.1-3-1.8c-0.3-0.2-0.7-0.4-1-0.5c-2-0.6-3.9-1.5-5.6-2.7
	c-2.2-1.7-9.4-8.4-9.4-8.4l4.6-7.1l2.1-7.1c0,0,16.7,1.7,19,3c0.2,0.1,0.4,0.3,0.6,0.4c1.8,1.3,2.6,3,3.4,3.8
	c0.3,0.3,3.2,3.4,3.1,4.7c-0.1,1.4-0.9,2.7-2.2,3.4c0,0-0.6,3.4-2.4,5c-0.3,1.9-1.5,3.5-3.2,4.5C281.3,308.5,280.4,311.6,278.5,312z
	"/>
<path class="st41" d="M251.8,96.4c0,0,30.2-7.3,23.9,31s-13.6,41.4-32,33.7S226.5,129,225.4,117S242.2,96.9,251.8,96.4z"/>
<path class="st41" d="M236,122.9c-0.4-3.4-7.1-4.5-7.6,0.6c-0.5,5.1,3.2,13.9,5.7,13S236.6,127.5,236,122.9z"/>
<path class="st64" d="M227.2,136.6c0,0,0.6-12,5-12.5s5.1,4.4,5.1,4.4l4.4,0.8c0,0-1.6-10.5,2.8-12.4s28.5,5.4,32,2.2
	s1.5-24.5-4.9-27.3s-24.1-9.1-36.9-0.2c0,0-10.1-1-11.4,7.1S224.4,130.6,227.2,136.6z"/>
<path class="st55" d="M268.6,283.8l-12.5,21.5c0,0-33.1-8.5-40.8-10.7l17.6-21C232.9,273.5,258.9,279.5,268.6,283.8z"/>
<path class="st45" d="M257.2,168.8L257.2,168.8c-9.3-0.8-17.7-6-22.5-14.1c6,6,14,9.5,22.4,9.8c0,0.3,0,0.6,0,0.9c0,0.5,0,1,0,1.5
	S257.2,168.2,257.2,168.8z"/>
<path class="st65" d="M528,393.2c9.4,3.2,19.6-1.9,22.8-11.3c0.6-1.8,0.9-3.6,0.9-5.5c0-0.4,0-0.8,0-1.2c-0.5-9.9-9-17.6-18.9-17
	s-17.6,9-17,18.9C516.2,384.4,521,390.8,528,393.2L528,393.2z M520.3,376c0.1-7.4,6.2-13.4,13.6-13.3c5.6,0.1,10.6,3.6,12.5,8.9l0,0
	c0.5,1.2,0.7,2.5,0.8,3.9c0,0.3,0,0.6,0,0.9c-0.1,7.5-6.2,13.4-13.7,13.3C526.1,389.6,520.2,383.4,520.3,376L520.3,376z"/>
<path class="st66" d="M544.5,384.4l3.6,2.8c-4.7,6.1-12.7,8.5-20,6l1.4-4.3C534.9,390.7,540.9,388.9,544.5,384.4L544.5,384.4z"/>
<path class="st67" d="M547.3,375.4l4.5-0.2c0,0.4,0,0.8,0,1.2c0,3.9-1.4,7.7-3.8,10.8l-3.6-2.8c1.8-2.3,2.8-5.2,2.8-8.1
	C547.3,376,547.3,375.7,547.3,375.4z"/>
<path class="st67" d="M547.3,375.4c-0.1-1.3-0.3-2.6-0.8-3.9l0,0l4.2-1.5c0.6,1.7,1,3.4,1,5.2L547.3,375.4z"/>
<path class="st68" d="M523,361.8c8-6,19.2-4.4,25.2,3.6c1.1,1.4,1.9,3,2.5,4.6l-4.2,1.5l0,0c-2.5-7-10.3-10.6-17.3-8.1
	c-1.3,0.5-2.5,1.1-3.6,1.9L523,361.8z"/>
<path class="st68" d="M479,355.2c-1.6-2.2-4.7-2.6-6.9-1c-0.8,0.6-1.4,1.4-1.7,2.4l0,0c-0.9,2.6,0.5,5.4,3.1,6.3
	c0.4,0.1,0.7,0.2,1.1,0.2h0.4h0.3c2.7-0.2,4.8-2.5,4.6-5.2C479.9,356.9,479.6,356,479,355.2z M476.3,361.6L476.3,361.6
	c-0.3,0.1-0.7,0.2-1.1,0.2H475c-2,0-3.7-1.7-3.6-3.7c0,0,0,0,0,0c0-0.3,0-0.5,0.1-0.8c0-0.1,0.1-0.2,0.1-0.4c0.7-1.9,2.8-3,4.7-2.3
	c1.9,0.7,3,2.8,2.3,4.7C478.2,360.4,477.4,361.2,476.3,361.6L476.3,361.6z"/>
<path class="st69" d="M549.4,283.6h-5.8c-1.3,0-2.3-1-2.3-2.3v-5.8c0-1.3,1-2.3,2.3-2.3h5.8c1.3,0,2.3,1,2.3,2.3v5.8
	C551.7,282.6,550.7,283.6,549.4,283.6z M543.7,273.7c-1,0-1.9,0.8-1.9,1.9v5.8c0,1,0.8,1.9,1.9,1.9h5.8c1,0,1.9-0.8,1.9-1.9v-5.8
	c0-1-0.8-1.9-1.9-1.9H543.7z"/>
<path class="st69" d="M549.4,297.4h-5.8c-1.3,0-2.3-1-2.3-2.3v-5.8c0-1.3,1-2.3,2.3-2.3h5.8c1.3,0,2.3,1,2.3,2.3v5.8
	C551.7,296.3,550.7,297.4,549.4,297.4z M543.7,287.4c-1,0-1.9,0.8-1.9,1.9v5.8c0,1,0.8,1.9,1.9,1.9h5.8c1,0,1.9-0.8,1.9-1.9v-5.8
	c0-1-0.8-1.9-1.9-1.9H543.7z"/>
<path class="st69" d="M543.7,301h5.8c1.1,0,2.1,0.9,2.1,2.1v5.8c0,1.1-0.9,2.1-2.1,2.1h-5.8c-1.1,0-2.1-0.9-2.1-2.1V303
	C541.6,301.9,542.5,301,543.7,301z"/>
<path class="st70" d="M546.2,308.1l-2.5-2.2c-0.2-0.2-0.2-0.5,0-0.7s0.5-0.2,0.7,0l0,0l1.8,1.5l2.5-2.8c0.2-0.2,0.5-0.2,0.7,0
	c0.2,0.2,0.2,0.5,0,0.7L546.2,308.1z"/>
<path class="st69" d="M505.9,323.2h43.7c1.1,0,1.9,0.9,1.9,1.9v1.7c0,1.1-0.9,1.9-1.9,1.9h-43.7c-1.1,0-1.9-0.9-1.9-1.9v-1.7
	C504,324.1,504.9,323.2,505.9,323.2z"/>
<path class="st69" d="M505.9,333.2h43.7c1.1,0,1.9,0.9,1.9,1.9v1.7c0,1.1-0.9,1.9-1.9,1.9h-43.7c-1.1,0-1.9-0.9-1.9-1.9v-1.7
	C504,334,504.9,333.2,505.9,333.2z"/>
<path class="st71" d="M549.6,349.3h-43.6c-1.2,0-2.2-1-2.2-2.2v-1.7c0-1.2,1-2.2,2.2-2.2h43.6c1.2,0,2.2,1,2.2,2.2l0,0v1.7
	C551.8,348.3,550.8,349.3,549.6,349.3L549.6,349.3z M505.9,343.7c-0.9,0-1.7,0.7-1.7,1.7v0v1.7c0,0.9,0.7,1.7,1.7,1.7h0h43.6
	c0.9,0,1.7-0.7,1.7-1.7v-1.7c0-0.9-0.7-1.7-1.7-1.7H505.9z"/>
<path class="st41" d="M292,266.1c18.8,19.3,43.6,43.7,43.6,43.7l9.7-18.4c0,0-22-25.9-37-43.1C303.8,250.6,295.4,255.9,292,266.1z"
	/>
<path class="st41" d="M280.4,292.1c2.2,1,4.3,2.2,6.4,3.5c1.3,1.1,6.7,5.1,8,6s-2,3.6-11.5-0.5S280.4,292.1,280.4,292.1z"/>
<polygon class="st43" points="280.9,236.8 272,318.8 388.1,318.8 396.9,236.8 "/>
<rect x="262.8" y="311.4" class="st43" width="19.4" height="7.4"/>
<polygon class="st72" points="485.7,230.5 501.8,204.5 493.5,208.4 "/>
<polygon class="st73" points="485.7,230.5 486.5,214.9 492.4,211.5 "/>
<polygon class="st74" points="498.1,210.5 500.2,213.2 485.7,230.5 "/>
<linearGradient id="SVGID_3_" gradientUnits="userSpaceOnUse" x1="38.9037" y1="198.5191" x2="397.82" y2="198.5191" gradientTransform="matrix(1 0 0 -1 0 520)">
	<stop  offset="0" style="stop-color:#96CBFF"/>
	<stop  offset="1" style="stop-color:#5599FF"/>
</linearGradient>
<path class="st75" d="M40.7,319.4l-0.5,0.3c-2.3,1.2-1.4,4.7,1.2,4.7l353.9-0.8c1.4,0,2.5-1.1,2.5-2.5l0,0c0-1.4-1.1-2.5-2.5-2.5
	l-353.4,0.5C41.5,319.1,41.1,319.2,40.7,319.4z"/>
<path class="st50" d="M412.4,306.8c0,0-27,22.1-16.1,41.7s17.8,3.7,17.8,3.7s8.1,3.1-2.5-20.8C406.6,320.1,412.4,306.8,412.4,306.8z
	"/>
<path class="st51" d="M370.8,270.2c0,0-21,21.2,2.5,54.5s18.2,49.6,18.2,49.6S431.4,322.4,370.8,270.2z"/>
<path class="st52" d="M398.7,364.7c11.8,3.3,3.9-31.7-13.2-43.7s-33.2-14.2-42.5-25.2C343,295.8,340.6,348.4,398.7,364.7z"/>
<linearGradient id="SVGID_4_" gradientUnits="userSpaceOnUse" x1="325.19" y1="96.1" x2="582.38" y2="96.1" gradientTransform="matrix(1 0 0 -1 0 520)">
	<stop  offset="0" style="stop-color:#96CBFF"/>
	<stop  offset="1" style="stop-color:#5599FF"/>
</linearGradient>
<rect x="325.2" y="421.4" class="st76" width="257.2" height="5"/>
<ellipse transform="matrix(0.2002 -0.9798 0.9798 0.2002 -4.64 549.8739)" class="st77" cx="334.5" cy="277.8" rx="8.4" ry="6.6"/>
<path class="st41" d="M575.8,372.2c0,0-0.2,1-0.8,1.2c-0.5,0.2-0.9,0.5-1.2,0.8c-0.2,0.2-1.2,0.6-0.9,0.9s1.6-0.6,1.9-0.7
	s-0.1,1.3,0,1.6s2.5,0.9,2.8-0.1c0-0.8,0-1.6-0.2-2.4c0.1-0.2,0.1-0.5,0.2-0.7L575.8,372.2z"/>
<path class="st41" d="M574.8,375.8c-0.2,1.1-0.2,2.3-0.2,3.4c0.2,0.2,0.3,0.2,0.4,0s0.5-3.1,0.5-3.1s0.2,3.8,0.3,4s0.4,0.2,0.4,0
	s0.1-4,0.1-4s0.2,3.6,0.3,3.7c0.1,0.1,0.3,0.1,0.4,0c0,0,0.1-0.1,0.1-0.2c0-0.3,0-3.6,0-3.6c0.1,0.9,0.2,1.8,0.5,2.7
	c0.1,0,0.4,0.1,0.3-0.6s-0.2-2.3-0.2-2.3L574.8,375.8z"/>
<path class="st41" d="M541.7,333.3c-0.3-0.6-0.5-1.1-0.7-1.8c-0.3-0.8-0.8-1.5-1.5-2.1c-1.1-0.8-2.3-1.6-3.6-2.3
	c-0.3,0-0.1,0.6,0.2,0.8s2.6,2,2.6,2c-1-0.7-2.1-1.4-3.2-1.9c-0.3,0-0.5,0.4-0.2,0.8c-0.3,0.1-0.4,0.4-0.3,0.7
	c0.1,0.1,0.2,0.2,0.3,0.3l1.4,1.1c0,0-0.8-0.4-0.5,0.2c0.7,0.6,1.4,1.1,2.1,1.6c0.8,0.5,1.6,1,2.4,1.3L541.7,333.3z"/>
<path class="st41" d="M558.7,422.3h-0.7c0,0,0.2-2.7-0.4-2.7s-2.3,2.2-3.3,2.5s-6,0.6-6.1-0.3s1.9-1.3,2.5-1.6s3.6-3.2,4.1-3.5
	c0.6-0.6,1-1.3,1.4-2.1h2.7c0,0,0.3,1.5,0.5,2.7c0.1,0.4,0.1,0.7,0.1,1.1C559.4,419.7,559.1,421,558.7,422.3z"/>
<path class="st41" d="M571.8,421.7h-0.6v-2.5c-0.5,0-2.2,1.6-2.7,2.1s-1.2,0.4-3.4,0.6s-2.4-1.2-2-1.6s1.5-0.6,2-0.9
	c1.2-1.1,2.4-2.2,3.5-3.5c0.5-0.7,0.8-1.5,1-2.4l2.5,0.2c0,1,0.1,2,0.3,3l0,0c0,0.1,0,0.2,0.1,0.3
	C572.9,418.4,571.8,421.7,571.8,421.7z"/>
<path class="st41" d="M565.2,337.4c0,0,1.2,2.6,0.6,4.8c0,0,3.8-0.5,3.9-1s-0.5-4.5,0-5.7S565.2,337.4,565.2,337.4z"/>
<path class="st56" d="M565.1,341.3c0,0-2.2,1-3.2,1.2s-3.1,1.4-2.7,5.2c0.4,2.9,1,5.7,1.7,8.5c0.4,2.5,0.5,5.1,0.3,7.7
	c4,0.5,8,0.2,11.9-0.9c-0.6-1.3-1.1-2.7-1.4-4.2c0-0.9,3.2-8.4,3.3-9.5s0.5-6.2-1.3-7.2s-3.2-0.7-4-1.2S566.1,340.9,565.1,341.3z"/>
<path class="st56" d="M565.1,347.1c0,0,0.8-4.5-3.5-4.5c-2.7,0.1-5.4-0.3-8-1c-1.5-0.7-2.9-1.6-4.2-2.7c-1.2-1.3-7.8-6.3-7.8-6.3
	l-1.8,1.9c0,0,7,7.6,8.1,8.3s10.6,6,11.8,6.2S564.2,350,565.1,347.1z"/>
<path class="st56" d="M578.7,360.9c0.1,1.6-0.7,12.4-0.7,12.4l-3.1,0.4c0,0,0.2-10.7,0.4-13.2c0-1-0.1-2.1-0.4-3.1l0,0
	c-0.2-0.8-0.4-1.6-0.6-2.4c-0.6-2.1-1.2-4-1.2-4s-3.5-9,0.9-8.6c1.1,1.3,1.9,2.8,2.3,4.4c0.7,2.8,1.2,5.6,1.5,8.4
	C577.8,356.9,578.6,359.7,578.7,360.9z"/>
<path class="st78" d="M561.9,363.8c-0.4,1-0.8,1.9-1.1,2.9c-0.1,0.6-3.2,8.4-3.4,10.6s-0.9,8.4-1.1,9.3s0.5,4.8,0.6,5.7
	s0.1,15.2-1,22.3c0,0,2.5,1,4.3,0c0,0,3.1-11,2.9-17.4s-1-9.1,0-11.6s6.8-10.3,7.4-11.1s4.2-5.3,0.8-10.2S561.9,363.8,561.9,363.8z"
	/>
<path class="st78" d="M573.8,384.7c-0.3,2,0,4.7,0.7,12.2s-1.1,16.5-1.1,16.5c-1.6,0.4-3.2,0.4-4.8,0c0.1-0.5,0-18.2,0-19.8
	s-0.5-3.4-0.6-5.2c-0.3-2-0.7-3.9-1.3-5.8c-0.2-0.7-0.4-1.4-0.6-2.1l0,0l-0.3-1.1c-0.9-3.2-2.1-15.4-2.1-15.4s6.8-5.5,10.1-0.3
	s1.6,8.9,1.5,9.5S574.1,382.7,573.8,384.7z"/>
<path class="st56" d="M560.7,354.6c0,0,0.6,9.7-1.2,15.1c5.5,0.6,11.1,0,16.3-1.9c0,0-2.5-6.5-2.4-7.5s2.7-12.9,1.5-15.5
	S561.1,345.9,560.7,354.6z"/>
<path class="st41" d="M566.5,326.6c-1.6-0.1-5.8,0.6-5,6.9s3,5.8,5.3,4.9s4.6-5.9,4.5-7.2S571.2,326.8,566.5,326.6z"/>
<path class="st57" d="M561.5,330.6c1.1,1.2,2.4,2,3.9,2.6c1,1.4,2.4,2.5,4.1,2.9c0,0,4.9-5.4,0.2-8.9S561.3,328.7,561.5,330.6z"/>
<path class="st41" d="M565,332.3c0.1-0.4,0.5-0.7,0.9-0.6c0.2,0,0.3,0.1,0.5,0.3c0.7,0.7-0.3,2.7-0.7,2.7S564.8,333.7,565,332.3z"/>
<path class="st79" d="M571,373.7c0,0.1-3.4,7.6-4.3,8.9c-0.2-0.7-0.4-1.4-0.6-2.1l0,0L571,373.7z"/>
<path class="st80" d="M575,349.7c0.1,2.6,0.1,5.1-0.2,7.7c-0.2-0.8-0.4-1.6-0.6-2.4C574.3,355,575,350.5,575,349.7z"/>
<path class="st57" d="M567.8,326.2c0,0,5.7-0.1,4.8,9.7c-0.7,7.5,2.1,11.2,1.7,12.3s-1.7,2.9-4.7,1.3s-1.9-9.5-3.5-12.9
	c-1.1-2.1-2.5-4-4.2-5.7C561.9,330.9,562.5,325.2,567.8,326.2z"/>
<path class="st56" d="M560.1,346l-1.6,5.8c-0.4,1.4,1.5,4.1,3.1,3.3S560.1,346,560.1,346z"/>
<path class="st56" d="M571.8,421.7h-0.6v-2.5c-0.5,0-2.2,1.6-2.7,2.1s-1.2,0.4-3.4,0.6s-2.4-1.2-2-1.6s1.5-0.6,2-0.9
	c2.3,0.1,5.2-3.2,6.5-3.1c0.7,0,0.7,0.4,0.7,0.5l0,0c0,0.1,0,0.2,0.1,0.3C572.9,418.4,571.8,421.7,571.8,421.7z"/>
<path class="st56" d="M558.7,422.3h-0.7c0,0,0.2-2.7-0.4-2.7s-2.3,2.2-3.3,2.5s-6,0.6-6.1-0.3s1.9-1.3,2.5-1.6
	c2.1,0,5.5-2.3,6.5-2.8c0.7-0.3,1.5-0.3,2.2-0.2c0.1,0.4,0.1,0.7,0.1,1.1C559.4,419.7,559.1,421,558.7,422.3z"/>
<path class="st81" d="M371.9,85c-1.7,0.9-2.5,2.9-2,4.7c0.6,3.5,0.9,3.9,0.2,5.3s-1.6,7.1-0.9,8.2s8-4.8,9-9.8s-0.6-7.2-1.2-8
	S374.2,83.8,371.9,85z"/>
<polygon class="st69" points="334.4,59.3 367.1,59.3 367.1,83.1 367.1,88.1 362.1,83.1 334.4,83.1 "/>
<path class="st82" d="M370.8,158.7c-0.2,0.5-0.5,0.9-0.8,1.3c-0.4,0.5-1.5,2.4-2,2.6s-2,0.4-2.2,1.3s-0.2,1.5,1.3,1.5
	s2.5,0.2,3.2-0.9c0.5-0.7,1.2-1.3,1.9-1.8v2.8h0.6c0.1-1,0.2-2.1,0.4-3.1c0.4-1.3,0.1-2.6-0.8-3.6
	C371,157.5,370.8,158.7,370.8,158.7z"/>
<path class="st41" d="M368,162.5c0,0,1.4,0.3,1.9,0s2.3-3.3,2.9-3.5c0,0-0.6-1.1-2-0.3C370.8,158.7,368.4,162,368,162.5z"/>
<path class="st41" d="M354.7,111.2c0,0-0.9,0.2-1.3-0.3c-0.3-0.3-0.7-0.6-1.1-0.8c-0.3-0.1-0.9-0.8-1.1-0.5s1,1.1,1.2,1.4
	s-1.2,0.3-1.4,0.5s0,2.5,1,2.3c0.7-0.2,1.4-0.6,2-1c0.2,0,0.5-0.1,0.7-0.1L354.7,111.2z"/>
<path class="st41" d="M351.4,111.5c-1,0.2-2,0.6-3,0.9c-0.1,0.2-0.1,0.4,0.2,0.3l2.8-0.6c0,0-3.2,1.4-3.4,1.6s0,0.4,0.1,0.4
	s3.4-1.2,3.4-1.2s-3,1.3-3.1,1.5c-0.1,0.1,0,0.2,0.1,0.3c0.1,0,0.1,0,0.2,0l3.1-1.2c-0.7,0.4-1.4,0.8-2.1,1.3c0,0.1,0,0.4,0.6,0.1
	s1.9-0.9,1.9-0.9L351.4,111.5z"/>
<path class="st82" d="M378.4,160.5c-0.6,1-1.4,1.9-2.1,2.8c0,0-1.4,0.5-1.5,1.4s-0.1,1.6,1.5,1.6s2.7-0.2,3-1.2
	c0.2-0.6,0.5-1.2,0.9-1.6v2h0.4c0,0,0.1-2,0.1-2.3s0.3-1.8-0.5-2.4C379.6,160.4,379,160.3,378.4,160.5z"/>
<path class="st83" d="M379.4,116.9c1.2,1.6,2,3.5,2.4,5.4c0.5,3-0.3,12.9-0.3,14.4s1.4,5.1,1.1,7.9s-1.3,16.4-1.3,16.4l-2.9-0.6
	c0,0,0.2-14,0-15.1s-0.5-5.4-0.6-5.9s-4.3-13-4.3-15.1S374.8,113.4,379.4,116.9z"/>
<path class="st83" d="M369.7,117.9c0,0-3.1,12-3.5,13.7c-0.4,1.2-0.7,2.5-0.9,3.8c0.1,1.4,0.3,2.9,0.6,4.3l4,19.1h3.8
	c0,0-2.1-11.5-2.2-13.7s-1.8-5.4-1.5-6.4s5.5-11.9,5.5-11.9S379.5,114.4,369.7,117.9z"/>
<path class="st41" d="M376.2,163.3c0.8,0.5,1.9,0.4,2.6-0.2c0.6-0.7,1-1.4,1.3-2.2l-1.7-0.4L376.2,163.3z"/>
<path class="st84" d="M371,97.5c-0.9,0.1-1.7,0.5-2.3,1.2c-0.9,1-1.6,2.1-2.2,3.3c-0.3,0.6-3.9,5.8-4,5.9s-2,0.7-3.2,1.1
	c-1.9,0.6-5.6,2-5.6,2l0.7,2.3c0,0,7-2.3,8.7-2.7c2.1-0.5,7.1-6.8,7.1-6.8S374,99.4,371,97.5z"/>
<path class="st43" d="M373.3,96.6c-0.7,0.4-1.5,0.7-2.3,0.9c-0.6,0.1-2.9,3.1-3.2,4.1s0,2.7,0.8,4.6s0,2.5,0.4,4.4
	c0.3,3.3,0.3,6.7,0.2,10c-0.1,1.1,10.9,2.7,13.1,0.7c0,0-1.5-6.4-3.2-8.2c-0.4-0.4-0.3-3-0.1-3.7s3.2-5.5,3.2-5.5s0.2-5-1-5.9
	c-1.1-0.8-4.1-1.2-4.6-1.3C375.5,96.4,374.4,96.4,373.3,96.6z"/>
<path class="st41" d="M372.5,94.6c0,0,0,0.5,0.1,1.1c0,0.2,0,0.5,0.1,0.8c0.1,0.7,0.1,1.5,0.1,2.2c0,0,1.8,1.8,3.7-2
	c-0.5-1.2-0.6-2.5-0.2-3.7C376.9,90.8,372.5,94.6,372.5,94.6z"/>
<path class="st85" d="M367.6,106.9c-0.2-1.5-0.2-3,0-4.5c0.1,1.2,0.3,2.4,0.8,3.5L367.6,106.9z"/>
<path class="st41" d="M377.9,96.9c0,0-1.2,3.6-4.5,3.3s-1.6-3-1.6-3c0.3-0.2,0.7-0.4,1-0.5c0.2,0,3.6-0.1,3.6-0.1L377.9,96.9z"/>
<path class="st84" d="M371.8,97.2c-1.1,3.1-1.6,6.4-1.7,9.7c0,4.9-0.1,12.8-0.7,15.3s-2.3,10.3-2.3,10.3l-1.4-0.7
	c0,0,3.2-12.4,3.5-13.3c0.1-3.7,0-7.4-0.4-11.1c-0.2-0.8-1.2-4.3-1.1-5.3c0.5-1.8,1.7-3.5,3.2-4.6L371.8,97.2z"/>
<path class="st84" d="M377.2,96.8c-0.8,2.6-1.3,5.2-1.6,7.8c-0.5,4.4,1.7,24.9,3.2,29.5l5.8-0.9c0,0-1.2-14.5-2.9-17.1
	s-2.2-5-0.4-10.5s-0.8-8.2-0.8-8.2S377.7,96.8,377.2,96.8z"/>
<polygon class="st86" points="371,111.4 378,123.5 385.7,119 379,106.7 "/>
<polygon class="st87" points="371.8,111.8 378,122.5 384.9,118.6 379,107.7 "/>
<polygon class="st86" points="374.1,110.8 373.7,110.1 376.5,108.5 377,109.2 "/>
<path class="st41" d="M374.5,119.4c0.2,0,0.3,0,0.5-0.1l0.4-0.2l0.1-0.1c0.3-0.1,0.5-0.2,0.8-0.3c0.5-0.5,1-1,1.4-1.5l-0.5-0.8
	l-0.4-0.8c-0.9,0-1.7,0.1-2.6,0.3l-0.1,0.1c-0.2,0.1-0.3,0.3-0.5,0.5c0,0-0.5,0.4-0.4,0.6c0,0.2,0.1,0.4,0.3,0.5
	c0,0.3,0.1,0.5,0.3,0.7c0,0.3,0.2,0.5,0.4,0.6C374.1,118.9,374.2,119.3,374.5,119.4z"/>
<path class="st84" d="M379.2,97.5c1.4-0.3,2.8,0.4,3.3,1.7c0.8,1.4,1.3,2.9,1.4,4.5c0.1,1.1,0.9,4,0.9,4.3s1.6,3.9,0.9,5.2
	s-8.1,5-8,5.3s-1.3-2.8-1.3-2.8c1.2-0.6,2.4-1.4,3.5-2.2c0.8-0.8,2.5-1.7,2.1-2.8c-0.4-1.2-1.6-5.3-1.9-5.9S377.4,98.2,379.2,97.5z"
	/>
<path class="st44" d="M372.2,85.4c0,0-3.8,1.2-1.7,7.7s7.2-0.8,6.7-4.7S372.2,85.4,372.2,85.4z"/>
<path class="st81" d="M370.1,89.2c1.4,1.2,3.2,1.9,5,2.1c0.5,0.6,1,1.3,1.3,2c0,0,2.8-4.8-0.6-7.6S368.9,88,370.1,89.2z"/>
<path class="st44" d="M375.1,91.4c0-0.5,0.3-1.6,1-1.2s0,2.5-0.5,2.4C375.6,92.5,375,92.5,375.1,91.4z"/>
<path class="st45" d="M372.6,95.7c0,0.2,0,0.5,0.1,0.8c0,0,1.7-0.1,2.8-2.6C375.4,94,374.2,95.8,372.6,95.7z"/>
<path class="st74" d="M504.1,196.9l-0.8-0.4c1.1-2.5,2-5,2.7-7.6l0.9,0.2C506.2,191.8,505.3,194.4,504.1,196.9z M508.5,181.1
	l-0.9-0.1c0.3-2.5,0.5-5,0.5-7.5c0-0.2,0-0.4,0-0.6h0.9c0,0.2,0,0.4,0,0.6C509.1,176.1,508.9,178.6,508.5,181.1z M507.4,164.9
	c-0.5-2.7-1.2-5.3-2.1-7.8l0.9-0.3c0.9,2.6,1.6,5.2,2.1,7.9L507.4,164.9z M502,149.8c-1.3-2.3-2.9-4.5-4.6-6.6l0.7-0.6
	c1.7,2.1,3.3,4.4,4.7,6.8L502,149.8z M491.8,137.3c-2-1.8-4.1-3.5-6.4-4.9l0.5-0.8c2.3,1.5,4.4,3.2,6.5,5L491.8,137.3z M478.4,128.3
	c-2.2-1.1-4.7-2.2-7.4-3.2l0.3-0.8c2.8,1.1,5.2,2.2,7.5,3.3L478.4,128.3z M463.4,122.3l-2.7-0.9c-1.7-0.6-3.4-1.1-5-1.7l0.3-0.8
	c1.7,0.6,3.4,1.2,5,1.7l2.7,0.9L463.4,122.3z M448,116.8c-2.7-1.1-5.1-2.2-7.5-3.4l0.4-0.8c2.3,1.2,4.7,2.3,7.4,3.3L448,116.8z
	 M433.5,109.4c-2.3-1.5-4.5-3.1-6.6-4.8l0.6-0.7c2.1,1.7,4.3,3.3,6.5,4.8L433.5,109.4z M420.9,99c-1.9-1.9-3.7-4-5.4-6.2l0.7-0.6
	c1.7,2.2,3.5,4.2,5.3,6.1L420.9,99z M410.7,86.2c-1.5-2.2-2.9-4.5-4.2-7l0.8-0.4c1.4,2.4,2.8,4.7,4.2,6.9L410.7,86.2z M402.6,72
	c-1.3-2.4-2.8-4.6-4.4-6.8l0.7-0.5c1.6,2.2,3.1,4.5,4.5,6.9L402.6,72z M269.9,65.7l-0.7-0.5c1.4-2,2.9-3.8,4.6-5.5l0.6,0.6
	C272.7,62,271.2,63.8,269.9,65.7z M392.9,59.1c-1.9-1.9-3.9-3.8-6-5.4l0.6-0.7c2.1,1.7,4.2,3.5,6.1,5.5L392.9,59.1z M280.4,55
	l-0.5-0.7c2.2-1.7,4.5-3.2,6.8-4.6l0.5,0.8C284.8,51.9,282.6,53.4,280.4,55z M380.3,49.1c-2.3-1.4-4.7-2.7-7.1-3.8l0.4-0.8
	c2.5,1.1,4.9,2.4,7.2,3.8L380.3,49.1z M294.3,46.8l-0.4-0.8c2.4-1.1,5-2.2,7.6-3.1l0.3,0.8C299.3,44.6,296.8,45.6,294.3,46.8
	L294.3,46.8z M365.6,42.3c-2.5-0.8-5.1-1.6-7.8-2.2l0.2-0.9c2.7,0.6,5.3,1.4,7.9,2.2L365.6,42.3z M309.6,41.3l-0.2-0.9
	c2.6-0.7,5.3-1.3,8-1.8l0.2,0.9C314.9,40,312.2,40.6,309.6,41.3L309.6,41.3z M349.8,38.7c-2.6-0.4-5.4-0.6-8.1-0.8V37
	c2.7,0.1,5.5,0.4,8.1,0.8L349.8,38.7z M325.5,38.4l-0.1-0.9c2.7-0.3,5.5-0.5,8.2-0.5v0.9C331,37.8,328.3,38,325.5,38.4L325.5,38.4z"
	/>
<path class="st88" d="M468.8,274.4c0,0,11.7-34.4-10.6-45s-41.4,4.8-45,13.1s-2.6,23.5,0.4,34.1s2.6,26.7-4,32S394.6,323,395,341.2
	c0.2,11.3,44.4-28.9,44.4-28.9L468.8,274.4z"/>
<path class="st56" d="M437.3,315.4c0,0-18.4,4.1-25.7,8.3s-23.5,23.9-23.5,32.3s70.9,16.4,70.9,16.4l13.4,49.1c0,0,35.8-8.8,40.1-16
	c4.3-7.2-13.6-59.2-16.7-69.8c-3.1-10.7-16-18.2-30.9-20.3C455.8,314.1,446.5,314.1,437.3,315.4z"/>
<path class="st41" d="M463.7,315.2c0,0-0.4,22.4-18.1,23s-14-21.4-14-21.4S444.5,311.5,463.7,315.2z"/>
<path class="st88" d="M471.2,247.7c0,0,6.3,36-11.6,61.9C441.1,336.5,471.2,247.7,471.2,247.7z"/>
<path class="st41" d="M459.9,299.4c0,0-1.2,10.7,0.8,17.3s-27.1,6.8-27.1,1.4c0-6.2,3-11.4,0.2-22S459.9,299.4,459.9,299.4z"/>
<path class="st45" d="M437.3,300.7c0,0,9.2,9.6,21,1c0,0-1,6.1-9.4,6.9S437.3,300.7,437.3,300.7z"/>
<path class="st41" d="M448.8,235.3c0,0,23.3,6.9,20,39.2s-18.5,30.6-20,30.9s-19.5,1.4-25.2-37.8S448.8,235.3,448.8,235.3z"/>
<path class="st88" d="M442.8,249.7c0,0,12.6,20.1,26,24.8c0,0,7.3-33.8-22.8-40.8s-25.3,34.1-23.1,45.1
	C427.6,267.8,434.3,257.9,442.8,249.7z"/>
<path class="st89" d="M425.8,246.6c0,0,6.7-12.9,17.9-13.5s17.9,9.2,17.9,9.2s-4.4-11-17.9-11S425.8,246.6,425.8,246.6z"/>
<rect x="469.7" y="414" class="st43" width="19.4" height="7.4"/>
<polygon class="st43" points="471.6,348 479.5,421.4 375.6,421.4 367.7,348 "/>
<ellipse transform="matrix(0.9798 -0.2002 0.2002 0.9798 -68.4803 92.6069)" class="st77" cx="423.6" cy="384.9" rx="6.6" ry="8.4"/>
<path class="st90" d="M340.6,63.5V75h6.2v3.3h-10.1V63.5H340.6z"/>
<path class="st90" d="M352.8,63.5l3.9,8.6l3.9-8.6h4.2v14.7h-3.4v-9.3l-3.4,7.8h-2.6l-3.4-7.9v9.3h-3.4V63.5H352.8z"/>
</svg>
